<svg width="100" height="100" viewBox="0 0 100 100" fill="none" xmlns="http://www.w3.org/2000/svg">
<path d="M5.18941 2.90958C7.84703 3.23953 10.0547 2.33966 11.8065 0.227968C11.8724 0.149979 11.9204 0.0719896 11.9804 0H4.15756C3.83961 1.09784 4.04958 1.96772 4.81147 2.59163L5.18941 2.90958Z" fill="#E9DECC"/>
<path d="M8.88467 9.46174L9.3526 8.89172C9.90452 8.2317 10.0065 7.45768 9.65256 6.60566L9.08864 6.13765C7.18091 4.5536 4.70327 5.03361 1.65571 7.56569C1.10979 8.23771 1.0738 9.14973 1.56573 10.2958C3.55744 11.9458 5.99309 11.6638 8.88467 9.46174Z" fill="#E9DECC"/>
<path d="M1.04385 0H0V4.22939C0.419939 2.11169 1.30781 0.833879 1.04385 0Z" fill="#E9DECC"/>
<path d="M40.5971 47.1443C42.3128 48.0983 44.3525 47.6663 45.9303 45.2482C47.6341 42.6261 47.5561 40.6581 46.6142 39.8721C44.6465 39.482 42.7748 40.0401 41.4969 41.9001C39.7272 44.4682 39.5352 46.2622 40.2251 46.8323L40.5971 47.1443Z" fill="#E9DECC"/>
<path d="M38.2333 56.4741C39.6191 57.6021 40.8369 58.6161 41.6828 59.6122C43.7465 62.0482 44.6104 63.3383 44.9043 63.5843C46.1941 64.6703 47.6159 64.4603 49.1457 63.0023L49.6136 62.4382C49.9436 58.6761 49.8896 56.7081 49.8836 56.4081C49.8536 52.4239 52.0253 50.5999 50.8075 49.5919C49.7696 48.7518 48.6298 48.8958 47.13 49.1119C42.1687 49.8139 38.6472 49.0819 37.1294 50.5759C35.6296 52.0459 35.8216 54.512 38.2333 56.4741Z" fill="#E9DECC"/>
<path d="M62.2539 45.2956C59.6023 44.6956 57.3886 45.4756 55.6009 47.6357L55.1329 48.1997C53.8131 50.2218 53.7351 51.7098 54.887 52.6578L55.2649 52.9699C57.9225 53.3059 60.1362 52.3998 61.882 50.2878C63.2558 48.6317 63.4237 47.0117 62.4039 45.4216L62.2539 45.2956Z" fill="#E9DECC"/>
<path d="M59.4282 58.9646C59.9801 58.2985 60.0821 57.5245 59.7281 56.6725L59.1642 56.2045C57.2625 54.6204 54.5149 54.8184 51.7313 57.6325C51.1194 58.2505 51.1494 59.2166 51.6473 60.3626C53.639 62.0126 56.0747 61.7306 58.9602 59.5226L59.4282 58.9646Z" fill="#E9DECC"/>
<path d="M49.854 46.964C51.6957 48.026 53.5314 47.45 55.3672 45.2239L57.0589 43.1779C57.9288 42.1278 58.0968 40.6518 56.861 39.2537C55.6551 37.8917 53.0275 38.6537 50.2199 41.5938C48.5222 43.3639 48.4682 45.2179 49.662 46.814L49.854 46.964Z" fill="#E9DECC"/>
<path d="M0 99.1055V99.9994H1.04385C0.989857 99.8254 0.893872 99.6754 0.719897 99.5375C0.49193 99.3455 0.245964 99.2075 0 99.1055Z" fill="#E9DECC"/>
<path d="M12.1789 95.2358C9.53324 94.6299 7.30757 95.4158 5.52582 97.5755L5.05789 98.1394C4.61395 98.8233 4.32 99.4352 4.15802 99.9991H11.9809C13.1867 98.4213 13.3127 96.8736 12.3348 95.3618L12.1789 95.2358Z" fill="#E9DECC"/>
<path d="M6.98787 93.111C7.85775 92.067 7.79176 90.759 6.7839 89.1869C5.38611 88.0289 3.16643 88.8089 0.142863 91.527C0.0888707 91.593 0.0528759 91.653 0.00488281 91.719V96.9992C1.76863 97.8932 3.53237 97.2932 5.29612 95.1571L6.98787 93.111Z" fill="#E9DECC"/>
<path d="M88.0377 0C87.6658 0.132004 87.3178 0.288009 87.0359 0.510015C85.6921 2.13006 86.07 4.09812 88.1457 6.40818C89.6935 7.30221 90.7493 8.55025 91.5952 9.54628C93.6589 11.9823 94.5288 13.2724 94.8168 13.5244C96.1186 14.5924 97.5284 14.4004 99.0581 12.9424L99.5261 12.3784C99.85 8.61625 99.796 6.64819 99.796 6.34218C99.796 5.55616 99.874 4.86014 100 4.23012V0H88.0377Z" fill="#E9DECC"/>
<path d="M91.4038 91.8394C89.8621 94.5515 89.4421 96.2016 90.126 96.7656L90.504 97.0776C92.2197 98.0376 94.0015 97.4076 95.8372 95.1815C97.235 92.3854 97.463 90.5914 96.5211 89.8054C94.5474 89.4214 92.8376 90.0994 91.4038 91.8394Z" fill="#E9DECC"/>
<path d="M99.9883 99.1057C99.1364 98.7578 98.1945 98.8777 97.0367 99.0457C92.9093 99.6276 89.8977 99.3517 88.038 99.9996H99.9883V99.1057Z" fill="#E9DECC"/>
<path d="M99.9885 91.7197C98.5727 93.5374 98.4167 95.2112 99.5746 96.7469L99.7665 96.8969C99.8385 96.9389 99.9105 96.9629 99.9885 96.9989V91.7197Z" fill="#E9DECC"/>
</svg>
