<svg width="360" height="80" viewBox="0 0 360 80" fill="none" xmlns="http://www.w3.org/2000/svg">
<path d="M241.391 27.2003C241.393 27.1352 241.403 27.0146 241.437 26.8112C241.478 26.5998 241.516 26.3676 241.523 26.096C241.574 25.9419 241.618 25.7937 241.661 25.6455C241.709 25.4845 241.755 25.3245 241.813 25.1506C242.285 23.7084 242.871 21.9126 242.702 20.0367C242.702 20.0071 242.699 19.8994 242.694 19.8708C242.658 19.6781 242.632 19.4934 242.605 19.3136C242.572 19.0884 242.539 18.8701 242.499 18.6725C242.216 16.8382 241.896 14.7578 240.855 12.6874C240.568 12.0433 240.091 11.6215 239.41 11.4279C239.267 11.3963 239.122 11.3805 238.974 11.3805C237.85 11.3805 236.852 12.2804 236.005 13.123L235.844 13.287C235.495 13.5715 235.101 13.8115 234.684 14.0654L234.26 14.3291C233.448 14.8438 232.605 15.3762 231.807 16.1329C231.624 16.3156 231.451 16.4085 231.494 16.4233C230.028 16.1912 228.648 15.8444 227.185 15.477L225.511 15.0295C225.467 15.0176 225.434 15.0186 225.384 15.0186C222.919 14.584 220.326 14.3726 217.454 14.3726C216.633 14.3726 215.789 14.3904 214.858 14.4269C212.515 14.6284 210.458 15.154 208.533 16.0252C208.219 16.0252 207.701 15.6824 207.218 15.1707C207.165 15.0996 207.113 15.0206 207.059 14.9406C206.995 14.8448 206.93 14.749 206.882 14.6857C206.355 13.8994 205.884 13.2485 205.3 12.6271L203.71 10.9636C203.218 10.4312 202.393 9.5412 201.209 9.5412C200.92 9.5412 200.178 9.62318 199.562 10.3512C199.019 10.8915 198.681 11.663 198.633 12.4533C198.534 13.5685 198.322 14.7519 198.115 15.8958L198.012 16.4687C197.654 18.3446 197.227 20.6037 197.241 22.8609C195.103 21.3258 192.814 20.5158 190.473 20.5158C190.363 20.5158 190.253 20.5178 190.162 20.5217C189.379 20.4852 188.368 19.9034 187.476 18.9847C186.673 17.9465 185.793 17.0693 184.82 16.1003C184.363 15.6449 183.909 15.1915 183.44 14.6877L183.338 14.587C180.812 12.394 177.692 11.0417 173.513 10.3285C171.48 10.0173 169.204 10.1023 166.46 10.609L165.396 10.855C157.871 12.6894 150.765 14.422 143.729 18.477C139.47 20.8961 135.042 23.5672 131.828 27.2606C131.249 27.9402 130.723 28.6811 130.259 29.333L129.953 29.7618C128.516 31.8381 127.03 33.9837 124.543 34.2385C122.259 34.4934 119.809 33.2675 118.627 31.3423C117.084 28.8885 117.463 25.1783 119.549 22.3215C121.305 19.9251 124.04 18.0413 128.157 16.3947C129.377 15.9086 130.73 15.4128 132.292 14.8803C134.337 14.1889 136.725 13.3393 138.937 12.2784C143.006 10.3344 145.132 7.36306 144.625 4.33048C144.363 2.71639 143.292 1.3453 141.686 0.566903C140.118 -0.193713 138.241 -0.188774 136.867 0.580733C136.632 0.712112 136.546 1.01043 136.674 1.24652L137.616 2.96532C137.74 3.19548 138.054 3.28734 138.286 3.16683C138.888 2.85073 139.686 2.86555 140.379 3.21029C141.141 3.58961 141.628 4.1665 141.72 4.80858C141.873 5.67291 141.53 6.57084 140.699 7.47963C139.981 8.26593 138.908 9.0305 137.679 9.63306C135.729 10.5665 133.671 11.3084 131.37 12.1145C129.98 12.6143 128.543 13.1309 127.117 13.6831C122.486 15.553 119.351 17.7539 117.252 20.6087C113.997 25.0262 114.364 29.9741 116.171 32.9188C117.8 35.5543 120.877 37.2573 124.031 37.2573H124.873C124.881 37.2573 124.915 37.2563 124.923 37.2553C128.738 36.8799 130.803 33.9175 132.461 31.5388L132.645 31.282C133.16 30.5619 133.646 29.8823 134.161 29.2678C136.947 25.9913 141.013 23.5316 145.286 21.0937C152.054 17.2145 158.937 15.5372 166.224 13.7611L167.142 13.532C169.557 13.0904 171.447 13.0074 173.121 13.2613C176.717 13.8708 179.354 14.986 181.397 16.7522C181.871 17.2629 182.342 17.7331 182.813 18.2014C183.619 19.0035 184.469 19.8787 185.203 20.7934L185.23 20.8477C185.251 20.8872 185.276 20.9248 185.312 20.9653C185.685 21.3584 186.296 21.9323 187.083 22.4351C188.1 23.0812 189.126 23.4279 190.148 23.4654C190.151 23.4654 190.244 23.4654 190.247 23.4654C193.01 23.3419 195.654 24.7496 198.061 27.5816C198.25 27.9491 198.498 28.2978 198.828 28.6021C198.828 28.8036 198.707 29.1197 198.465 29.5622C198.361 29.7351 198.215 30.0048 198.117 30.2942C195.735 36.0156 197.427 43.1318 202.136 47.2174C203.274 48.2092 204.52 48.9708 205.742 49.7186L206.217 50.009C207.603 50.8042 208.727 51.5045 209.703 52.3323C209.914 52.523 210.124 52.7235 210.359 52.9467C210.574 53.1522 210.795 53.3636 211.02 53.5681C212.266 54.8088 213.428 55.8875 215.024 56.5236C215.97 56.9168 216.969 57.1084 218.077 57.1084C220.898 57.1084 223.84 55.6879 226.597 54.1548C226.715 54.0906 226.803 53.979 226.834 53.8575C226.871 53.7311 226.854 53.5918 226.786 53.4762L225.807 51.7989C225.741 51.6843 225.633 51.6013 225.504 51.5668C225.377 51.5312 225.236 51.55 225.123 51.6171C223.653 52.4647 222.077 53.3172 220.516 53.8052C218.809 54.3405 217.384 54.3544 216.151 53.8545C215.016 53.3814 214.062 52.4647 213.055 51.4976C212.587 51.0324 212.104 50.5898 211.579 50.1473C210.449 49.1723 209.192 48.4146 207.971 47.6797L207.179 47.1967C206.046 46.5062 204.976 45.8542 204.05 45.0304C200.256 41.739 198.893 36.0087 200.809 31.4035C200.839 31.3314 200.876 31.2642 200.923 31.1803C200.973 31.0904 201.03 30.9866 201.067 30.8918C201.427 30.2191 201.791 29.4052 201.748 28.4618C201.702 27.4434 201.093 26.5346 200.654 25.8806C200.606 25.8026 200.548 25.7167 200.479 25.6169C200.421 25.3531 200.373 25.0548 200.335 24.6933C200.335 24.4325 200.294 24.1707 200.255 23.9485C200.064 21.6962 200.457 19.4006 200.913 17.0535C201.166 15.799 201.422 14.4674 201.555 13.1062C201.601 13.1625 201.645 13.206 201.67 13.2307L203.092 14.7252C203.557 15.1875 203.925 15.6923 204.429 16.444C204.503 16.5349 204.567 16.6268 204.631 16.7177C204.703 16.8204 204.776 16.9241 204.835 16.9952L204.965 17.175C206.494 18.801 208.166 19.3858 209.651 18.8671C209.669 18.8612 209.763 18.8158 209.78 18.8079C211.324 18.0759 213.015 17.6432 215.078 17.4496C218.717 17.2965 221.876 17.4753 224.821 17.9821L225.757 18.2152C227.705 18.7219 229.344 19.1309 231.258 19.4035H231.349L231.499 19.4075C232.328 19.4075 233.105 19.0558 233.865 18.3406C234.461 17.8141 235.163 17.3627 235.841 16.9251L236.131 16.7374C236.323 16.6051 236.52 16.4796 236.717 16.3522C237.055 16.1358 237.396 15.9175 237.772 15.6242L237.807 15.5886C237.911 15.5185 238.014 15.4217 238.13 15.3061C238.244 15.1915 238.412 15.0246 238.59 14.8626C239.114 16.1961 239.35 17.5711 239.595 19.201C239.633 19.3917 239.661 19.5813 239.69 19.772C239.72 19.9725 239.751 20.173 239.783 20.3222C239.889 21.5184 239.502 22.8352 239.018 24.3179L238.63 25.5912C238.612 25.6416 238.604 25.6949 238.604 25.7493V25.8668C238.604 26.0081 238.578 26.1483 238.55 26.3093L238.53 26.422C238.45 26.9801 238.35 27.6755 238.634 28.3838C239.96 31.9191 240.437 34.5359 240.18 36.8414C239.724 39.4937 238.965 41.7528 237.925 43.5546C237.683 43.9695 236.825 44.6224 236.326 45.0047C235.335 45.7861 234.399 46.524 234.039 47.5582C233.575 48.9856 234.446 50.413 235.143 51.5569L235.266 51.7614C235.537 52.2049 235.815 52.6632 235.868 52.925C235.976 53.4634 235.976 54.0274 235.976 54.625C235.976 55.5644 235.976 56.5355 236.309 57.6171C236.507 58.2878 236.704 58.8786 236.907 59.4782C237.727 61.7837 238.376 63.6052 237.239 65.9424C235.895 68.7676 233.288 70.5871 231.335 71.6174C230.37 72.1311 229.526 72.4541 228.611 72.6625C226.837 73.0053 225.036 72.4057 223.349 71.7834L223.219 71.7369C221.495 71.1117 219.732 70.4538 217.555 70.6622C214.571 70.9684 213.759 72.868 213.226 74.1195L213.179 74.2262C212.895 74.8673 212.648 75.4215 212.172 75.866C211.071 76.8489 209.747 77.0553 208.832 77.0553C207.93 77.0553 206.981 76.8528 206.162 76.4873C203.469 75.2615 200.574 74.0642 197.4 74.0642C196.938 74.0642 196.471 74.0889 196.015 74.1393C194.406 74.3151 192.767 74.404 191.143 74.404C186.623 74.404 180.155 73.7244 174.64 70.5535C177.815 67.4281 179.988 63.7297 180.94 59.8239C182.437 53.8229 180.815 47.3676 176.808 43.3768C174.74 41.3172 172.274 40.4687 170.187 41.1038C169.194 41.412 168.224 42.062 167.308 43.0311C161.66 48.8572 160.98 59.0643 165.763 66.2714C166.939 68.0119 168.314 69.544 169.855 70.8351C169.792 70.8815 169.729 70.9269 169.666 70.9724L169.378 71.1828C163.653 75.2496 156.247 77.2499 148.956 76.7185C141.498 76.1367 134.129 73.1949 129.726 69.0382C126.41 65.9276 124.206 61.3975 123.523 56.2954C123.445 55.5526 123.366 54.8473 123.285 54.1143C122.811 49.7146 122.403 45.9145 115.015 45.4601C114.272 45.4176 113.497 45.3959 112.711 45.3959C108.544 45.3959 104.385 45.9925 100.715 46.519C97.201 47.0159 93.2171 47.578 89.3299 47.578C87.7393 47.578 86.2863 47.4871 84.8882 47.3004C76.7987 46.1921 46.784 45.4255 44.63 45.4255C42.9517 45.4255 24.7572 45.8997 12.7167 46.2148C6.56676 46.3758 1.71025 46.5022 1.48986 46.5022C0.521551 46.5022 0 47.2401 0 47.9336C0 48.2961 0.116676 48.6349 0.327091 48.8848C0.511579 49.1041 0.859612 49.3649 1.49584 49.3649H1.49684L2.0533 49.3511C9.05086 49.1753 27.2603 48.7683 45.1635 48.7683C64.5298 48.7683 77.7321 49.2306 84.3986 50.1413C85.9642 50.3626 87.5777 50.4703 89.3339 50.4703C93.3647 50.4703 97.4503 49.8796 101.051 49.36L101.301 49.3264C105.735 48.7169 110.354 48.0798 114.757 48.3495C119.621 48.6715 119.793 50.2312 120.254 54.3998C120.254 54.3998 120.265 54.5016 120.265 54.5025C120.343 55.1891 120.42 55.8796 120.534 56.6362C121.331 62.4317 123.85 67.5871 127.628 71.1502C132.63 75.8532 140.502 79.0142 148.686 79.6078C156.718 80.1897 164.808 78.0017 171.053 73.5417C171.463 73.2592 171.879 72.948 172.293 72.6151C181.034 78.1488 192.512 77.4801 196.317 77.0662C199.364 76.758 202.242 77.9473 204.934 79.1772C206.181 79.7155 207.511 80 208.779 80C210.88 80 212.799 79.2858 214.177 77.9947C215.124 77.1324 215.59 76.1633 215.998 75.216C216.486 74.0948 216.668 73.676 217.889 73.5516C219.415 73.4014 220.889 73.9585 222.336 74.4999C223.835 75.0481 225.536 75.6694 227.486 75.6694C228.074 75.6694 228.663 75.6111 229.228 75.4985C230.236 75.3128 231.285 74.9266 232.748 74.1986C236.183 72.3681 238.604 70.0053 239.946 67.1742C241.551 63.7682 240.634 61.1031 239.724 58.4627L239.146 56.736C238.933 56.0653 238.933 55.3442 238.933 54.5786C238.933 53.8624 238.933 53.1226 238.769 52.3096C238.641 51.547 238.187 50.8061 237.749 50.089L237.682 49.9803C236.956 48.8266 236.878 48.4877 236.866 48.4502C236.963 48.2378 237.706 47.6491 238.062 47.3666L238.389 47.1048C239.196 46.4578 240.028 45.788 240.516 44.9385C241.729 42.8454 242.606 40.2523 243.125 37.2346C243.13 37.2069 243.129 37.1546 243.129 37.1269C243.524 33.5125 242.483 30.1065 241.413 27.2507C241.408 27.2339 241.401 27.2171 241.391 27.2003ZM178.09 59.1472C177.21 62.6599 175.157 66.0214 172.147 68.894C170.589 67.6839 169.265 66.2615 168.206 64.6622C164.163 58.5081 164.705 49.9043 169.435 45.0788C169.931 44.5849 170.472 44.1028 171.082 43.9092C171.268 43.848 171.453 43.8174 171.631 43.8174C172.968 43.8174 174.34 45.0808 174.727 45.467C178.023 48.7861 179.344 54.1558 178.09 59.1472ZM231.496 18.8948C231.497 18.8948 231.498 18.8948 231.499 18.8948V18.9067L231.496 18.8948Z" fill="#AB9A8A"/>
<path d="M359.675 48.1599C359.484 47.9218 359.127 47.6363 358.51 47.6363H349.582C313.794 47.7667 291.144 47.8783 285.803 47.9485C280.911 48.0235 275.702 48.0966 270.543 48.0966C261.376 48.0966 253.911 47.8635 247.015 47.3617C246.756 47.3617 246.538 47.5622 246.518 47.8171L246.361 49.772C246.351 49.9053 246.395 50.0367 246.478 50.1296C246.563 50.2303 246.689 50.2925 246.82 50.3024C253.614 50.8102 261.154 51.0462 270.551 51.0462C275.737 51.0462 281.114 50.9633 285.857 50.8902C292.567 50.8013 324.217 50.6709 349.585 50.578H358.51C358.991 50.578 359.404 50.3923 359.674 50.0555C359.881 49.7976 360 49.4539 360 49.1082C360 48.7624 359.881 48.4167 359.675 48.1599Z" fill="#AB9A8A"/>
</svg>
