<svg width="1140" height="160" viewBox="0 0 1140 160" fill="none" xmlns="http://www.w3.org/2000/svg">
<path d="M457.086 73.4537C451.153 73.4537 445.299 70.2893 442.134 65.1471C438.653 59.4512 437.941 49.958 444.27 41.335C448.384 35.7182 454.554 31.3671 463.731 27.649C466.579 26.5414 469.427 25.513 472.275 24.4846C476.547 22.9815 480.977 21.3993 485.091 19.4215C489.758 17.1273 494.584 13.0927 493.793 8.58344C493.556 6.92213 492.29 5.49815 490.55 4.62794C488.809 3.75773 486.91 3.75773 485.407 4.54883L483.509 1.06799C486.04 -0.355995 489.363 -0.355995 492.29 1.06799C495.217 2.49197 497.195 5.02349 497.669 7.95056C498.619 13.6465 494.505 19.2633 486.752 22.9815C482.48 25.0383 477.892 26.6996 473.462 28.2027C470.693 29.152 467.845 30.1805 465.076 31.288C456.611 34.6897 450.915 38.6452 447.276 43.6292C442.846 49.7206 442.055 57.7108 445.378 63.0111C447.988 67.2831 453.289 69.8937 458.273 69.3399C463.652 68.7862 466.737 64.4351 469.902 59.8467C471.088 58.1854 472.275 56.445 473.62 54.8628C479.791 47.7429 488.334 42.4425 497.353 37.3004C511.435 29.152 525.674 25.6712 540.864 21.953L542.92 21.4784C548.063 20.5291 552.651 20.2917 556.765 20.9246C565.071 22.3486 571.163 25.0383 576.067 29.3103L576.226 29.4685C577.175 30.4969 578.124 31.4462 579.074 32.3956C580.972 34.2942 582.713 36.0346 584.295 38.0915C586.273 40.1483 588.567 41.4932 590.466 41.5723C597.744 41.335 604.626 45.0532 610.559 52.094L607.553 54.6255C602.411 48.3758 596.715 45.2905 590.624 45.5278H590.545H590.466C586.194 45.3696 582.713 42.1261 581.447 40.7812L581.368 40.623C579.865 38.7244 578.203 36.9839 576.384 35.1644C575.435 34.2151 574.485 33.2658 573.536 32.2373C569.264 28.5192 563.726 26.1459 556.29 24.8801C552.651 24.3263 548.616 24.5637 543.87 25.4339L541.971 25.9085C527.098 29.5476 513.096 33.0284 499.489 40.8603C490.787 45.8443 482.48 50.9073 476.784 57.6317C475.598 59.0556 474.49 60.6378 473.304 62.2991C469.902 67.204 466.025 72.7417 458.826 73.4537C458.194 73.4537 457.64 73.4537 457.086 73.4537Z" fill="#AB9A8A"/>
<path d="M628.041 160C625.589 160 623.057 159.446 620.684 158.418C614.83 155.728 609.055 153.434 602.805 154.067C594.815 154.937 571.715 156.203 554.39 144.811C553.441 145.602 552.412 146.393 551.384 147.105C538.805 156.124 522.984 160.396 506.925 159.209C490.628 158.022 474.965 151.693 465.076 142.358C457.64 135.318 452.656 125.112 451.073 113.562C450.836 111.98 450.678 110.556 450.52 109.132C449.57 100.509 449.175 96.6328 438.495 95.9209C429.318 95.3671 419.825 96.712 410.648 97.9777C399.731 99.5599 388.498 101.142 377.343 99.5599C339.845 94.4178 3.5 97.9554 2 97.9777C0.5 98 0 96.9836 0 96.0791C0 95.1746 0.657435 94.1804 2 94.1804C3.34256 94.1804 151.088 91.9654 221.101 92.0445C303.059 92.1236 361.759 93.5476 378.055 95.7626C388.656 97.1866 399.652 95.6835 410.253 94.1804C419.588 92.8356 429.239 91.4907 438.89 92.0445C452.972 92.9147 453.684 99.8764 454.633 108.737C454.792 110.161 454.95 111.585 455.108 113.088C456.532 123.768 461.12 133.103 467.924 139.51C477.021 148.133 492.131 154.146 507.32 155.333C522.43 156.44 537.302 152.405 549.169 143.941C549.802 143.466 550.514 142.991 551.147 142.438C547.745 139.748 544.739 136.504 542.128 132.628C532.714 118.388 534.059 98.2942 545.134 86.8232C546.4 85.4783 548.219 83.8961 550.514 83.1841C554.39 81.9975 558.899 83.5797 562.855 87.5352C570.686 95.3671 573.851 108.104 570.924 119.891C568.946 128.04 564.279 135.713 557.554 142.042C570.528 150.032 587.932 151.693 602.409 150.111C609.608 149.32 615.937 151.852 622.345 154.779C626.221 156.519 631.759 156.756 635.556 153.355C636.743 152.247 637.297 150.902 637.93 149.478C639.037 146.868 640.461 143.624 645.841 143.07C650.033 142.675 653.593 144.02 657.074 145.286C660.713 146.63 664.194 147.896 668.229 147.105C669.969 146.709 671.789 146.077 674.004 144.89C678.038 142.754 683.497 138.957 686.345 132.944C688.797 127.881 687.453 124.005 685.712 119.1C685.317 117.913 684.921 116.727 684.525 115.382C683.893 113.325 683.893 111.426 683.893 109.607C683.893 108.341 683.893 107.154 683.655 105.968C683.497 105.177 682.785 104.069 682.073 102.883C680.728 100.667 679.146 98.0568 679.937 95.6044C680.57 93.7849 682.39 92.3609 684.288 90.8578C685.633 89.8294 687.136 88.6427 687.69 87.6934C689.826 83.9752 691.408 79.3077 692.357 73.77C692.911 68.7861 691.883 63.3275 689.193 56.1285C688.718 54.9419 688.877 53.7552 689.035 52.6477C689.114 52.173 689.193 51.7775 689.193 51.3819V51.1446L689.272 50.9072C689.509 50.1161 689.747 49.325 689.984 48.5339C690.933 45.6069 691.804 42.7589 691.566 40.0692C691.408 39.2781 691.329 38.487 691.171 37.6959C690.617 33.9777 690.063 30.7342 688.56 27.4907C687.848 27.9653 686.978 28.8356 686.503 29.3102C686.345 29.4684 686.108 29.7058 685.949 29.7849L685.791 29.9431C684.763 30.7342 683.655 31.3671 682.627 32.0791C681.045 33.1075 679.383 34.1359 677.959 35.4017C676.535 36.7466 675.111 37.3794 673.608 37.3003H673.371C669.574 36.7466 666.172 35.8763 662.533 34.927L660.634 34.4524C654.701 33.4239 648.214 33.0284 640.698 33.3448C636.506 33.7404 632.946 34.6106 629.623 36.1928L629.465 36.2719C627.645 36.9048 624.639 36.9048 621.079 33.1075L620.921 32.8702C620.605 32.4746 620.367 32.0791 620.051 31.6835C619.101 30.2595 618.31 29.152 617.282 28.1236L614.434 25.1174C614.355 25.0383 614.197 24.88 614.117 24.7218C613.88 24.4054 613.326 23.8516 612.931 23.5352C612.773 23.6934 612.535 24.1681 612.535 24.5636V24.7218C612.298 27.6489 611.744 30.576 611.19 33.3448C610.241 38.2496 609.45 42.9171 609.846 47.5846C609.925 48.0593 610.004 48.5339 610.004 49.0086C610.241 51.3028 610.558 52.8059 611.665 53.5179L609.608 56.9196C606.76 55.1792 606.365 51.8566 606.048 49.4833C605.969 49.0086 605.969 48.6131 605.89 48.1384V47.9802C605.415 42.7589 606.365 37.5377 607.314 32.5537C607.789 29.864 608.343 27.016 608.58 24.3263C608.659 22.9814 609.213 21.6365 610.162 20.6872C611.032 19.6588 612.061 19.3423 612.773 19.3423C614.75 19.3423 616.174 20.9245 617.124 21.953C617.203 22.0321 617.361 22.1903 617.44 22.2694L620.288 25.2756C621.475 26.5414 622.424 27.8862 623.373 29.3102C623.611 29.6267 623.848 30.0222 624.085 30.3386C625.193 31.5253 626.775 32.7911 628.041 32.3955C631.759 30.6551 635.794 29.6267 640.382 29.2311H640.461C648.293 28.9147 655.096 29.3102 661.346 30.4178H661.504L663.482 30.9715C666.963 31.8417 670.207 32.7119 673.687 33.2657C674.162 33.2657 674.795 32.7911 675.19 32.3955C676.852 30.8133 678.671 29.7058 680.412 28.5982C681.44 27.9653 682.389 27.4116 683.26 26.6996C683.418 26.5414 683.497 26.4623 683.655 26.304C685.317 24.6427 687.453 22.665 689.589 23.1396C690.142 23.2978 691.171 23.6934 691.804 25.1174C693.781 29.0729 694.414 32.8702 695.047 36.9839C695.205 37.775 695.284 38.5661 695.443 39.4363V39.5945C695.759 43.1545 694.731 46.4771 693.702 49.6415C693.465 50.3535 693.307 50.9864 693.069 51.6983C693.069 52.2521 692.99 52.7268 692.911 53.1223C692.832 53.597 692.753 54.2299 692.832 54.4672L692.911 54.5463C694.889 59.8467 697.104 66.8084 696.313 74.0865V74.2447C695.284 80.2571 693.544 85.3992 691.171 89.5129C690.221 91.1742 688.481 92.5191 686.82 93.864C685.633 94.8133 683.972 96.0791 683.734 96.7911C683.497 97.5031 684.684 99.4808 685.475 100.747C686.345 102.171 687.294 103.674 687.532 105.098C687.848 106.68 687.848 108.104 687.848 109.528C687.848 111.11 687.848 112.692 688.323 114.195C688.718 115.382 689.114 116.569 689.509 117.755C691.329 123.056 693.069 128.04 689.984 134.606C686.661 141.646 680.491 145.918 675.902 148.371C673.371 149.637 671.235 150.507 669.099 150.902C663.957 151.931 659.606 150.349 655.729 148.925C652.565 147.738 649.559 146.63 646.315 146.947C643.23 147.263 642.676 148.608 641.648 150.981C640.936 152.643 640.066 154.541 638.246 156.203C635.556 158.734 631.917 160 628.041 160ZM553.124 86.7441C552.65 86.7441 552.175 86.8232 551.7 86.9814C550.197 87.4561 548.932 88.6427 547.982 89.592C538.094 99.7181 536.986 117.676 545.372 130.492C547.824 134.21 550.83 137.295 554.232 139.827C560.719 133.815 565.228 126.616 567.126 119.021C569.737 108.578 566.968 97.3448 560.086 90.3831C559.136 89.4338 556.209 86.7441 553.124 86.7441Z" fill="#AB9A8A"/>
<path d="M646.79 113.642C644.812 113.642 642.914 113.325 641.015 112.534C637.851 111.268 635.477 108.974 633.262 106.759C632.313 105.889 631.443 105.019 630.573 104.227C628.437 102.408 625.984 100.905 623.374 99.4017C620.684 97.7404 617.836 96.0791 615.304 93.864C606.128 85.8739 602.805 71.9506 607.473 60.7169C607.631 60.2423 607.868 59.7676 608.105 59.3721C608.58 58.5019 608.976 57.6317 608.976 56.9197C608.976 56.2868 608.105 55.021 607.552 54.1508C607.235 53.6762 606.919 53.2015 606.681 52.8059L610.083 50.8282C610.241 51.1446 610.558 51.5402 610.795 51.9357C611.744 53.3597 612.773 54.9419 612.852 56.6823C612.931 58.4227 612.219 59.9258 611.586 61.1125C611.428 61.508 611.191 61.8245 611.032 62.22C606.998 71.9506 609.846 83.9753 617.836 90.937C620.051 92.9147 622.662 94.4178 625.351 96.0791C627.962 97.6613 630.652 99.2435 633.025 101.3C634.053 102.171 635.003 103.041 635.952 103.99C638.088 106.047 640.066 107.946 642.518 108.974C648.531 111.426 655.492 107.867 661.505 104.386L663.482 107.787C658.103 110.794 652.328 113.642 646.79 113.642Z" fill="#AB9A8A"/>
<path d="M752.614 101.379C736.634 101.379 720.654 101.063 704.832 99.8764L705.148 95.9209C731.096 97.8195 757.677 97.5031 783.388 97.1075C795.254 96.9493 861.944 96.712 926.419 96.4747C990.893 96.2373 1138 95.8418 1138 95.8418C1139.5 95.8418 1140 97 1140 97.8195C1140 98.6391 1139.5 99.7973 1138 99.7973C1138 99.7973 990.893 100.193 926.419 100.43C861.944 100.668 795.333 100.905 783.467 101.063C773.262 101.221 762.898 101.379 752.614 101.379Z" fill="#AB9A8A"/>
</svg>
