<svg width="124" height="20" viewBox="0 0 124 20" fill="none" xmlns="http://www.w3.org/2000/svg">
<path d="M4.8366 9.93464C4.8366 10.5882 4.96732 11.2418 5.09804 11.8954C5.22876 12.549 5.4902 13.2026 5.75163 13.8562C6.01307 14.3791 6.53595 14.902 6.9281 15.2941C7.45098 15.6863 7.97386 15.9477 8.75817 15.9477C9.6732 15.9477 10.4575 15.6863 10.9804 15.2941C11.634 14.902 12.1569 14.2484 12.549 13.5948C12.6797 13.2026 12.9412 12.8105 13.2026 12.549C13.4641 12.2876 13.9869 12.0261 14.7712 12.0261C15.5556 12.0261 16.0784 12.1569 16.3399 12.549C16.6013 12.8105 16.8627 13.2026 16.8627 13.5948C16.9935 13.9869 16.9935 14.5098 16.8627 15.0327C16.2092 16.732 15.1634 18.0392 13.8562 18.8235C12.4183 19.6078 10.8497 20 8.88889 20C7.45098 20 6.14379 19.7386 4.96732 19.2157C3.92157 18.6928 3.00654 17.9085 2.22222 17.1242C1.56863 16.2092 1.04575 15.1634 0.653595 13.9869C0.261438 12.8105 0 11.3725 0 9.93464C0 8.62745 0.130719 7.32026 0.522876 6.14379C0.915033 4.96732 1.43791 3.92157 2.22222 3.00654C2.87582 2.0915 3.92157 1.30719 4.96732 0.784314C6.01307 0.261438 7.32026 0 8.75817 0C10.5882 0 12.2876 0.392157 13.7255 1.17647C15.1634 1.96078 16.2092 3.26797 16.8627 5.09804C16.9935 5.62092 17.1242 6.01307 16.9935 6.40523C16.8627 6.79739 16.732 7.18954 16.3399 7.45098C15.9477 7.71242 15.4248 7.84314 14.6405 7.84314C14.2484 7.84314 13.8562 7.84314 13.5948 7.71242C13.3333 7.5817 13.0719 7.45098 12.9412 7.18954C12.8105 6.9281 12.549 6.66667 12.4183 6.40523C12.1569 6.14379 12.0261 5.88235 11.8954 5.62092C11.634 5.09804 11.1111 4.57516 10.5882 4.31373C10.0654 4.05229 9.41177 3.92157 8.75817 3.92157C8.10458 3.92157 7.45098 4.05229 6.9281 4.44444C6.40523 4.8366 6.14379 5.35948 5.75163 5.88235C5.4902 6.40523 5.22876 7.05882 4.96732 7.84314C4.8366 8.62745 4.8366 9.28105 4.8366 9.93464Z" fill="#669C49"/>
<path d="M32.2876 11.1111C32.4183 11.5033 32.4183 11.8954 32.4183 12.2876C32.4183 12.6797 32.4183 12.9412 32.549 13.3333C32.6798 13.7255 32.6798 14.1176 32.8105 14.3791C32.9412 14.6405 33.0719 15.0327 33.3333 15.4248C33.5948 15.6863 33.8562 16.0784 34.1177 16.4706C34.2484 16.732 34.3791 17.1242 34.3791 17.5163C34.3791 18.0392 34.1177 18.4314 33.7255 18.8235C33.3333 19.2157 32.8105 19.3464 32.2876 19.3464C31.8954 19.3464 31.5033 19.2157 30.9804 19.085C30.5882 18.8235 30.1961 18.6928 29.8039 18.4314C29.2811 18.8235 28.6275 19.085 27.9739 19.3464C27.3203 19.4771 26.536 19.6078 25.7516 19.6078C24.9673 19.6078 24.183 19.4771 23.3987 19.2157C22.6144 18.9543 21.9608 18.5621 21.3072 18.0392C20.6536 17.5163 20.1307 16.8627 19.7386 16.0784C19.3464 15.2941 19.2157 14.2484 19.2157 13.2026C19.2157 12.0261 19.3464 11.1111 19.7386 10.3268C19.8693 9.15033 20.3922 8.36602 21.0458 7.84314C21.5686 7.32026 22.353 7.05883 23.1373 6.79739C23.9216 6.53595 24.8366 6.53595 25.6209 6.53595C26.4052 6.53595 27.0588 6.66667 27.8431 6.79739C28.6275 6.92811 29.2811 7.18954 29.8039 7.5817C30.3268 7.84314 30.8497 8.36602 31.3726 9.01961C31.7647 9.6732 32.0262 10.3268 32.2876 11.1111ZM25.7516 10.0654C25.0981 10.0654 24.4445 10.3268 23.9216 10.719C23.3987 11.1111 23.1373 11.8954 23.1373 12.8105C23.1373 13.7255 23.3987 14.5098 23.9216 14.902C24.4445 15.2941 25.0981 15.5556 25.7516 15.5556C26.0131 15.5556 26.4052 15.5556 26.6667 15.4248C26.9281 15.2941 27.1896 15.1634 27.451 14.902C27.7124 14.7712 27.8431 14.5098 27.9739 14.1176C28.1046 13.7255 28.1046 13.3333 28.1046 12.8105C28.1046 12.2876 28.1046 11.8954 27.9739 11.5033C27.8431 11.1111 27.7124 10.9804 27.451 10.719C27.1896 10.4575 26.9281 10.3268 26.6667 10.1961C26.4052 10.0654 26.0131 10.0654 25.7516 10.0654Z" fill="#669C49"/>
<path d="M38.3007 6.53596C38.4314 5.88237 38.4314 5.22877 38.4314 4.70589C38.4314 4.18302 38.5621 3.79086 38.5621 3.39871C38.6928 2.48367 39.085 1.83008 39.6079 1.56864C40.2615 1.3072 40.915 1.17648 41.5686 1.3072C42.353 1.43792 42.8758 1.69936 43.1373 2.22223C43.3987 2.74511 43.3987 3.39871 43.3987 4.0523L43.1373 6.53596C43.5294 6.53596 43.9216 6.53596 44.183 6.53596C44.4445 6.53596 44.8366 6.53596 45.0981 6.66668C45.3595 6.7974 45.4902 7.05884 45.6209 7.18956C45.7517 7.45099 45.7517 7.71243 45.7517 7.97387C45.7517 8.62746 45.4902 9.01962 45.0981 9.15034C44.7059 9.28106 43.9216 9.41178 42.8758 9.41178C42.7451 10.1961 42.7451 11.1111 42.8758 12.0262C42.8758 12.9412 42.8758 13.7255 42.8758 14.3791C43.0066 14.7713 43.0066 15.0327 43.1373 15.2941C43.268 15.4248 43.3987 15.5556 43.5294 15.6863C43.6601 15.6863 43.9216 15.6863 44.0523 15.6863C44.3137 15.6863 44.4445 15.6863 44.7059 15.6863C45.3595 15.6863 45.7517 15.817 46.0131 15.9477C46.2745 16.0784 46.4052 16.3399 46.536 16.732C46.6667 17.2549 46.536 17.7778 46.2745 18.0392C46.0131 18.3007 45.7516 18.6928 45.2288 18.9543C44.7059 19.2157 44.183 19.3464 43.6601 19.3464C43.1373 19.3464 42.4837 19.3464 41.9608 19.3464C40.915 19.2157 40 18.6928 39.3464 17.9085C38.6928 17.1242 38.3007 16.0784 38.3007 14.6405C38.1699 14.1177 38.17 13.3333 38.17 12.549C38.17 11.7647 38.17 10.719 38.17 9.5425C37.9085 9.5425 37.6471 9.5425 37.3856 9.5425C37.1242 9.5425 36.8628 9.41178 36.6013 9.41178C36.6013 9.15034 36.4706 9.01962 36.3399 8.75818C36.2092 8.49674 36.2092 8.23531 36.2092 7.97387C36.2092 7.32027 36.4706 6.92812 36.8628 6.7974C37.1242 6.53596 37.6471 6.53596 38.3007 6.53596Z" fill="#669C49"/>
<path d="M60.5429 1.034C60.9351 1.034 61.5887 1.034 62.6344 1.034C63.6802 1.034 64.7259 1.034 65.7717 1.034C66.8175 1.034 67.8632 1.034 69.0397 1.034C70.0854 1.034 71.0005 1.034 71.5233 1.034C72.4384 0.903285 73.092 1.16472 73.3534 1.55688C73.6148 1.94904 73.8763 2.47191 73.8763 2.86407C73.8763 3.25623 73.7456 3.7791 73.4841 4.04054C73.2227 4.30198 72.6998 4.56342 71.9155 4.56342L68.6475 4.69413C68.6475 5.8706 68.6475 6.91636 68.6475 7.96211C68.6475 9.00786 68.6475 10.0536 68.6475 10.9686C68.6475 11.8837 68.6475 12.9294 68.6475 13.9752C68.6475 15.0209 68.5168 16.0667 68.5168 17.3739C68.3861 18.0275 68.1246 18.5503 67.6018 18.8118C67.0789 19.0732 66.556 19.3347 66.0331 19.3347C65.3795 19.3347 64.8567 19.2039 64.3338 18.8118C63.8109 18.4196 63.5495 18.0275 63.5495 17.3739C63.6802 16.3281 63.6802 15.4131 63.6802 14.3673C63.6802 13.3216 63.6802 12.1451 63.8109 11.0994C63.8109 10.0536 63.8109 9.00786 63.8109 7.83139C63.8109 6.78564 63.8109 5.73989 63.8109 4.69413C63.5495 4.69413 63.288 4.69413 62.8959 4.69413C62.6344 4.69413 62.2423 4.69413 61.8501 4.69413C61.5887 4.69413 61.1965 4.69413 60.9351 4.69413C60.6737 4.69413 60.4122 4.69413 60.2815 4.69413C59.4972 4.69413 58.9743 4.56342 58.7129 4.30198C58.4514 4.04054 58.19 3.64838 58.19 2.99479C58.19 2.47191 58.3207 2.21047 58.4514 1.94904C58.5822 1.55688 58.7129 1.42616 58.8436 1.16472C59.105 1.034 59.3665 1.034 59.6279 1.034C60.0201 1.034 60.2815 1.034 60.5429 1.034Z" fill="#669C49"/>
<path d="M80.7259 6.1438C81.5103 6.1438 82.2946 6.27452 83.2096 6.40524C83.9939 6.66668 84.7782 6.92811 85.4318 7.45099C86.0854 7.97386 86.6083 8.75818 87.0005 9.54249C87.3926 10.3268 87.5233 11.5033 87.5233 12.6797C87.5233 13.9869 87.3926 15.0327 87.0005 15.9477C86.6083 16.8628 86.0854 17.5163 85.4318 17.9085C84.7782 18.4314 83.9939 18.9543 83.2096 19.085C82.4253 19.3464 81.5103 19.4771 80.7259 19.4771C79.9416 19.4771 79.1573 19.3464 78.373 19.085C77.5887 18.8235 76.9351 18.4314 76.2815 17.9085C75.6279 17.3856 75.105 16.732 74.7129 15.9477C74.3207 15.1634 74.19 13.9869 74.19 12.6797C74.19 11.5033 74.3207 10.4575 74.7129 9.54249C75.105 8.62746 75.6279 7.97386 76.2815 7.45099C76.8044 6.92811 77.5887 6.66668 78.373 6.40524C79.1573 6.27452 79.9416 6.1438 80.7259 6.1438ZM80.7259 9.28105C80.0724 9.28105 79.4188 9.54249 78.8959 10.1961C78.373 10.719 78.1116 11.634 78.1116 12.8105C78.1116 13.9869 78.373 14.7713 79.0266 15.4248C79.5495 16.0784 80.2031 16.3399 80.7259 16.3399C81.3795 16.3399 82.0331 16.0784 82.556 15.4248C83.0789 14.7713 83.3403 13.9869 83.3403 12.8105C83.3403 11.7647 83.0789 10.8497 82.556 10.3268C82.0331 9.67321 81.5103 9.28105 80.7259 9.28105Z" fill="#669C49"/>
<path d="M96 16.5C96.7843 16.5 97.641 15.9477 97.9024 15.4248C98.1639 14.9019 98.2946 14 98.2946 13.4771C97.5766 13.8361 97.3014 14 96.4645 14C94.7652 14 93.458 13.7386 92.5429 13.085C91.6279 12.4314 91.105 11.6471 90.8436 10.732C90.4514 9.68627 90.19 8.5098 90.19 7.20261C90.19 5.89542 90.19 5.09802 90.19 3.66011C90.19 3.26795 90.3207 2.87579 90.4514 2.61436C90.5822 2.35292 90.7129 2.09148 91.105 1.96076C91.3665 1.69932 91.8893 1.69932 92.4122 1.69932C92.9351 1.69932 93.458 1.83004 93.7194 1.96076C94.1116 2.09148 94.2423 2.35292 94.373 2.61436C94.5037 3.00651 94.6345 3.26795 94.5037 3.66011V7.98693C94.5037 9.09791 95.0089 10.732 96.3338 10.732C97.7717 10.732 98.4253 9.81699 98.556 7.85621C98.556 7.59477 98.556 7.20261 98.556 6.81046C98.556 6.4183 98.556 6.4052 98.556 5.88233V3.52939C98.556 2.87579 98.6867 2.35292 99.0789 2.09148C99.4711 1.83004 99.9939 1.5686 100.778 1.5686C101.563 1.5686 102.085 1.69932 102.347 2.09148C102.608 2.48364 102.87 3.00651 103 3.66011C103 4.3137 103 5.09802 103 6.14377C103 7.18952 103 8.10455 103 9.1503C102.87 10.1961 102.87 10.9804 102.87 11.8954C102.87 12.6797 102.87 13.3333 102.87 13.7255C102.739 15.9477 102.085 17.5163 100.909 18.4314C99.7325 19.3464 98.1639 19.7385 96.0724 19.7385C94.6344 19.7385 93.5887 19.6078 92.8044 19.2157C92.0201 18.8235 91.2358 18.3006 90.5822 17.647C90.3207 17.5163 90.19 17.2549 90.19 16.9934C90.19 16.732 90.19 16.4706 90.19 16.0784C90.19 15.817 90.3207 15.5555 90.4514 15.2941C90.5822 15.0327 90.8436 14.7712 91.105 14.6405C91.3665 14.5098 91.7586 14.3791 92.0201 14.3791C92.2815 14.3791 92.5429 14.3791 92.8044 14.5098C93.0658 14.6405 93.5 15 93.5 15C94.1622 15.8034 95 16.5 96 16.5Z" fill="#669C49"/>
<path d="M119.586 10.5C119.586 10.3 119.36 10 119.02 9.6C118.681 9.2 118.228 8.8 117.889 8.3C117.436 7.8 116.87 7.3 116.417 6.9C115.852 6.5 115.399 6.1 114.946 5.8C114.494 5.4 114.267 5 114.041 4.6C113.928 4.2 114.041 3.8 114.494 3.4C114.72 3.2 114.946 3.1 115.286 3C115.512 3 115.852 3 116.078 3C116.304 3.1 116.644 3.2 116.87 3.3C117.096 3.4 117.436 3.6 117.776 3.8C118.341 4.1 118.907 4.5 119.473 5C120.039 5.5 120.605 6 121.171 6.6C121.85 7.2 122.302 7.8 122.868 8.4C123.321 9 123.66 9.5 123.887 9.9C123.887 10 124 10 124 10.2C124 10.3 124 10.4 124 10.5C124 10.6 124 10.7 124 10.9C124 11 123.887 11.1 123.887 11.3C123.66 11.6 123.321 12 122.755 12.6C122.302 13.2 121.737 13.8 121.171 14.4C120.605 15 120.039 15.5 119.473 16C118.907 16.5 118.341 16.9 117.776 17.2C117.549 17.4 117.21 17.5 116.87 17.7C116.644 17.8 116.304 17.9 116.078 18C115.852 18 115.512 18 115.286 18C115.059 18 114.72 17.8 114.494 17.6C114.041 17.1 113.928 16.7 114.041 16.4C114.154 16.1 114.494 15.7 114.946 15.3C115.173 15 115.625 14.6 116.191 14.2C116.757 13.8 117.21 13.2 117.776 12.7C118.341 12.3 118.794 11.8 119.134 11.4C119.473 11 119.586 10.6 119.586 10.5Z" fill="#669C49"/>
</svg>
