<svg width="124" height="20" viewBox="0 0 124 20" fill="none" xmlns="http://www.w3.org/2000/svg">
<path d="M4.8366 9.93464C4.8366 10.5882 4.96732 11.2418 5.09804 11.8954C5.22876 12.549 5.4902 13.2026 5.75163 13.8562C6.01307 14.3791 6.53595 14.902 6.9281 15.2941C7.45098 15.6863 7.97386 15.9477 8.75817 15.9477C9.6732 15.9477 10.4575 15.6863 10.9804 15.2941C11.634 14.902 12.1569 14.2484 12.549 13.5948C12.6797 13.2026 12.9412 12.8105 13.2026 12.549C13.4641 12.2876 13.9869 12.0261 14.7712 12.0261C15.5556 12.0261 16.0784 12.1569 16.3399 12.549C16.6013 12.8105 16.8627 13.2026 16.8627 13.5948C16.9935 13.9869 16.9935 14.5098 16.8627 15.0327C16.2092 16.732 15.1634 18.0392 13.8562 18.8235C12.4183 19.6078 10.8497 20 8.88889 20C7.45098 20 6.14379 19.7386 4.96732 19.2157C3.92157 18.6928 3.00654 17.9085 2.22222 17.1242C1.56863 16.2092 1.04575 15.1634 0.653595 13.9869C0.261438 12.8105 0 11.3725 0 9.93464C0 8.62745 0.130719 7.32026 0.522876 6.14379C0.915033 4.96732 1.43791 3.92157 2.22222 3.00654C2.87582 2.0915 3.92157 1.30719 4.96732 0.784314C6.01307 0.261438 7.32026 0 8.75817 0C10.5882 0 12.2876 0.392157 13.7255 1.17647C15.1634 1.96078 16.2092 3.26797 16.8627 5.09804C16.9935 5.62092 17.1242 6.01307 16.9935 6.40523C16.8627 6.79739 16.732 7.18954 16.3399 7.45098C15.9477 7.71242 15.4248 7.84314 14.6405 7.84314C14.2484 7.84314 13.8562 7.84314 13.5948 7.71242C13.3333 7.5817 13.0719 7.45098 12.9412 7.18954C12.8105 6.9281 12.549 6.66667 12.4183 6.40523C12.1569 6.14379 12.0261 5.88235 11.8954 5.62092C11.634 5.09804 11.1111 4.57516 10.5882 4.31373C10.0654 4.05229 9.41177 3.92157 8.75817 3.92157C8.10458 3.92157 7.45098 4.05229 6.9281 4.44444C6.40523 4.8366 6.14379 5.35948 5.75163 5.88235C5.4902 6.40523 5.22876 7.05882 4.96732 7.84314C4.8366 8.62745 4.8366 9.28105 4.8366 9.93464Z" fill="#669C49"/>
<path d="M32.2876 11.1111C32.4183 11.5033 32.4183 11.8954 32.4183 12.2876C32.4183 12.6797 32.4183 12.9412 32.549 13.3333C32.6797 13.7255 32.6797 14.1176 32.8105 14.3791C32.9412 14.6405 33.0719 15.0327 33.3333 15.4248C33.5948 15.6863 33.8562 16.0784 34.1176 16.4706C34.2484 16.732 34.3791 17.1242 34.3791 17.5163C34.3791 18.0392 34.1176 18.4314 33.7255 18.8235C33.3333 19.2157 32.8105 19.3464 32.2876 19.3464C31.8954 19.3464 31.5033 19.2157 30.9804 19.085C30.5882 18.8235 30.1961 18.6928 29.8039 18.4314C29.281 18.8235 28.6274 19.085 27.9739 19.3464C27.3203 19.4771 26.5359 19.6078 25.7516 19.6078C24.9673 19.6078 24.183 19.4771 23.3987 19.2157C22.6144 18.9543 21.9608 18.5621 21.3072 18.0392C20.6536 17.5163 20.1307 16.8627 19.7386 16.0784C19.3464 15.2941 19.2157 14.2484 19.2157 13.2026C19.2157 12.0261 19.3464 11.1111 19.7386 10.3268C19.8693 9.15033 20.3922 8.36602 21.0457 7.84314C21.5686 7.32026 22.3529 7.05883 23.1373 6.79739C23.9216 6.53595 24.8366 6.53595 25.6209 6.53595C26.4052 6.53595 27.0588 6.66667 27.8431 6.79739C28.6274 6.92811 29.281 7.18954 29.8039 7.5817C30.3268 7.84314 30.8497 8.36602 31.3725 9.01961C31.7647 9.6732 32.0261 10.3268 32.2876 11.1111ZM25.7516 10.0654C25.098 10.0654 24.4444 10.3268 23.9216 10.719C23.3987 11.1111 23.1373 11.8954 23.1373 12.8105C23.1373 13.7255 23.3987 14.5098 23.9216 14.902C24.4444 15.2941 25.098 15.5556 25.7516 15.5556C26.0131 15.5556 26.4052 15.5556 26.6667 15.4248C26.9281 15.2941 27.1895 15.1634 27.451 14.902C27.7124 14.7712 27.8431 14.5098 27.9739 14.1176C28.1046 13.7255 28.1046 13.3333 28.1046 12.8105C28.1046 12.2876 28.1046 11.8954 27.9739 11.5033C27.8431 11.1111 27.7124 10.9804 27.451 10.719C27.1895 10.4575 26.9281 10.3268 26.6667 10.1961C26.4052 10.0654 26.0131 10.0654 25.7516 10.0654Z" fill="#669C49"/>
<path d="M38.3007 6.53596C38.4314 5.88237 38.4314 5.22877 38.4314 4.70589C38.4314 4.18302 38.5621 3.79086 38.5621 3.39871C38.6928 2.48367 39.085 1.83008 39.6078 1.56864C40.2614 1.3072 40.915 1.17648 41.5686 1.3072C42.3529 1.43792 42.8758 1.69936 43.1373 2.22223C43.3987 2.74511 43.3987 3.39871 43.3987 4.0523L43.1373 6.53596C43.5294 6.53596 43.9216 6.53596 44.183 6.53596C44.4444 6.53596 44.8366 6.53596 45.098 6.66668C45.3595 6.7974 45.4902 7.05884 45.6209 7.18956C45.7516 7.45099 45.7516 7.71243 45.7516 7.97387C45.7516 8.62746 45.4902 9.01962 45.098 9.15034C44.7059 9.28106 43.9216 9.41178 42.8758 9.41178C42.7451 10.1961 42.7451 11.1111 42.8758 12.0262C42.8758 12.9412 42.8758 13.7255 42.8758 14.3791C43.0065 14.7713 43.0065 15.0327 43.1373 15.2941C43.268 15.4248 43.3987 15.5556 43.5294 15.6863C43.6601 15.6863 43.9216 15.6863 44.0523 15.6863C44.3137 15.6863 44.4444 15.6863 44.7059 15.6863C45.3595 15.6863 45.7516 15.817 46.0131 15.9477C46.2745 16.0784 46.4052 16.3399 46.5359 16.732C46.6667 17.2549 46.536 17.7778 46.2745 18.0392C46.0131 18.3007 45.7516 18.6928 45.2288 18.9543C44.7059 19.2157 44.183 19.3464 43.6601 19.3464C43.1373 19.3464 42.4837 19.3464 41.9608 19.3464C40.915 19.2157 40 18.6928 39.3464 17.9085C38.6928 17.1242 38.3007 16.0784 38.3007 14.6405C38.1699 14.1177 38.1699 13.3333 38.1699 12.549C38.1699 11.7647 38.1699 10.719 38.1699 9.5425C37.9085 9.5425 37.6471 9.5425 37.3856 9.5425C37.1242 9.5425 36.8627 9.41178 36.6013 9.41178C36.6013 9.15034 36.4706 9.01962 36.3399 8.75818C36.2092 8.49674 36.2092 8.23531 36.2092 7.97387C36.2092 7.32027 36.4706 6.92812 36.8627 6.7974C37.1242 6.53596 37.6471 6.53596 38.3007 6.53596Z" fill="#669C49"/>
<path d="M64.7059 15.817C65.7516 15.817 66.5359 15.4248 66.7974 14.5098C67.0588 13.5948 67.3203 12.4183 67.3203 10.7189V3.13724C67.3203 2.74509 67.3203 2.35293 67.451 1.96077C67.5817 1.69933 67.8431 1.4379 68.2353 1.17646C68.4967 0.915021 69.0196 0.784302 69.6732 0.784302C70.3268 0.784302 70.8497 0.915021 71.2418 1.17646C71.634 1.4379 71.8954 1.69933 72.0261 1.96077C72.1569 2.35293 72.2876 2.74509 72.2876 3.13724C72.4183 3.66012 72.4183 4.18299 72.4183 4.96731C72.4183 5.75162 72.4183 6.40522 72.4183 7.18953C72.4183 7.97384 72.4183 8.75816 72.4183 9.41175C72.4183 10.0653 72.4183 10.5882 72.4183 10.9804C72.2876 12.6797 72.1569 13.9869 71.7647 15.0327C71.3725 16.0784 70.9804 16.9935 70.3268 17.647C69.6732 18.3006 68.8889 18.8235 67.9739 19.085C67.0588 19.3464 66.0131 19.4771 64.7059 19.4771C63.6601 19.4771 62.6144 19.3464 61.8301 19.085C60.915 18.8235 60.1307 18.3006 59.4771 17.647C58.8235 16.9935 58.3006 16.0784 57.9085 15.0327C57.5163 13.9869 57.3856 12.549 57.3856 10.9804C57.2549 10.5882 57.2549 10.0653 57.2549 9.28103C57.2549 8.62744 57.2549 7.84313 57.2549 7.05881C57.2549 6.2745 57.2549 5.6209 57.2549 4.83659C57.2549 4.05228 57.2549 3.5294 57.3856 3.13724C57.3856 3.00652 57.3856 2.87581 57.3856 2.61437C57.3856 2.35293 57.5163 2.09149 57.7778 1.83005C57.9085 1.56862 58.1699 1.17646 58.5621 1.04574C58.8235 0.784302 59.3464 0.784302 59.8693 0.784302C60.5229 0.784302 61.0458 0.915021 61.3072 1.17646C61.5686 1.4379 61.8301 1.69933 62.0915 1.96077C62.2222 2.35293 62.3529 2.74509 62.3529 3.13724V10.7189C62.3529 12.4183 62.4837 13.5948 62.8758 14.5098C63.0065 15.4248 63.6601 15.817 64.7059 15.817Z" fill="#669C49"/>
<path d="M77.9085 15.1634C78.1699 15.4248 78.4314 15.6863 78.9543 15.817C79.3464 15.9477 79.8693 16.0784 80.2614 16.0784C80.6536 16.0784 81.0458 16.0784 81.3072 15.9477C81.5686 15.817 81.6993 15.6863 81.6993 15.4248C81.8301 15.1634 81.6993 14.902 81.3072 14.6405C80.7843 14.5098 80.3922 14.3791 79.7386 14.3791C79.085 14.2484 78.4314 13.9869 77.9085 13.8562C77.3856 13.5948 76.8627 13.3333 76.4706 13.0719C76.0784 12.8105 75.6863 12.4183 75.4248 12.0261C75.1634 11.634 75.0327 10.9804 75.0327 10.3268C75.0327 9.28105 75.4248 8.36602 76.3399 7.5817C77.2549 6.79739 78.5621 6.53595 80.1307 6.53595C80.915 6.53595 81.5686 6.53595 82.0915 6.66667C82.6144 6.79739 83.1373 6.92811 83.5294 7.18954C83.9216 7.32026 84.3137 7.5817 84.5752 7.84314C84.8366 8.10458 85.098 8.36601 85.098 8.62745C85.3595 9.15033 85.3595 9.54249 85.2288 9.80392C85.098 10.0654 84.9673 10.4575 84.7059 10.719C84.4444 10.9804 83.9216 11.1111 83.3987 11.1111C82.8758 11.1111 82.3529 10.8497 81.9608 10.4575C81.8301 10.1961 81.5686 10.0654 81.3072 9.93464C81.0458 9.80392 80.7843 9.80392 80.5229 9.80392C80.2614 9.80392 80 9.80392 79.7386 9.93464C79.7386 9.93464 79.6078 10.1961 79.6078 10.4575C79.6078 10.719 79.7386 10.8497 80 11.1111C80.2614 11.2418 80.5229 11.3726 81.0458 11.5033C81.4379 11.634 81.8301 11.7647 82.2222 11.8954C82.6144 12.0261 82.8758 12.0261 83.1373 12.1569C84.9673 12.8105 86.0131 13.9869 86.0131 15.817C86.0131 16.3399 85.8824 16.732 85.7516 17.1242C85.4902 17.5163 85.2288 17.9085 84.8366 18.3007C84.4444 18.5621 83.9216 18.8235 83.268 19.085C82.6144 19.2157 81.8301 19.3464 80.7843 19.4771C79.7386 19.4771 78.9542 19.4771 78.4314 19.3464C77.9085 19.2157 77.2549 19.085 76.732 18.8235C76.3399 18.6928 75.9477 18.4314 75.6863 18.0392C75.4248 17.7778 75.1634 17.3856 75.0327 16.9935C74.7712 16.6013 74.5098 16.0784 74.5098 15.5556C74.5098 15.0327 74.6405 14.6405 75.0327 14.3791C75.2941 14.1176 75.6863 13.9869 76.0784 13.9869C76.3399 13.9869 76.732 13.9869 76.9935 13.9869C77.2549 14.1176 77.5163 14.2484 77.6471 14.5098C77.6471 14.6405 77.7778 14.902 77.9085 15.1634Z" fill="#669C49"/>
<path d="M93.6309 14.3791C92.5852 14.3791 92.193 14.5098 92.193 14.6405C92.193 15.0327 92.4544 15.4248 92.8466 15.6863C93.2388 15.9477 93.8924 16.2092 94.6767 16.2092C95.461 16.2092 96.1146 16.0784 96.5067 15.9477C96.8989 15.6863 97.291 15.5556 97.5525 15.2941C98.2061 14.902 98.729 14.7712 99.2518 14.7712C99.5133 14.7712 99.9054 14.902 100.167 15.0327C100.428 15.1634 100.559 15.4248 100.69 15.6863C100.82 15.9477 100.82 16.2092 100.69 16.4706C100.69 16.732 100.559 16.9935 100.428 17.2549C99.644 18.0392 98.8597 18.6928 97.9446 18.9542C97.0296 19.2157 95.8531 19.4771 94.5459 19.4771C93.7616 19.4771 92.9773 19.3464 92.193 19.085C91.4087 18.8235 90.7551 18.4314 90.1015 18.0392C89.4479 17.6471 88.925 16.9935 88.5329 16.2092C88.1407 15.4248 88.01 14.5098 88.01 13.5948C88.01 12.2876 88.1407 11.2418 88.5329 10.3268C88.925 9.41177 89.4479 8.75817 90.1015 8.2353C90.6244 7.71242 91.4087 7.18954 92.193 7.05883C92.7159 6.66667 93.6309 6.53595 94.4152 6.53595C95.1995 6.53595 95.9839 6.66667 96.8989 6.79739C97.6832 7.05883 98.4675 7.32026 98.9904 7.71242C99.644 8.2353 100.167 8.75817 100.559 9.41177C100.951 10.0654 101.082 10.719 100.951 11.634C100.951 12.4183 100.69 13.0719 100.298 13.5948C99.9054 14.1176 98.9904 14.3791 97.8139 14.3791H93.6309ZM92.3237 10.8497C92.193 11.1111 92.4544 11.3726 92.8466 11.3726H96.7682C97.0296 11.3726 97.1603 11.2418 97.1603 11.1111C97.1603 10.9804 97.1603 10.8497 97.0296 10.719C96.8989 10.5882 96.7682 10.3268 96.2453 9.93464C95.8531 9.6732 95.3303 9.41177 94.6767 9.41177C94.0231 9.41177 93.5002 9.54249 93.108 9.93464C92.5852 10.3268 92.3237 10.719 92.3237 10.8497Z" fill="#669C49"/>
<path d="M119.586 10.5C119.586 10.3 119.36 10 119.02 9.6C118.681 9.2 118.228 8.8 117.889 8.3C117.436 7.8 116.87 7.3 116.417 6.9C115.852 6.5 115.399 6.1 114.946 5.8C114.494 5.4 114.267 5 114.041 4.6C113.928 4.2 114.041 3.8 114.494 3.4C114.72 3.2 114.946 3.1 115.286 3C115.512 3 115.852 3 116.078 3C116.304 3.1 116.644 3.2 116.87 3.3C117.096 3.4 117.436 3.6 117.776 3.8C118.341 4.1 118.907 4.5 119.473 5C120.039 5.5 120.605 6 121.171 6.6C121.85 7.2 122.302 7.8 122.868 8.4C123.321 9 123.66 9.5 123.887 9.9C123.887 10 124 10 124 10.2C124 10.3 124 10.4 124 10.5C124 10.6 124 10.7 124 10.9C124 11 123.887 11.1 123.887 11.3C123.66 11.6 123.321 12 122.755 12.6C122.302 13.2 121.737 13.8 121.171 14.4C120.605 15 120.039 15.5 119.473 16C118.907 16.5 118.341 16.9 117.776 17.2C117.549 17.4 117.21 17.5 116.87 17.7C116.644 17.8 116.304 17.9 116.078 18C115.852 18 115.512 18 115.286 18C115.059 18 114.72 17.8 114.494 17.6C114.041 17.1 113.928 16.7 114.041 16.4C114.154 16.1 114.494 15.7 114.946 15.3C115.173 15 115.625 14.6 116.191 14.2C116.757 13.8 117.21 13.2 117.776 12.7C118.341 12.3 118.794 11.8 119.134 11.4C119.473 11 119.586 10.6 119.586 10.5Z" fill="#669C49"/>
</svg>
