<svg width="132" height="20" viewBox="0 0 132 20" fill="none" xmlns="http://www.w3.org/2000/svg">
<path d="M4.82714 9.9152C4.82714 10.5675 4.9576 11.2198 5.08806 11.8721C5.21853 12.5245 5.47945 13.1768 5.74038 13.8291C6.00131 14.3509 6.52316 14.8728 6.91455 15.2642C7.4364 15.6556 7.95825 15.9165 8.74103 15.9165C9.65427 15.9165 10.4371 15.6556 10.9589 15.2642C11.6112 14.8728 12.1331 14.2205 12.5245 13.5682C12.6549 13.1768 12.9159 12.7854 13.1768 12.5245C13.4377 12.2635 13.9596 12.0026 14.7423 12.0026C15.5251 12.0026 16.047 12.1331 16.3079 12.5245C16.5688 12.7854 16.8297 13.1768 16.8297 13.5682C16.9602 13.9596 16.9602 14.4814 16.8297 15.0033C16.1774 16.6993 15.1337 18.0039 13.8291 18.7867C12.394 19.5695 10.8284 19.9609 8.87149 19.9609C7.4364 19.9609 6.13177 19.6999 4.9576 19.1781C3.91389 18.6562 3.00065 17.8735 2.21787 17.0907C1.56556 16.1774 1.04371 15.1337 0.652316 13.9596C0.260926 12.7854 0 11.3503 0 9.9152C0 8.61057 0.130463 7.30594 0.521853 6.13177C0.913242 4.9576 1.43509 3.91389 2.21787 3.00065C2.87019 2.08741 3.91389 1.30463 4.9576 0.782779C6.0013 0.260926 7.30594 0 8.74103 0C10.5675 0 12.2635 0.391389 13.6986 1.17417C15.1337 1.95695 16.1774 3.26158 16.8297 5.08806C16.9602 5.60992 17.0907 6.00131 16.9602 6.39269C16.8297 6.78408 16.6993 7.17547 16.3079 7.4364C15.9165 7.69733 15.3947 7.82779 14.6119 7.82779C14.2205 7.82779 13.8291 7.82779 13.5682 7.69733C13.3072 7.56686 13.0463 7.4364 12.9159 7.17547C12.7854 6.91455 12.5245 6.65362 12.394 6.39269C12.1331 6.13177 12.0026 5.87084 11.8721 5.60992C11.6112 5.08806 11.0894 4.56621 10.5675 4.30528C10.0457 4.04436 9.39335 3.91389 8.74103 3.91389C8.08871 3.91389 7.4364 4.04436 6.91455 4.43575C6.39269 4.82714 6.13177 5.34899 5.74038 5.87084C5.47945 6.39269 5.21853 7.04501 4.9576 7.82779C4.82714 8.61057 4.82714 9.26288 4.82714 9.9152Z" fill="#669C49"/>
<path d="M32.2244 11.0893C32.3549 11.4807 32.3549 11.8721 32.3549 12.2635C32.3549 12.6549 32.3549 12.9158 32.4853 13.3072C32.6158 13.6986 32.6158 14.09 32.7463 14.3509C32.8767 14.6118 33.0072 15.0032 33.2681 15.3946C33.529 15.6556 33.79 16.0469 34.0509 16.4383C34.1814 16.6993 34.3118 17.0906 34.3118 17.482C34.3118 18.0039 34.0509 18.3953 33.6595 18.7867C33.2681 19.1781 32.7463 19.3085 32.2244 19.3085C31.833 19.3085 31.4416 19.1781 30.9198 19.0476C30.5284 18.7867 30.137 18.6562 29.7456 18.3953C29.2238 18.7867 28.5714 19.0476 27.9191 19.3085C27.2668 19.439 26.484 19.5694 25.7013 19.5694C24.9185 19.5694 24.1357 19.439 23.3529 19.1781C22.5701 18.9171 21.9178 18.5257 21.2655 18.0039C20.6132 17.482 20.0913 16.8297 19.7 16.0469C19.3086 15.2642 19.1781 14.2205 19.1781 13.1768C19.1781 12.0026 19.3086 11.0893 19.7 10.3066C19.8304 9.1324 20.3523 8.34962 21.0046 7.82776C21.5264 7.30591 22.3092 7.04498 23.092 6.78406C23.8748 6.52313 24.788 6.52313 25.5708 6.52313C26.3536 6.52313 27.0059 6.6536 27.7887 6.78406C28.5714 6.91452 29.2238 7.17545 29.7456 7.56684C30.2675 7.82776 30.7893 8.34962 31.3112 9.00193C31.7026 9.65425 31.9635 10.3066 32.2244 11.0893ZM25.7013 10.0456C25.0489 10.0456 24.3966 10.3066 23.8748 10.698C23.3529 11.0893 23.092 11.8721 23.092 12.7854C23.092 13.6986 23.3529 14.4814 23.8748 14.8728C24.3966 15.2642 25.0489 15.5251 25.7013 15.5251C25.9622 15.5251 26.3536 15.5251 26.6145 15.3946C26.8754 15.2642 27.1364 15.1337 27.3973 14.8728C27.6582 14.7423 27.7887 14.4814 27.9191 14.09C28.0496 13.6986 28.0496 13.3072 28.0496 12.7854C28.0496 12.2635 28.0496 11.8721 27.9191 11.4807C27.7887 11.0893 27.6582 10.9589 27.3973 10.698C27.1364 10.437 26.8754 10.3066 26.6145 10.1761C26.3536 10.0456 25.9622 10.0456 25.7013 10.0456Z" fill="#669C49"/>
<path d="M37.2277 6.52319C37.3581 5.87087 37.3581 5.21855 37.3581 4.6967C37.3581 4.17485 37.4886 3.78346 37.4886 3.39207C37.6191 2.47883 38.0104 1.82651 38.5323 1.56559C39.1846 1.30466 39.8369 1.1742 40.4892 1.30466C41.272 1.43512 41.7939 1.69605 42.0548 2.2179C42.3157 2.73976 42.3157 3.39207 42.3157 4.04439L42.0548 6.52319C42.4462 6.52319 42.8376 6.52319 43.0985 6.52319C43.3594 6.52319 43.7508 6.52319 44.0118 6.65365C44.2727 6.78411 44.4031 7.04504 44.5336 7.1755C44.6641 7.43643 44.6641 7.69735 44.6641 7.95828C44.6641 8.6106 44.4031 9.00199 44.0118 9.13245C43.6204 9.26291 42.8376 9.39338 41.7939 9.39338C41.6634 10.1762 41.6634 11.0894 41.7939 12.0026C41.7939 12.9159 41.7939 13.6987 41.7939 14.351C41.9243 14.7424 41.9243 15.0033 42.0548 15.2642C42.1853 15.3947 42.3157 15.5251 42.4462 15.6556C42.5767 15.6556 42.8376 15.6556 42.968 15.6556C43.229 15.6556 43.3594 15.6556 43.6204 15.6556C44.2727 15.6556 44.6641 15.7861 44.925 15.9165C45.1859 16.047 45.3164 16.3079 45.4468 16.6993C45.5773 17.2212 45.4468 17.743 45.1859 18.0039C44.925 18.2649 44.6641 18.6563 44.1422 18.9172C43.6204 19.1781 43.0985 19.3086 42.5767 19.3086C42.0548 19.3086 41.4025 19.3086 40.8806 19.3086C39.8369 19.1781 38.9237 18.6563 38.2714 17.8735C37.6191 17.0907 37.2277 16.047 37.2277 14.6119C37.0972 14.09 37.0972 13.3073 37.0972 12.5245C37.0972 11.7417 37.0972 10.698 37.0972 9.52384C36.8363 9.52384 36.5754 9.52384 36.3144 9.52384C36.0535 9.52384 35.7926 9.39338 35.5316 9.39338C35.5316 9.13245 35.4012 9.00199 35.2707 8.74106C35.1403 8.48013 35.1403 8.21921 35.1403 7.95828C35.1403 7.30596 35.4012 6.91458 35.7926 6.78411C36.0535 6.52319 36.5754 6.52319 37.2277 6.52319Z" fill="#669C49"/>
<path d="M58.8291 2.25702C59.09 2.12656 59.7423 1.99609 60.6555 1.99609C61.5688 1.99609 62.482 1.99609 63.5257 1.99609C64.5694 1.99609 65.4827 1.99609 66.3959 1.99609C67.3092 1.99609 67.9615 2.12656 68.3529 2.25702C68.6138 2.25702 68.8747 2.25702 69.1356 2.38748C69.3966 2.51795 69.6575 2.64841 69.9184 2.64841C70.0489 2.77887 70.1793 3.0398 70.3098 3.17026C70.4403 3.43119 70.4403 3.69211 70.4403 3.95304C70.3098 4.47489 70.0489 4.86628 69.527 4.99675C69.0052 5.12721 68.4833 5.38814 67.9615 5.38814C67.7005 5.38814 67.3092 5.38814 66.7873 5.38814C66.2654 5.38814 65.6131 5.38814 65.0913 5.38814C64.5694 5.25767 63.9171 5.25767 63.3953 5.25767C62.8734 5.25767 62.482 5.25767 62.3516 5.25767C62.0906 5.25767 61.9602 5.38814 61.6992 5.64906C61.5688 5.90999 61.4383 6.17091 61.4383 6.43184V7.21462C61.4383 7.34508 61.4383 7.60601 61.4383 7.73647C61.4383 7.9974 61.4383 8.12786 61.4383 8.25833V9.43249H67.0482C67.3092 9.43249 67.5701 9.43249 67.7005 9.43249C67.9615 9.43249 68.0919 9.56296 68.2224 9.69342C68.4833 9.82388 68.6138 9.95435 68.7442 10.0848C68.8747 10.3457 68.8747 10.4762 68.8747 10.7371C68.8747 11.259 68.6138 11.6504 68.2224 11.7808C67.831 11.9113 67.4396 12.0418 67.0482 12.1722H61.4383V16.2166C61.4383 16.7384 61.4383 17.2603 61.3078 17.7821C61.1774 18.1735 61.0469 18.5649 60.9165 18.9563C60.786 19.2172 60.5251 19.4782 60.1337 19.7391C59.8728 19.8695 59.3509 20 58.8291 20C58.3072 20 57.9158 20 57.6549 19.8695C57.394 19.7391 57.133 19.6086 56.8721 19.4782C56.7416 19.2172 56.6112 18.9563 56.4807 18.6954C56.3503 18.4345 56.3503 18.0431 56.2198 17.7821C56.2198 17.5212 56.2198 16.9994 56.2198 16.2166C56.2198 15.5643 56.2198 14.7815 56.2198 13.8682C56.2198 12.955 56.2198 12.0418 56.2198 11.1285C56.2198 10.2153 56.2198 9.30203 56.2198 8.51925C56.3503 7.73647 56.3502 6.95369 56.3502 6.43184C56.3502 5.90999 56.3503 5.38814 56.4807 5.12721C56.6112 4.34443 57.0026 3.69211 57.394 3.17026C57.7853 2.77887 58.3072 2.51795 58.8291 2.25702Z" fill="#669C49"/>
<path d="M77.4599 6.13177C78.2426 6.13177 79.0254 6.26224 79.9387 6.3927C80.7214 6.65363 81.5042 6.91455 82.1565 7.43641C82.8089 7.95826 83.3307 8.74104 83.7221 9.52382C84.1135 10.3066 84.244 11.4808 84.244 12.6549C84.244 13.9596 84.1135 15.0033 83.7221 15.9165C83.3307 16.8298 82.8089 17.4821 82.1565 17.8735C81.5042 18.3953 80.7214 18.9172 79.9387 19.0476C79.1559 19.3086 78.2426 19.439 77.4599 19.439C76.6771 19.439 75.8943 19.3086 75.1115 19.0476C74.3287 18.7867 73.6764 18.3953 73.0241 17.8735C72.3718 17.3516 71.85 16.6993 71.4586 15.9165C71.0672 15.1337 70.9367 13.9596 70.9367 12.6549C70.9367 11.4808 71.0672 10.4371 71.4586 9.52382C71.85 8.61058 72.3718 7.95826 73.0241 7.43641C73.546 6.91455 74.3287 6.65363 75.1115 6.3927C75.8943 6.26224 76.6771 6.13177 77.4599 6.13177ZM77.4599 9.26289C76.8075 9.26289 76.1552 9.52382 75.6334 10.1761C75.1115 10.698 74.8506 11.6112 74.8506 12.7854C74.8506 13.9596 75.1115 14.7423 75.7638 15.3947C76.2857 16.047 76.938 16.3079 77.4599 16.3079C78.1122 16.3079 78.7645 16.047 79.2864 15.3947C79.8082 14.7423 80.0691 13.9596 80.0691 12.7854C80.0691 11.7417 79.8082 10.8284 79.2864 10.3066C78.7645 9.65428 78.1122 9.26289 77.4599 9.26289Z" fill="#669C49"/>
<path d="M92.7241 6.13177C93.5069 6.13177 94.2896 6.26224 95.2029 6.3927C95.9857 6.65363 96.7684 6.91455 97.4208 7.43641C98.0731 7.95826 98.5949 8.74104 98.9863 9.52382C99.3777 10.3066 99.5082 11.4808 99.5082 12.7854C99.5082 14.09 99.3777 15.1337 98.9863 16.047C98.5949 16.9602 98.0731 17.6125 97.4208 18.0039C96.7684 18.5258 95.9857 19.0476 95.2029 19.1781C94.4201 19.439 93.5069 19.5695 92.7241 19.5695C91.9413 19.5695 91.1585 19.439 90.3757 19.1781C89.593 18.9172 88.9407 18.5258 88.2883 18.0039C87.636 17.4821 87.1142 16.8298 86.7228 16.047C86.3314 15.2642 86.2009 14.09 86.2009 12.7854C86.2009 11.6112 86.3314 10.5675 86.7228 9.65428C87.1142 8.74104 87.636 8.08872 88.2883 7.56687C88.8102 7.04502 89.593 6.78409 90.3757 6.52316C91.1585 6.26224 91.9413 6.13177 92.7241 6.13177ZM92.7241 9.26289C92.0718 9.26289 91.4195 9.52382 90.8976 10.1761C90.3757 10.698 90.1148 11.6112 90.1148 12.7854C90.1148 13.9596 90.3757 14.7423 91.0281 15.3947C91.5499 16.047 92.2022 16.3079 92.7241 16.3079C93.3764 16.3079 94.0287 16.047 94.5506 15.3947C95.0724 14.7423 95.3333 13.9596 95.3333 12.7854C95.3333 11.7417 95.0724 10.8284 94.5506 10.3066C94.0287 9.65428 93.3764 9.26289 92.7241 9.26289Z" fill="#669C49"/>
<path d="M110.039 3.5225C110.039 3.26157 110.039 2.87018 110.17 2.60926C110.3 2.34833 110.431 2.08741 110.561 1.95694C110.692 1.69602 110.952 1.56555 111.344 1.43509C111.735 1.30463 112.127 1.30463 112.648 1.30463C113.562 1.30463 114.214 1.56555 114.475 1.95694C114.736 2.34833 114.997 3.00065 114.997 3.65296C114.997 5.47945 114.997 7.045 114.997 8.61056C114.997 10.0457 114.997 11.4808 114.997 12.9158C114.997 14.09 114.866 15.1337 114.736 16.047C114.475 16.9602 114.214 17.6125 113.692 18.0039C113.17 18.5258 112.388 18.7867 111.605 19.0476C110.692 19.3085 109.648 19.3085 108.343 19.3085C107.56 19.3085 106.778 19.1781 105.995 18.9172C105.212 18.6562 104.56 18.2648 103.907 17.743C103.255 17.2211 102.733 16.5688 102.342 15.786C101.95 15.0033 101.82 13.9596 101.82 12.9158C101.82 11.7417 101.95 10.8284 102.342 10.0457C102.603 9.26288 103.125 8.61056 103.646 8.08871C104.168 7.56686 104.69 7.17547 105.473 7.045C106.125 6.78408 106.778 6.65362 107.43 6.65362C107.691 6.65362 108.213 6.65362 108.604 6.65362C109.126 6.65362 109.648 6.78408 110.039 6.91454V3.5225ZM108.082 10.0457C107.56 10.0457 107.039 10.3066 106.517 10.698C105.995 11.0894 105.734 11.7417 105.734 12.6549C105.734 13.6986 105.995 14.3509 106.517 14.8728C107.039 15.3946 107.56 15.6556 108.082 15.6556C108.474 15.6556 108.865 15.6556 109.126 15.6556C109.387 15.6556 109.648 15.5251 109.909 15.2642C110.17 15.1337 110.3 14.8728 110.431 14.4814C110.561 14.09 110.561 13.5682 110.561 12.9158C110.561 11.8721 110.3 11.2198 109.778 10.8284C109.256 10.3066 108.735 10.0457 108.082 10.0457Z" fill="#669C49"/>
<path d="M127.586 11.5C127.586 11.3 127.36 11 127.02 10.6C126.681 10.2 126.228 9.8 125.889 9.3C125.436 8.8 124.87 8.3 124.417 7.9C123.852 7.5 123.399 7.1 122.946 6.8C122.494 6.4 122.267 6 122.041 5.6C121.928 5.2 122.041 4.8 122.494 4.4C122.72 4.2 122.946 4.1 123.286 4C123.512 4 123.852 4 124.078 4C124.304 4.1 124.644 4.2 124.87 4.3C125.096 4.4 125.436 4.6 125.776 4.8C126.341 5.1 126.907 5.5 127.473 6C128.039 6.5 128.605 7 129.171 7.6C129.85 8.2 130.302 8.8 130.868 9.4C131.321 10 131.66 10.5 131.887 10.9C131.887 11 132 11 132 11.2C132 11.3 132 11.4 132 11.5C132 11.6 132 11.7 132 11.9C132 12 131.887 12.1 131.887 12.3C131.66 12.6 131.321 13 130.755 13.6C130.302 14.2 129.737 14.8 129.171 15.4C128.605 16 128.039 16.5 127.473 17C126.907 17.5 126.341 17.9 125.776 18.2C125.549 18.4 125.21 18.5 124.87 18.7C124.644 18.8 124.304 18.9 124.078 19C123.852 19 123.512 19 123.286 19C123.059 19 122.72 18.8 122.494 18.6C122.041 18.1 121.928 17.7 122.041 17.4C122.154 17.1 122.494 16.7 122.946 16.3C123.173 16 123.625 15.6 124.191 15.2C124.757 14.8 125.21 14.2 125.776 13.7C126.341 13.3 126.794 12.8 127.134 12.4C127.473 12 127.586 11.6 127.586 11.5Z" fill="#669C49"/>
</svg>
