<svg width="148" height="32" viewBox="0 0 148 32" fill="none" xmlns="http://www.w3.org/2000/svg">
<path d="M13.6865 15.6608C12.8202 15.4608 12.3537 14.5945 12.3537 13.7948C12.3537 12.9951 12.4203 12.3953 12.7535 11.7289C13.3533 10.1962 15.8191 10.7293 15.8857 12.3287C15.8857 12.7952 15.9523 13.3283 15.8857 13.7282C15.7524 14.5279 14.8194 15.9273 13.6865 15.6608Z" fill="#FF904F"/>
<path d="M0.624765 14.7278C-0.041651 15.3276 -0.174934 16.3939 0.224915 17.0603C0.558123 17.7267 0.891331 18.2598 1.42446 18.7263C2.55737 19.7259 4.55662 18.0599 3.95684 16.5271C3.82356 16.1273 3.62364 15.6608 3.35707 15.261C2.95722 14.6612 1.55775 13.8615 0.624765 14.7278Z" fill="#FF904F"/>
<path d="M21.8834 31.3215C21.8834 31.3215 19.9508 31.3215 18.5514 30.1886C17.6184 29.4556 17.4184 26.6566 17.4184 26.6566L17.3518 16.5271C17.3518 16.5271 17.3518 15.6608 18.1515 14.5279C18.8846 13.4616 20.484 13.3949 20.484 13.3949C20.484 13.3949 30.3469 13.3283 31.5465 13.3283C32.746 13.3283 33.9456 14.0614 34.6786 15.1276C35.4783 15.9273 35.2784 19.2594 35.2784 19.2594L35.0785 26.2568C35.0785 26.2568 35.1451 28.3893 33.4791 30.0553C32.4128 31.1216 29.2807 31.3882 29.2807 31.3882H21.8834V31.3215ZM24.2159 20.5922V17.3268H21.2837V20.5256H24.2159V20.5922ZM24.2159 27.3897V23.9243H21.3503V27.3897H24.2159ZM31.2799 21.8584V17.3268H27.8812V20.5256C27.8812 20.5256 28.6142 20.5256 29.3473 20.5256C30.88 20.5256 31.2799 21.8584 31.2799 21.8584ZM31.1466 27.3897L31.2799 22.6581C31.2799 22.6581 30.9467 23.5911 29.5472 23.8577C28.9474 23.991 27.8812 23.9243 27.8812 23.9243V27.3897H31.1466Z" fill="#FF904F"/>
<path d="M48.6734 31.7881C47.9403 31.3882 47.807 28.5893 47.807 28.5893C47.807 28.5893 47.6738 27.2564 47.6738 26.5234L45.5412 29.5889C44.7415 30.0554 43.542 30.0554 42.8756 29.4556C42.2091 28.8558 42.1425 27.6563 42.5423 27.0565C42.9422 26.4567 46.4076 22.7248 46.4076 22.7248L43.2754 22.5249C43.2754 22.5249 42.0092 22.325 42.3424 20.1924C42.5423 19.1262 43.9418 18.9262 44.8748 18.9262C45.6745 18.9262 47.7404 19.0595 47.7404 19.1262C47.7404 19.1262 47.6071 17.1269 48.007 16.5271C48.4068 15.994 49.2065 15.7274 50.0062 15.7274C50.8725 15.7274 51.539 16.4605 51.6056 17.0603C51.6722 17.5934 51.539 19.1262 51.539 19.1262C51.539 19.1262 53.0051 18.9262 53.8048 18.8596C54.5378 18.793 55.2043 19.1262 55.7374 19.9259C56.004 20.5256 56.0706 21.6585 55.6041 21.9918C55.071 22.325 52.8718 22.5915 52.8718 22.5915C52.8718 22.5915 54.9377 25.7903 56.6704 26.7899C58.403 25.857 60.6022 22.9247 60.6022 22.9247C60.6022 22.9247 57.6034 22.8581 57.2035 22.3916C56.8037 21.9251 56.3372 20.1924 57.0036 19.5927C57.67 18.9929 58.6696 18.793 59.6692 18.793C60.6022 18.793 62.3349 18.8596 62.3349 18.8596L62.4015 17.3268C62.4015 17.3268 62.4015 15.6608 64.0009 15.5275C66.2668 15.3942 66.2668 16.8603 66.2668 16.8603L66.3334 18.793C66.3334 18.793 67.9994 18.7263 68.7991 18.6597C69.5322 18.593 70.2653 18.793 70.9317 19.5927C71.1982 20.3257 71.3982 21.1921 71.1316 21.6585C70.865 22.125 69.7321 22.4582 67.9994 22.7248C67.9994 22.7248 70.7317 25.1239 72.731 26.1235C73.1308 26.5234 73.2641 26.9899 72.731 27.9895C72.1979 28.9891 70.7317 29.389 69.9987 29.0558L66.4667 26.1235C66.4667 26.8566 66.6 28.9891 66.6 28.9891C66.6 28.9891 66.6 31.1883 65.667 31.7214C65.2671 31.988 64.2009 32.1213 63.5345 31.8547C62.5348 31.3882 62.5348 29.0558 62.5348 29.0558L62.4682 26.5234C62.4682 26.5234 60.8688 28.456 59.6026 29.2557C58.3364 30.122 56.9369 28.5893 56.9369 28.5893C56.9369 28.5893 56.0706 30.5219 54.5378 29.4556C53.6049 28.8558 51.6722 26.0569 51.6722 26.0569L51.8055 28.3893C51.8055 28.3893 51.7389 31.3216 50.8726 31.7214C50.2728 31.9213 49.4731 32.1879 48.6734 31.7881Z" fill="#FF904F"/>
<path d="M4.22337 24.0576C4.68986 25.5237 5.88941 26.59 7.08896 26.7899C8.28851 26.9232 10.9542 26.7233 11.9538 26.4567C12.9534 26.1901 13.4199 25.5237 13.8198 24.1242C14.2196 22.7248 12.8868 17.7933 11.2874 16.1272C9.75462 14.5278 7.02232 15.2609 5.95605 16.7937C4.62322 18.6596 3.75688 22.5915 4.22337 24.0576Z" fill="#FF904F"/>
<path d="M11.354 11.1958C10.9542 11.9955 10.1545 12.3953 9.42144 12.1954C7.28891 11.6622 7.95533 8.8633 8.75503 7.39718C9.3548 6.26428 10.5543 6.66413 11.0208 7.53047C11.1541 7.66375 11.2208 7.86368 11.2874 8.13024C11.554 9.12987 11.8205 10.2628 11.354 11.1958Z" fill="#FF904F"/>
<path d="M7.02236 11.9955C7.02236 12.8618 6.42259 13.7282 5.62289 14.0614C3.42372 15.061 2.7573 12.462 2.95723 10.7293C3.09051 9.46309 4.3567 8.92996 5.1564 9.32981C5.35632 9.39645 5.55625 9.46309 5.68953 9.66302C6.2893 10.2628 7.02236 10.9292 7.02236 11.9955Z" fill="#FF904F"/>
<path d="M20.8172 11.1291C20.5506 10.596 20.3507 8.19692 20.3507 8.19692L18.2848 7.86371C17.2852 7.46386 17.4851 5.5979 18.1515 5.46461C18.8179 5.33133 20.1508 5.06476 20.1508 5.06476C20.1508 5.06476 20.2174 2.73231 20.284 2.33246C20.3507 1.86597 20.5506 1.46612 20.8172 0.999626C21.5502 0.399852 22.3499 0.199927 23.2829 0.466494C23.8827 0.866343 24.2159 1.33283 24.2825 1.99925C24.3492 2.66567 24.3492 5.06476 24.3492 5.06476H27.7479C27.7479 5.06476 27.8812 2.53238 28.3477 1.93261C28.8142 1.33283 29.7472 0.999626 30.8134 1.39948C31.4132 1.66604 31.813 2.06589 32.013 2.59902C32.2129 3.13216 32.013 5.06476 32.013 5.06476L33.6124 5.5979C34.2121 6.13103 34.3454 7.39722 33.4124 7.66379L31.9463 8.06364C31.9463 8.06364 31.8797 10.3294 31.3465 10.7293C30.8134 11.1291 29.8804 11.2624 29.8804 11.2624C29.8804 11.2624 28.8808 11.1958 28.481 10.6627C28.0811 10.1295 27.7479 8.19692 27.7479 8.19692H24.6157C24.6157 8.79669 24.6157 10.1962 24.6157 10.7293C24.6157 11.2624 23.8827 12.0621 22.9497 12.1288C22.0167 12.2621 21.0837 11.6623 20.8172 11.1291Z" fill="#FF904F"/>
<path d="M57.0035 15.7941C56.0039 15.8607 55.5374 14.9277 55.5374 14.9277C55.0043 14.128 54.871 11.0625 54.871 11.0625C54.871 11.0625 53.1383 13.8615 52.6052 14.3946C52.072 14.9277 50.5393 14.7944 49.8729 14.2613C49.2065 13.7282 49.0732 12.3953 49.6063 11.7289C50.1394 11.0625 53.8714 7.19729 53.8714 7.19729C53.8714 7.19729 50.406 7.13065 49.8729 6.86408C49.2731 6.26431 49.1398 4.19842 49.8729 3.73193C50.4727 3.26544 54.8044 3.33208 54.8044 3.33208C54.8044 3.33208 54.8044 2.19917 54.871 1.73268C54.871 1.33283 55.4041 0 56.9369 0C58.4696 0 58.8029 0.733057 58.9361 1.19955C59.0694 1.66604 58.9361 3.1988 58.9361 3.1988C58.9361 3.1988 61.8684 2.93223 62.6014 3.1988C63.5344 3.532 63.7343 5.99774 63.3345 6.26431C62.4015 6.99737 59.8025 7.06401 59.8025 7.06401C59.8025 7.06401 63.0013 9.52975 65.0672 10.4627C65.5336 10.7959 65.5337 11.9955 64.9339 12.5953C64.3341 13.195 64.0009 13.6615 62.8013 13.4616L58.8028 10.4627C58.8028 10.4627 59.0694 13.8615 58.6696 14.5945C58.403 15.3276 58.2031 15.7274 57.0035 15.7941Z" fill="#FF904F"/>
<path d="M102.521 10.9292C102.587 10.7293 102.587 8.86331 102.587 8.33018C102.587 7.79704 102.587 5.53123 102.521 5.06474C102.454 4.59825 102.388 4.26504 102.254 3.93183C102.121 3.59862 101.988 3.46534 101.721 3.46534C101.588 3.46534 101.521 3.59862 101.388 3.79855C101.255 3.99847 100.921 5.46459 100.855 5.93108C100.855 5.93108 100.388 9.19652 100.255 9.52973C100.122 9.86293 99.9218 10.1295 99.7219 10.3961C99.4553 10.596 99.1221 10.7293 98.6556 10.7293C98.1892 10.7293 97.8559 10.596 97.5894 10.3961C97.3894 10.1961 97.1895 9.86293 97.0562 9.52973C96.923 9.19652 96.723 7.7304 96.723 7.39719C96.723 7.39719 96.3232 5.06474 96.2565 4.66489C96.1899 4.26504 96.0566 3.93183 95.9233 3.73191C95.7901 3.53198 95.7234 3.3987 95.5901 3.3987C95.3902 3.3987 95.1903 3.53198 95.057 3.86519C94.9237 4.1984 94.7238 6.06436 94.7238 6.5975C94.7238 7.13063 94.7238 9.39644 94.7238 9.86293C94.7238 10.3294 94.7238 10.6626 94.7238 10.9292C94.7904 11.4623 94.7238 11.8622 94.4572 12.262C94.2573 12.6619 93.8574 12.8618 93.3243 12.8618C92.9911 12.8618 92.258 12.6619 91.9248 12.262C91.5916 11.8622 91.4583 10.9958 91.4583 10.9958C91.4583 10.9958 91.2584 9.66301 91.2584 8.86331C91.2584 8.06361 91.2584 7.26391 91.3251 6.39757C91.3251 5.59787 91.3917 4.86481 91.525 4.06512C91.6583 3.33206 91.8582 2.599 92.1914 1.99923C92.458 1.46609 92.8578 0.999602 93.391 0.599753C93.9241 0.266545 94.5239 0.0666199 95.2569 0.0666199C96.1233 0.0666199 96.8563 0.266545 97.3894 0.733036C97.9226 1.19953 98.3224 1.86594 98.6556 2.86557C98.9889 1.93258 99.4553 1.19953 99.9885 0.733036C100.522 0.266545 101.188 0.0666199 101.988 0.0666199C102.854 0.0666199 103.52 0.266545 104.054 0.599753C104.587 0.932961 104.987 1.39945 105.253 1.99923C105.586 2.599 105.853 3.33206 105.92 4.06512C106.053 4.79817 106.12 5.59787 106.12 6.39757C106.12 7.26391 106.119 8.06361 106.053 8.86331C105.986 9.66301 105.92 10.3294 105.853 10.9958C105.786 11.529 105.653 11.9288 105.386 12.262C105.12 12.5952 104.653 12.7952 104.054 12.8618C103.787 12.8618 103.52 12.7952 103.321 12.6619C103.121 12.5286 102.987 12.3953 102.854 12.262C102.721 12.0621 102.654 11.8622 102.587 11.6623C102.587 11.3957 102.521 11.1958 102.521 10.9292Z" fill="#FF904F"/>
<path d="M112.517 8.53014C111.851 8.53014 111.451 8.59678 111.451 8.73007C111.451 8.99663 111.584 9.2632 111.917 9.52976C112.251 9.79633 112.65 9.86297 113.183 9.86297C113.783 9.86297 114.183 9.79633 114.45 9.66305C114.716 9.52976 114.983 9.32984 115.116 9.19656C115.583 8.92999 115.982 8.79671 116.316 8.86335C116.516 8.86335 116.715 8.92999 116.915 9.06327C117.115 9.19656 117.182 9.32984 117.249 9.52976C117.315 9.72969 117.315 9.92961 117.315 10.1295C117.315 10.3295 117.182 10.5294 117.115 10.7293C116.582 11.3291 115.982 11.7289 115.316 11.9955C114.65 12.2621 113.85 12.3287 112.917 12.3287C112.317 12.3287 111.784 12.2621 111.251 12.0621C110.718 11.8622 110.185 11.5957 109.718 11.2624C109.252 10.9959 108.918 10.5294 108.652 9.99626C108.385 9.46312 108.252 8.79671 108.252 8.13029C108.252 7.19731 108.385 6.39761 108.652 5.79784C108.918 5.19806 109.252 4.66493 109.718 4.26508C110.118 3.86523 110.584 3.53202 111.184 3.39874C111.784 3.19881 112.317 3.13217 112.917 3.13217C113.517 3.13217 114.05 3.19881 114.65 3.3321C115.249 3.46538 115.716 3.73195 116.116 3.99851C116.582 4.33172 116.915 4.73157 117.182 5.19806C117.449 5.66455 117.515 6.19769 117.515 6.79746C117.515 7.39723 117.382 7.86373 117.049 8.19693C116.715 8.53014 116.116 8.73007 115.249 8.73007H112.517V8.53014ZM111.584 6.0644C111.517 6.33097 111.651 6.39761 111.917 6.39761H114.65C114.85 6.39761 114.916 6.33097 114.916 6.19769C114.916 6.0644 114.916 5.99776 114.85 5.93112C114.783 5.79784 114.65 5.66455 114.316 5.39799C114.05 5.13142 113.65 5.06478 113.183 5.06478C112.717 5.06478 112.317 5.19806 112.051 5.39799C111.851 5.73119 111.651 5.93112 111.584 6.0644Z" fill="#FF904F"/>
<path d="M124.246 2.53238C124.846 2.53238 125.379 2.59902 125.979 2.7323C126.578 2.86559 127.045 3.13215 127.511 3.46536C127.978 3.86521 128.311 4.39834 128.578 4.99812C128.844 5.59789 128.978 6.33095 128.978 7.26393C128.978 8.19691 128.844 8.99661 128.578 9.59639C128.311 10.1962 127.978 10.7293 127.511 11.0625C127.045 11.4624 126.512 11.7956 125.979 11.9288C125.379 12.1288 124.846 12.1954 124.246 12.1954C123.646 12.1954 123.113 12.1288 122.58 11.9288C122.047 11.7289 121.514 11.4624 121.047 11.0625C120.581 10.7293 120.247 10.1962 119.981 9.59639C119.714 8.99661 119.581 8.19691 119.581 7.26393C119.581 6.39759 119.714 5.66453 119.981 4.99812C120.247 4.39834 120.581 3.86521 121.047 3.46536C121.447 3.13215 121.914 2.86559 122.513 2.7323C123.113 2.59902 123.713 2.53238 124.246 2.53238ZM124.246 4.86484C123.779 4.86484 123.38 5.06476 122.98 5.46461C122.58 5.86446 122.447 6.46423 122.447 7.33057C122.447 8.13027 122.647 8.79669 123.046 9.19654C123.446 9.66303 123.846 9.86295 124.246 9.86295C124.712 9.86295 125.112 9.66303 125.512 9.19654C125.912 8.73005 126.045 8.13027 126.045 7.33057C126.045 6.59752 125.845 5.99774 125.512 5.53125C125.112 5.06476 124.712 4.86484 124.246 4.86484Z" fill="#FF904F"/>
<path d="M139.307 3.93184C139.24 3.73191 139.24 3.59863 139.307 3.3987C139.374 3.19878 139.44 3.06549 139.574 2.86557C139.707 2.73229 139.84 2.66564 140.04 2.53236C140.24 2.46572 140.507 2.39908 140.773 2.39908C140.973 2.39908 141.173 2.46572 141.373 2.599C141.573 2.73229 141.706 2.86557 141.773 2.93221C141.906 3.06549 141.973 3.19878 142.039 3.3987C142.106 3.59863 142.106 3.73191 142.106 3.86519C142.173 4.33168 142.239 4.86482 142.306 5.46459C142.373 6.06437 142.372 6.66414 142.372 7.26391C142.306 7.86369 142.239 8.39682 142.173 8.9966C142.106 9.52973 141.906 10.0629 141.706 10.4627C141.506 10.9292 141.173 11.2624 140.773 11.529C140.373 11.7955 139.84 11.8622 139.24 11.8622C138.107 11.8622 137.308 11.2624 136.841 10.1295C136.308 11.3291 135.508 11.8622 134.309 11.8622C133.443 11.8622 132.776 11.5956 132.376 11.0625C131.976 10.5294 131.643 9.79629 131.443 8.92995C131.31 8.1969 131.31 7.33056 131.31 6.39757C131.31 5.46459 131.31 4.26504 131.377 3.86519C131.443 3.46534 131.643 3.06549 131.91 2.86557C132.176 2.66564 132.643 2.46572 132.909 2.46572C133.509 2.46572 133.842 2.599 134.042 2.93221C134.242 3.26542 134.309 3.59863 134.309 3.93184C134.309 4.06512 134.309 4.26504 134.242 4.53161C134.242 4.79818 134.176 5.13138 134.176 5.46459C134.176 5.7978 134.176 6.19765 134.109 6.5975C134.109 6.99735 134.109 7.33056 134.176 7.66376C134.176 7.99697 134.176 8.26354 134.242 8.53011C134.309 8.73003 134.376 8.86331 134.509 8.86331C134.642 8.86331 134.709 8.73003 134.842 8.39682C134.909 8.13026 135.042 7.73041 135.175 7.33056C135.242 6.93071 135.308 6.46422 135.375 6.06437C135.442 5.59788 135.508 5.33131 135.575 5.13138C135.642 4.79818 135.775 4.53161 135.908 4.39833C136.108 4.26504 136.375 4.1984 136.841 4.1984C137.241 4.1984 137.574 4.26504 137.774 4.46497C137.974 4.66489 138.107 4.86482 138.174 5.19803C138.241 5.46459 138.307 5.86444 138.374 6.26429C138.441 6.66414 138.507 7.06399 138.574 7.53048C138.641 7.93033 138.707 8.26354 138.84 8.53011C138.974 8.79667 139.04 8.92995 139.174 8.92995C139.307 8.92995 139.374 8.79667 139.44 8.59675C139.507 8.39682 139.507 8.13026 139.507 7.73041C139.507 7.46384 139.507 7.06399 139.507 6.66414C139.507 6.26429 139.507 5.86444 139.507 5.53123C139.44 5.19803 139.44 4.86482 139.44 4.59825C139.307 4.26504 139.307 4.06512 139.307 3.93184Z" fill="#FF904F"/>
<path d="M88.9926 18.0598C89.2592 17.9266 89.659 17.8599 90.3254 17.8599C90.9919 17.8599 93.7242 17.8599 94.3906 17.8599C95.057 17.8599 96.4565 18.0598 96.8563 18.3931C97.2562 18.6596 97.3228 18.9928 97.3228 19.3927C97.3228 19.7925 97.0562 19.9925 96.723 20.1924C96.3898 20.3923 95.99 20.4589 95.5901 20.4589C95.3902 20.4589 91.6583 20.3923 91.525 20.3923C91.3251 20.3923 91.1918 20.5256 91.0585 20.7255C90.9252 20.9254 90.8586 21.1254 90.8586 21.3253V23.3912H94.9237C94.9237 23.3912 96.3232 23.6577 96.2565 24.5241C96.1899 25.5237 94.9237 25.7903 94.9237 25.7903H90.8586V28.4559C90.8586 28.8558 90.8586 29.2556 90.7919 29.5888C90.7253 29.9221 90.6586 30.1886 90.5254 30.4552C90.3921 30.7218 90.2588 30.855 89.9922 30.9883C89.7257 31.1216 89.4591 31.1882 88.9926 31.1882C88.6594 31.1882 88.3262 31.1216 88.1263 31.055C87.8597 30.9883 87.7264 30.855 87.5931 30.7218C87.4598 30.5218 87.3932 30.3885 87.3266 30.122C87.2599 29.9221 87.1933 29.7221 87.1266 29.4556C87.1266 29.189 87.1266 28.8558 87.06 28.3227C87.06 27.8562 87.1266 21.6585 87.1266 21.192C87.1266 20.7255 87.1266 20.4589 87.1933 20.259C87.3266 19.6592 87.5265 19.1928 87.8597 18.8595C88.2595 18.3931 88.6594 18.1265 88.9926 18.0598Z" fill="#FF904F"/>
<path d="M102.454 20.6589C102.987 20.6589 103.52 20.7255 104.054 20.8588C104.587 20.9921 105.053 21.2587 105.52 21.5919C105.986 21.9917 106.319 22.5249 106.519 23.1246C106.719 23.7244 106.853 24.4575 106.853 25.3905C106.853 26.3234 106.719 27.1231 106.519 27.7229C106.253 28.3227 105.92 28.8558 105.52 29.189C105.053 29.5889 104.587 29.9221 104.054 30.0554C103.52 30.2553 102.987 30.3219 102.454 30.3219C101.921 30.3219 101.388 30.2553 100.855 30.0554C100.322 29.8554 99.8552 29.5889 99.4553 29.189C98.9888 28.8558 98.6556 28.3227 98.4557 27.7229C98.1891 27.1231 98.1225 26.3234 98.1225 25.3905C98.1225 24.5241 98.2558 23.7911 98.4557 23.1246C98.6556 22.4582 99.0555 21.9917 99.4553 21.5919C99.8552 21.2587 100.322 20.9921 100.855 20.8588C101.388 20.7255 101.921 20.6589 102.454 20.6589ZM102.454 22.9247C101.988 22.9247 101.655 23.1246 101.255 23.5245C100.921 23.9243 100.722 24.5241 100.722 25.3905C100.722 26.1902 100.921 26.8566 101.321 27.2564C101.721 27.7229 102.054 27.9228 102.454 27.9228C102.921 27.9228 103.254 27.7229 103.654 27.2564C103.987 26.7899 104.187 26.1902 104.187 25.3905C104.187 24.6574 103.987 24.0576 103.654 23.5911C103.321 23.1246 102.921 22.9247 102.454 22.9247Z" fill="#FF904F"/>
<path d="M110.451 20.9921C110.984 20.9255 111.384 20.9921 111.584 21.192C111.851 21.392 111.984 21.5919 112.117 21.8585C112.384 21.7252 112.584 21.6585 112.85 21.5253C113.117 21.4586 113.45 21.392 113.85 21.392C114.516 21.392 115.049 21.4586 115.449 21.5919C115.916 21.7252 116.249 21.9251 116.582 22.1917C116.849 22.4582 117.115 22.7914 117.249 23.058C117.382 23.3246 117.515 23.6578 117.582 23.9243C117.582 24.0576 117.582 24.1909 117.582 24.3908C117.582 24.5908 117.515 24.724 117.382 24.924C117.315 25.0573 117.182 25.1905 117.049 25.2572C116.849 25.3905 116.649 25.4571 116.316 25.5237C115.849 25.5904 115.516 25.5237 115.316 25.3238C115.116 25.1239 114.983 24.924 114.916 24.6574C114.85 24.5241 114.716 24.3908 114.516 24.1909C114.316 23.991 113.983 23.9243 113.517 23.991C113.25 23.991 113.05 24.0576 112.917 24.1909C112.717 24.3242 112.65 24.4575 112.584 24.5241C112.517 24.724 112.45 24.8573 112.384 24.9906C112.317 25.1239 112.317 25.2572 112.317 25.3905C112.317 25.9236 112.317 26.4567 112.251 26.9899C112.251 27.523 112.184 28.1228 112.184 28.5893C112.117 29.1224 111.917 29.5222 111.584 29.7222C111.251 29.9887 110.851 30.0554 110.318 30.0554C109.851 30.0554 109.452 29.9221 109.185 29.6555C108.918 29.389 108.785 29.0558 108.785 28.5226C108.785 27.6563 108.785 26.6567 108.852 25.657C108.918 24.6574 108.918 23.5911 108.852 22.5915C108.852 22.3916 108.852 22.1917 108.918 21.9917C108.918 21.7252 109.052 21.5252 109.118 21.392C109.252 21.192 109.385 21.0588 109.585 20.9255C109.785 21.0588 110.051 20.9921 110.451 20.9921Z" fill="#FF904F"/>
<path d="M123.18 26.6567C122.447 26.6567 122.113 26.7233 122.113 26.8566C122.113 27.1232 122.247 27.3897 122.58 27.6563C122.913 27.9229 123.313 27.9895 123.846 27.9895C124.446 27.9895 124.846 27.9229 125.179 27.7896C125.445 27.6563 125.712 27.4564 125.912 27.3231C126.378 27.0565 126.778 26.9232 127.178 26.9899C127.445 26.9899 127.645 27.0565 127.778 27.1898C127.978 27.3231 128.045 27.4564 128.111 27.6563C128.178 27.8562 128.178 28.0561 128.178 28.2561C128.178 28.456 128.045 28.6559 127.978 28.8558C127.445 29.4556 126.845 29.8555 126.179 30.122C125.512 30.3886 124.712 30.4552 123.779 30.4552C123.18 30.4552 122.647 30.3886 122.047 30.1887C121.514 29.9887 120.981 29.7222 120.514 29.389C120.048 29.1224 119.648 28.6559 119.381 28.1228C119.115 27.5896 118.981 26.9232 118.981 26.2568C118.981 25.3238 119.115 24.5241 119.381 23.9244C119.648 23.3246 119.981 22.7915 120.514 22.3916C120.914 21.9918 121.447 21.6585 121.98 21.5253C122.58 21.3253 123.18 21.2587 123.713 21.2587C124.313 21.2587 124.912 21.3253 125.445 21.4586C126.045 21.5919 126.512 21.8585 126.912 22.125C127.378 22.4582 127.778 22.8581 128.045 23.3246C128.311 23.7911 128.378 24.3242 128.378 24.924C128.378 25.5238 128.244 25.9903 127.911 26.3235C127.578 26.6567 126.978 26.8566 126.112 26.8566H123.18V26.6567ZM122.247 24.1909C122.18 24.4575 122.313 24.5241 122.58 24.5241H125.379C125.579 24.5241 125.645 24.4575 125.645 24.3242C125.645 24.1909 125.645 24.1243 125.579 24.0576C125.512 23.9244 125.312 23.7911 125.046 23.5245C124.779 23.2579 124.379 23.1913 123.913 23.1913C123.446 23.1913 123.046 23.3246 122.78 23.5245C122.447 23.7911 122.313 23.991 122.247 24.1909Z" fill="#FF904F"/>
<path d="M132.709 27.1231C132.909 27.3897 133.109 27.523 133.443 27.5896C133.709 27.6563 134.042 27.7229 134.442 27.7895C134.709 27.7895 134.975 27.7229 135.175 27.6563C135.375 27.5896 135.442 27.4563 135.442 27.2564C135.508 26.9898 135.375 26.8566 135.109 26.7233C134.842 26.59 134.509 26.5234 134.109 26.4567C133.642 26.3234 133.243 26.1901 132.843 26.0569C132.443 25.9236 132.11 25.7237 131.843 25.4571C131.577 25.2572 131.31 25.0572 131.11 24.724C130.91 24.3908 130.843 23.991 130.843 23.5245C130.843 22.7914 131.177 22.125 131.776 21.5919C132.376 21.0587 133.243 20.7922 134.375 20.7922C134.909 20.7922 135.375 20.7922 135.775 20.8588C136.175 20.9255 136.508 21.0587 136.841 21.192C137.108 21.3253 137.374 21.4586 137.574 21.6585C137.774 21.8584 137.908 21.9917 137.974 22.1916C138.174 22.5249 138.174 22.8581 138.107 23.058C138.041 23.3246 137.907 23.5245 137.708 23.6578C137.441 23.8577 137.174 23.9243 136.775 23.9243C136.375 23.9243 136.042 23.791 135.775 23.4578C135.642 23.2579 135.508 23.1913 135.308 23.1246C135.109 23.058 134.909 23.058 134.709 23.058C134.442 23.058 134.309 23.1246 134.176 23.1913C134.042 23.2579 133.976 23.3912 133.976 23.5911C133.976 23.791 134.042 23.9243 134.242 24.0576C134.442 24.1909 134.642 24.2575 134.975 24.3242C135.242 24.4575 135.575 24.5241 135.842 24.5907C136.108 24.6574 136.308 24.724 136.508 24.7907C137.841 25.2572 138.507 26.1235 138.507 27.4563C138.507 27.7895 138.441 28.1228 138.307 28.456C138.174 28.7225 137.908 29.0557 137.641 29.3223C137.374 29.5889 136.975 29.7221 136.508 29.8554C136.042 29.9887 135.442 30.0554 134.775 30.122C134.042 30.122 133.509 30.0554 133.043 29.9887C132.576 29.9221 132.176 29.7888 131.843 29.5889C131.577 29.4556 131.31 29.3223 131.11 29.0557C130.91 28.7892 130.71 28.5892 130.644 28.3227C130.377 28.0561 130.31 27.7229 130.31 27.3231C130.31 26.9232 130.444 26.6566 130.644 26.4567C130.91 26.2568 131.11 26.1901 131.377 26.1235C131.643 26.1235 131.843 26.1235 131.976 26.1901C132.176 26.2568 132.31 26.3901 132.443 26.5234C132.443 26.7899 132.576 26.9898 132.709 27.1231Z" fill="#FF904F"/>
<path d="M142.039 21.4586C142.106 20.9921 142.239 19.3927 142.306 19.1261C142.439 18.4597 142.572 18.1932 142.972 17.9266C143.372 17.66 143.772 17.66 144.238 17.7267C144.838 17.7933 145.238 17.9932 145.371 18.3931C145.571 18.7929 145.638 19.1928 145.571 19.6593L145.371 21.192C145.638 21.192 146.104 21.192 146.304 21.192C146.504 21.192 146.704 21.192 146.971 21.2587C147.171 21.3919 147.304 21.5252 147.371 21.6585C147.437 21.7918 147.504 21.9917 147.504 22.2583C147.504 22.7248 147.371 23.2579 147.037 23.3246C146.771 23.4578 145.305 23.5245 145.305 23.5245C145.305 23.5245 145.038 26.9232 145.505 27.6563C145.705 27.9895 146.504 27.9228 146.638 27.9228C147.104 27.9228 147.437 27.9895 147.637 28.1227C147.837 28.256 147.904 28.3893 147.97 28.6559C148.037 29.0557 147.97 29.3889 147.77 29.6555C147.571 29.9221 147.371 30.122 147.037 30.2553C146.704 30.4552 146.304 30.5218 145.904 30.5885C145.505 30.5885 145.105 30.6551 144.638 30.6551C143.905 30.5218 143.239 30.1886 142.772 29.6555C142.306 29.1224 142.106 28.0561 142.039 27.323C141.973 26.59 141.973 23.5911 141.973 23.5911C141.973 23.5911 140.64 23.5911 140.307 23.3912C139.973 23.1913 139.84 22.7248 139.84 22.5249C139.84 22.0584 139.973 21.7918 140.307 21.6585C140.507 21.5252 141.573 21.4586 142.039 21.4586Z" fill="#FF904F"/>
</svg>
