<svg width="220" height="48" viewBox="0 0 220 48" fill="none" xmlns="http://www.w3.org/2000/svg">
<path d="M20.5212 23.4912C19.2222 23.1913 18.5228 21.8918 18.5228 20.6923C18.5228 19.4927 18.6227 18.593 19.1223 17.5934C20.0216 15.2943 23.7186 16.094 23.8186 18.4931C23.8186 19.1928 23.9185 19.9925 23.8186 20.5923C23.6187 21.7918 22.2198 23.8911 20.5212 23.4912Z" fill="#E9DECC"/>
<path d="M0.936755 22.0919C-0.0624503 22.9915 -0.262291 24.5909 0.337232 25.5906C0.836834 26.5902 1.33644 27.3899 2.1358 28.0896C3.83445 29.5891 6.83207 27.09 5.93278 24.7909C5.73294 24.1911 5.43318 23.4914 5.0335 22.8916C4.43397 21.9919 2.33564 20.7924 0.936755 22.0919Z" fill="#E9DECC"/>
<path d="M32.8114 46.9823C32.8114 46.9823 29.9137 46.9823 27.8154 45.2829C26.4165 44.1834 26.1167 39.9849 26.1167 39.9849L26.0168 24.7906C26.0168 24.7906 26.0168 23.4911 27.2158 21.7918C28.315 20.1924 30.713 20.0924 30.713 20.0924C30.713 20.0924 45.5013 19.9924 47.2999 19.9924C49.0984 19.9924 50.897 21.092 51.9961 22.6914C53.1952 23.891 52.8954 28.8891 52.8954 28.8891L52.5956 39.3852C52.5956 39.3852 52.6956 42.584 50.1976 45.083C48.5988 46.6824 43.9026 47.0823 43.9026 47.0823H32.8114V46.9823ZM36.3086 30.8883V25.9902H31.9121V30.7884H36.3086V30.8883ZM36.3086 41.0845V35.8865H32.012V41.0845H36.3086ZM46.9002 32.7876V25.9902H41.8042V30.7884C41.8042 30.7884 42.9034 30.7884 44.0025 30.7884C46.3007 30.7884 46.9002 32.7876 46.9002 32.7876ZM46.7003 41.0845L46.9002 33.9872C46.9002 33.9872 46.4006 35.3867 44.3022 35.7865C43.403 35.9864 41.8042 35.8865 41.8042 35.8865V41.0845H46.7003Z" fill="#E9DECC"/>
<path d="M72.9795 47.682C71.8803 47.0823 71.6805 42.8838 71.6805 42.8838C71.6805 42.8838 71.4807 40.8846 71.4807 39.785L68.2832 44.3833C67.0842 45.083 65.2856 45.083 64.2864 44.1833C63.2872 43.2837 63.1873 41.4843 63.7868 40.5847C64.3863 39.685 69.5822 34.0871 69.5822 34.0871L64.8859 33.7872C64.8859 33.7872 62.9874 33.4873 63.487 30.2885C63.7868 28.6891 65.8851 28.3893 67.284 28.3893C68.4831 28.3893 71.5806 28.5892 71.5806 28.6891C71.5806 28.6891 71.3807 25.6903 71.9803 24.7906C72.5798 23.9909 73.7788 23.5911 74.9779 23.5911C76.2768 23.5911 77.2761 24.6906 77.376 25.5903C77.4759 26.39 77.2761 28.6891 77.2761 28.6891C77.2761 28.6891 79.4743 28.3893 80.6733 28.2893C81.7725 28.1893 82.7717 28.6891 83.571 29.8887C83.9707 30.7884 84.0707 32.4877 83.3712 32.9875C82.5718 33.4873 79.2745 33.8872 79.2745 33.8872C79.2745 33.8872 82.372 38.6854 84.9699 40.1848C87.5679 38.7854 90.8652 34.387 90.8652 34.387C90.8652 34.387 86.3688 34.287 85.7693 33.5873C85.1698 32.8876 84.4703 30.2885 85.4695 29.3889C86.4687 28.4892 87.9676 28.1893 89.4664 28.1893C90.8652 28.1893 93.4632 28.2893 93.4632 28.2893L93.5631 25.9902C93.5631 25.9902 93.5631 23.4911 95.9612 23.2912C99.3585 23.0912 99.3585 25.2904 99.3585 25.2904L99.4584 28.1893C99.4584 28.1893 101.956 28.0894 103.155 27.9894C104.255 27.8894 105.354 28.1893 106.353 29.3889C106.753 30.4885 107.052 31.788 106.653 32.4877C106.253 33.1875 104.554 33.6873 101.956 34.0871C101.956 34.0871 106.053 37.6858 109.051 39.1852C109.65 39.785 109.85 40.4847 109.051 41.9842C108.251 43.4836 106.053 44.0834 104.954 43.5836L99.6582 39.1852C99.6582 40.2848 99.8581 43.4836 99.8581 43.4836C99.8581 43.4836 99.8581 46.7824 98.4592 47.5821C97.8597 47.9819 96.261 48.1818 95.2618 47.782C93.7629 47.0822 93.7629 43.5836 93.7629 43.5836L93.663 39.785C93.663 39.785 91.2649 42.6839 89.3664 43.8835C87.4679 45.183 85.3696 42.8838 85.3696 42.8838C85.3696 42.8838 84.0707 45.7827 81.7725 44.1833C80.3736 43.2837 77.4759 39.0852 77.4759 39.0852L77.6757 42.5839C77.6757 42.5839 77.5758 46.9823 76.2769 47.5821C75.3776 47.8819 74.1785 48.2818 72.9795 47.682Z" fill="#E9DECC"/>
<path d="M6.33241 36.0865C7.03186 38.2857 8.83043 39.8851 10.629 40.185C12.4276 40.3849 16.4244 40.085 17.9232 39.6852C19.422 39.2853 20.1214 38.2857 20.721 36.1865C21.3205 34.0873 19.3221 26.69 16.924 24.191C14.6258 21.7919 10.5291 22.8915 8.93035 25.1906C6.93193 27.9896 5.63297 33.8873 6.33241 36.0865Z" fill="#E9DECC"/>
<path d="M17.024 16.7938C16.4244 17.9933 15.2254 18.5931 14.1263 18.2932C10.9288 17.4935 11.928 13.2951 13.1271 11.0959C14.0263 9.39655 15.8249 9.99633 16.5244 11.2958C16.7242 11.4958 16.8241 11.7957 16.924 12.1955C17.3237 13.6949 17.7234 15.3943 17.024 16.7938Z" fill="#E9DECC"/>
<path d="M10.5291 17.9934C10.5291 19.2929 9.62985 20.5924 8.43081 21.0923C5.13343 22.5917 4.13422 18.6932 4.43399 16.0941C4.63383 14.1948 6.53232 13.3951 7.73136 13.9949C8.03112 14.0949 8.33089 14.1948 8.53073 14.4947C9.43001 15.3944 10.5291 16.394 10.5291 17.9934Z" fill="#E9DECC"/>
<path d="M31.2126 16.6939C30.8129 15.8942 30.5132 12.2955 30.5132 12.2955L27.4156 11.7957C25.9168 11.196 26.2166 8.39701 27.2158 8.19708C28.215 7.99716 30.2134 7.59731 30.2134 7.59731C30.2134 7.59731 30.3133 4.09862 30.4133 3.49884C30.5132 2.79911 30.8129 2.19933 31.2126 1.49959C32.3118 0.599931 33.5108 0.300043 34.9097 0.699893C35.809 1.29967 36.3086 1.99941 36.4085 2.99903C36.5084 3.99866 36.5084 7.59731 36.5084 7.59731H41.6044C41.6044 7.59731 41.8042 3.79873 42.5037 2.89907C43.2031 1.99941 44.602 1.49959 46.2007 2.09937C47.1 2.49922 47.6995 3.09899 47.9993 3.89869C48.299 4.69839 47.9993 7.59731 47.9993 7.59731L50.3974 8.39701C51.2967 9.19671 51.4965 11.096 50.0976 11.4958L47.8994 12.0956C47.8994 12.0956 47.7994 15.4943 47.0001 16.0941C46.2007 16.6939 44.8018 16.8938 44.8018 16.8938C44.8018 16.8938 43.303 16.7939 42.7035 15.9942C42.104 15.1945 41.6044 12.2955 41.6044 12.2955H36.9081C36.9081 13.1952 36.9081 15.2944 36.9081 16.0941C36.9081 16.8938 35.809 18.0934 34.4101 18.1933C33.0112 18.3933 31.6123 17.4936 31.2126 16.6939Z" fill="#E9DECC"/>
<path d="M151.817 16.394C151.917 16.0941 151.917 13.2951 151.917 12.4955C151.917 11.6957 151.917 8.29702 151.817 7.59729C151.717 6.89755 151.617 6.39774 151.417 5.89792C151.217 5.39811 151.017 5.19819 150.618 5.19819C150.418 5.19819 150.318 5.39811 150.118 5.698C149.918 5.99789 149.419 8.19706 149.319 8.8968C149.319 8.8968 148.619 13.795 148.419 14.2948C148.22 14.7946 147.92 15.1944 147.62 15.5943C147.22 15.8942 146.721 16.0941 146.021 16.0941C145.322 16.0941 144.822 15.8942 144.423 15.5943C144.123 15.2944 143.823 14.7946 143.623 14.2948C143.423 13.795 143.124 11.5958 143.124 11.096C143.124 11.096 142.524 7.59729 142.424 6.99751C142.324 6.39774 142.124 5.89792 141.925 5.59804C141.725 5.29815 141.625 5.09822 141.425 5.09822C141.125 5.09822 140.825 5.29815 140.626 5.79796C140.426 6.29777 140.126 9.09672 140.126 9.89642C140.126 10.6961 140.126 14.0949 140.126 14.7946C140.126 15.4943 140.126 15.9941 140.126 16.394C140.226 17.1937 140.126 17.7935 139.726 18.3932C139.427 18.993 138.827 19.2929 138.028 19.2929C137.528 19.2929 136.429 18.993 135.929 18.3932C135.43 17.7935 135.23 16.4939 135.23 16.4939C135.23 16.4939 134.93 14.4947 134.93 13.2951C134.93 12.0956 134.93 10.896 135.03 9.59654C135.03 8.39699 135.13 7.2974 135.33 6.09785C135.53 4.99826 135.829 3.89867 136.329 2.99901C136.729 2.19931 137.328 1.49957 138.128 0.899798C138.927 0.399985 139.826 0.100098 140.925 0.100098C142.224 0.100098 143.323 0.399985 144.123 1.09972C144.922 1.79946 145.522 2.79909 146.021 4.29852C146.521 2.89905 147.22 1.79946 148.02 1.09972C148.819 0.399985 149.818 0.100098 151.017 0.100098C152.316 0.100098 153.316 0.399985 154.115 0.899798C154.914 1.39961 155.514 2.09935 155.913 2.99901C156.413 3.89867 156.813 4.99826 156.913 6.09785C157.113 7.19744 157.212 8.39699 157.212 9.59654C157.212 10.896 157.212 12.0956 157.112 13.2951C157.013 14.4947 156.913 15.4943 156.813 16.4939C156.713 17.2937 156.513 17.8934 156.113 18.3932C155.714 18.8931 155.014 19.1929 154.115 19.2929C153.715 19.2929 153.316 19.1929 153.016 18.993C152.716 18.7931 152.516 18.5932 152.316 18.3932C152.116 18.0934 152.017 17.7935 151.917 17.4936C151.917 17.0937 151.817 16.7938 151.817 16.394Z" fill="#E9DECC"/>
<path d="M166.805 12.7952C165.806 12.7952 165.206 12.8952 165.206 13.0951C165.206 13.4949 165.406 13.8948 165.906 14.2946C166.405 14.6945 167.005 14.7945 167.804 14.7945C168.703 14.7945 169.303 14.6945 169.702 14.4946C170.102 14.2946 170.502 13.9948 170.702 13.7948C171.401 13.395 172.001 13.1951 172.5 13.295C172.8 13.295 173.1 13.395 173.4 13.5949C173.699 13.7948 173.799 13.9948 173.899 14.2946C173.999 14.5945 173.999 14.8944 173.999 15.1943C173.999 15.4942 173.799 15.7941 173.699 16.094C172.9 16.9936 172.001 17.5934 171.001 17.9933C170.002 18.3931 168.803 18.4931 167.404 18.4931C166.505 18.4931 165.706 18.3931 164.906 18.0932C164.107 17.7933 163.308 17.3935 162.608 16.8937C161.909 16.4938 161.409 15.7941 161.009 14.9944C160.61 14.1947 160.41 13.1951 160.41 12.1954C160.41 10.796 160.61 9.59641 161.009 8.69674C161.409 7.79708 161.909 6.99738 162.608 6.39761C163.208 5.79783 163.907 5.29802 164.806 5.09809C165.706 4.7982 166.505 4.69824 167.404 4.69824C168.304 4.69824 169.103 4.7982 170.002 4.99813C170.902 5.19805 171.601 5.5979 172.201 5.99776C172.9 6.49757 173.4 7.09734 173.799 7.79708C174.199 8.49682 174.299 9.29652 174.299 10.1962C174.299 11.0958 174.099 11.7956 173.599 12.2954C173.1 12.7952 172.201 13.0951 170.902 13.0951H166.805V12.7952ZM165.406 9.09659C165.306 9.49644 165.506 9.59641 165.906 9.59641H170.002C170.302 9.59641 170.402 9.49644 170.402 9.29652C170.402 9.09659 170.402 8.99663 170.302 8.89667C170.202 8.69674 170.002 8.49682 169.503 8.09697C169.103 7.69712 168.503 7.59716 167.804 7.59716C167.105 7.59716 166.505 7.79708 166.105 8.09697C165.806 8.59678 165.506 8.89667 165.406 9.09659Z" fill="#E9DECC"/>
<path d="M184.391 3.79858C185.29 3.79858 186.089 3.89855 186.989 4.09847C187.888 4.2984 188.587 4.69825 189.287 5.19806C189.986 5.79783 190.486 6.59753 190.886 7.4972C191.285 8.39686 191.485 9.49645 191.485 10.8959C191.485 12.2954 191.285 13.4949 190.886 14.3946C190.486 15.2943 189.986 16.094 189.287 16.5938C188.587 17.1936 187.788 17.6934 186.989 17.8933C186.089 18.1932 185.29 18.2931 184.391 18.2931C183.492 18.2931 182.692 18.1932 181.893 17.8933C181.093 17.5934 180.294 17.1936 179.595 16.5938C178.895 16.094 178.396 15.2943 177.996 14.3946C177.596 13.4949 177.396 12.2954 177.396 10.8959C177.396 9.59641 177.596 8.49682 177.996 7.4972C178.396 6.59753 178.895 5.79783 179.595 5.19806C180.194 4.69825 180.894 4.2984 181.793 4.09847C182.692 3.89855 183.591 3.79858 184.391 3.79858ZM184.391 7.29727C183.691 7.29727 183.092 7.59716 182.492 8.19693C181.893 8.79671 181.693 9.69637 181.693 10.9959C181.693 12.1954 181.993 13.1951 182.592 13.7948C183.192 14.4946 183.791 14.7945 184.391 14.7945C185.09 14.7945 185.69 14.4946 186.289 13.7948C186.889 13.0951 187.089 12.1954 187.089 10.9959C187.089 9.8963 186.789 8.99663 186.289 8.2969C185.69 7.59716 185.09 7.29727 184.391 7.29727Z" fill="#E9DECC"/>
<path d="M206.973 5.89777C206.873 5.59788 206.873 5.39796 206.973 5.09807C207.073 4.79818 207.173 4.59826 207.372 4.29837C207.572 4.09845 207.772 3.99848 208.072 3.79856C208.372 3.6986 208.771 3.59863 209.171 3.59863C209.471 3.59863 209.771 3.6986 210.07 3.89852C210.37 4.09845 210.57 4.29837 210.67 4.39833C210.87 4.59826 210.97 4.79818 211.07 5.09807C211.169 5.39796 211.169 5.59788 211.169 5.79781C211.269 6.49755 211.369 7.29725 211.469 8.19691C211.569 9.09657 211.569 9.99623 211.569 10.8959C211.469 11.7956 211.369 12.5953 211.269 13.4949C211.169 14.2946 210.87 15.0943 210.57 15.6941C210.27 16.3938 209.771 16.8936 209.171 17.2935C208.572 17.6933 207.772 17.7933 206.873 17.7933C205.174 17.7933 203.975 16.8936 203.276 15.1943C202.476 16.9936 201.277 17.7933 199.479 17.7933C198.18 17.7933 197.181 17.3935 196.581 16.5938C195.982 15.7941 195.482 14.6945 195.182 13.395C194.982 12.2954 194.982 10.9959 194.982 9.59638C194.982 8.19691 194.982 6.39758 195.082 5.79781C195.182 5.19803 195.482 4.59826 195.882 4.29837C196.281 3.99848 196.981 3.6986 197.38 3.6986C198.28 3.6986 198.779 3.89852 199.079 4.39833C199.379 4.89815 199.479 5.39796 199.479 5.89777C199.479 6.0977 199.479 6.39758 199.379 6.79743C199.379 7.19728 199.279 7.6971 199.279 8.19691C199.279 8.69672 199.279 9.2965 199.179 9.89627C199.179 10.496 199.179 10.9959 199.279 11.4957C199.279 11.9955 199.279 12.3953 199.379 12.7952C199.479 13.0951 199.579 13.295 199.779 13.295C199.978 13.295 200.078 13.0951 200.278 12.5953C200.378 12.1954 200.578 11.5956 200.778 10.9959C200.878 10.3961 200.978 9.69635 201.078 9.09657C201.177 8.39683 201.277 7.99698 201.377 7.6971C201.477 7.19728 201.677 6.79743 201.877 6.59751C202.177 6.39758 202.576 6.29762 203.276 6.29762C203.875 6.29762 204.375 6.39758 204.675 6.69747C204.974 6.99736 205.174 7.29725 205.274 7.79706C205.374 8.19691 205.474 8.79668 205.574 9.39646C205.674 9.99623 205.774 10.596 205.874 11.2957C205.974 11.8955 206.074 12.3953 206.273 12.7952C206.473 13.195 206.573 13.395 206.773 13.395C206.973 13.395 207.073 13.195 207.173 12.8951C207.273 12.5953 207.273 12.1954 207.273 11.5956C207.273 11.1958 207.273 10.596 207.273 9.99623C207.273 9.39646 207.273 8.79668 207.273 8.29687C207.173 7.79706 207.173 7.29725 207.173 6.8974C206.973 6.39758 206.973 6.0977 206.973 5.89777Z" fill="#E9DECC"/>
<path d="M85.4695 23.6911C83.9707 23.7911 83.2712 22.3916 83.2712 22.3916C82.4719 21.1921 82.272 16.5938 82.272 16.5938C82.272 16.5938 79.6741 20.7922 78.8747 21.5919C78.0754 22.3916 75.7772 22.1917 74.778 21.392C73.7788 20.5923 73.5789 18.593 74.3783 17.5934C75.1777 16.5938 80.7732 10.796 80.7732 10.796C80.7732 10.796 75.5774 10.696 74.778 10.2961C73.8787 9.39648 73.6789 6.29764 74.778 5.5979C75.6773 4.89816 82.1721 4.99813 82.1721 4.99813C82.1721 4.99813 82.1721 3.29876 82.272 2.59903C82.272 1.99925 83.0714 0 85.3696 0C87.6677 0 88.1673 1.09959 88.3672 1.79933C88.567 2.49906 88.3672 4.7982 88.3672 4.7982C88.3672 4.7982 92.7637 4.39835 93.8628 4.7982C95.2617 5.29801 95.5615 8.99663 94.9619 9.39648C93.5631 10.4961 89.6661 10.596 89.6661 10.596C89.6661 10.596 94.4623 14.2946 97.5599 15.6941C98.2593 16.1939 98.2593 17.9933 97.36 18.8929C96.4607 19.7926 95.9611 20.4923 94.1626 20.1924L88.1673 15.6941C88.1673 15.6941 88.567 20.7922 87.9675 21.8918C87.5678 22.9914 87.2681 23.5912 85.4695 23.6911Z" fill="#E9DECC"/>
<path d="M131.533 27.0899C131.933 26.89 132.532 26.79 133.531 26.79C134.531 26.79 138.627 26.79 139.626 26.79C140.626 26.79 142.724 27.0899 143.324 27.5897C143.923 27.9896 144.023 28.4894 144.023 29.0892C144.023 29.689 143.623 29.9888 143.124 30.2887C142.624 30.5886 142.025 30.6886 141.425 30.6886C141.125 30.6886 135.53 30.5886 135.33 30.5886C135.03 30.5886 134.83 30.7885 134.63 31.0884C134.431 31.3883 134.331 31.6882 134.331 31.9881V35.0869H140.426C140.426 35.0869 142.524 35.4868 142.424 36.7863C142.324 38.2857 140.426 38.6856 140.426 38.6856H134.331V42.6841C134.331 43.2839 134.331 43.8836 134.231 44.3834C134.131 44.8833 134.031 45.2831 133.831 45.683C133.631 46.0828 133.431 46.2827 133.032 46.4827C132.632 46.6826 132.232 46.7825 131.533 46.7825C131.033 46.7825 130.534 46.6826 130.234 46.5826C129.834 46.4827 129.634 46.2827 129.435 46.0828C129.235 45.7829 129.135 45.583 129.035 45.1831C128.935 44.8833 128.835 44.5834 128.735 44.1835C128.735 43.7837 128.735 43.2839 128.635 42.4842C128.635 41.7844 128.735 32.4879 128.735 31.7882C128.735 31.0884 128.735 30.6886 128.835 30.3887C129.035 29.489 129.335 28.7893 129.834 28.2895C130.434 27.5897 131.033 27.1899 131.533 27.0899Z" fill="#E9DECC"/>
<path d="M151.717 30.9883C152.516 30.9883 153.316 31.0882 154.115 31.2882C154.914 31.4881 155.614 31.8879 156.313 32.3878C157.013 32.9875 157.512 33.7872 157.812 34.6869C158.112 35.5866 158.312 36.6861 158.312 38.0856C158.312 39.4851 158.112 40.6846 157.812 41.5843C157.412 42.484 156.913 43.2837 156.313 43.7835C155.614 44.3833 154.914 44.8831 154.115 45.083C153.316 45.3829 152.516 45.4828 151.717 45.4828C150.917 45.4828 150.118 45.3829 149.319 45.083C148.519 44.7831 147.82 44.3833 147.22 43.7835C146.521 43.2837 146.021 42.484 145.722 41.5843C145.322 40.6846 145.222 39.4851 145.222 38.0856C145.222 36.7861 145.422 35.6865 145.722 34.6869C146.021 33.6873 146.621 32.9875 147.22 32.3878C147.82 31.8879 148.519 31.4881 149.319 31.2882C150.118 31.0882 150.917 30.9883 151.717 30.9883ZM151.717 34.387C151.017 34.387 150.518 34.6869 149.918 35.2867C149.419 35.8864 149.119 36.7861 149.119 38.0856C149.119 39.2852 149.419 40.2848 150.018 40.8846C150.618 41.5843 151.117 41.8842 151.717 41.8842C152.416 41.8842 152.916 41.5843 153.515 40.8846C154.015 40.1848 154.315 39.2852 154.315 38.0856C154.315 36.986 154.015 36.0864 153.515 35.3866C153.016 34.6869 152.416 34.387 151.717 34.387Z" fill="#E9DECC"/>
<path d="M163.707 31.4881C164.507 31.3882 165.106 31.4881 165.406 31.788C165.806 32.0879 166.005 32.3878 166.205 32.7877C166.605 32.5877 166.905 32.4878 167.304 32.2878C167.704 32.1879 168.204 32.0879 168.803 32.0879C169.802 32.0879 170.602 32.1879 171.201 32.3878C171.901 32.5877 172.4 32.8876 172.9 33.2875C173.3 33.6873 173.699 34.1871 173.899 34.587C174.099 34.9868 174.299 35.4866 174.399 35.8865C174.399 36.0864 174.399 36.2863 174.399 36.5862C174.399 36.8861 174.299 37.086 174.099 37.3859C173.999 37.5859 173.799 37.7858 173.599 37.8857C173.3 38.0857 173 38.1856 172.5 38.2856C171.801 38.3856 171.301 38.2856 171.001 37.9857C170.702 37.6858 170.502 37.3859 170.402 36.9861C170.302 36.7862 170.102 36.5862 169.802 36.2863C169.503 35.9865 169.003 35.8865 168.304 35.9865C167.904 35.9865 167.604 36.0864 167.404 36.2863C167.105 36.4863 167.005 36.6862 166.905 36.7862C166.805 37.086 166.705 37.286 166.605 37.4859C166.505 37.6858 166.505 37.8857 166.505 38.0857C166.505 38.8854 166.505 39.6851 166.405 40.4848C166.405 41.2845 166.305 42.1841 166.305 42.8839C166.205 43.6836 165.905 44.2833 165.406 44.5832C164.906 44.9831 164.307 45.083 163.507 45.083C162.808 45.083 162.208 44.8831 161.809 44.4833C161.409 44.0834 161.209 43.5836 161.209 42.7839C161.209 41.4844 161.209 39.985 161.309 38.4855C161.409 36.9861 161.409 35.3867 161.309 33.8872C161.309 33.5874 161.309 33.2875 161.409 32.9876C161.409 32.5877 161.609 32.2878 161.709 32.0879C161.909 31.788 162.109 31.5881 162.408 31.3882C162.708 31.5881 163.108 31.4881 163.707 31.4881Z" fill="#E9DECC"/>
<path d="M182.792 39.9849C181.693 39.9849 181.193 40.0849 181.193 40.2848C181.193 40.6846 181.393 41.0845 181.893 41.4843C182.392 41.8842 182.992 41.9842 183.791 41.9842C184.691 41.9842 185.29 41.8842 185.79 41.6843C186.189 41.4843 186.589 41.1845 186.889 40.9845C187.588 40.5847 188.188 40.3848 188.787 40.4847C189.187 40.4847 189.487 40.5847 189.687 40.7846C189.986 40.9845 190.086 41.1845 190.186 41.4843C190.286 41.7842 190.286 42.0841 190.286 42.384C190.286 42.6839 190.086 42.9838 189.986 43.2837C189.187 44.1833 188.288 44.7831 187.288 45.183C186.289 45.5828 185.09 45.6828 183.691 45.6828C182.792 45.6828 181.993 45.5828 181.093 45.2829C180.294 44.983 179.495 44.5832 178.795 44.0834C178.096 43.6835 177.496 42.9838 177.097 42.1841C176.697 41.3844 176.497 40.3848 176.497 39.3851C176.497 37.9857 176.697 36.7861 177.097 35.8864C177.496 34.9868 177.996 34.1871 178.795 33.5873C179.395 32.9875 180.194 32.4877 180.993 32.2878C181.893 31.9879 182.792 31.8879 183.591 31.8879C184.491 31.8879 185.39 31.9879 186.189 32.1878C187.089 32.3878 187.788 32.7876 188.388 33.1875C189.087 33.6873 189.687 34.287 190.086 34.9868C190.486 35.6865 190.586 36.4862 190.586 37.3859C190.586 38.2855 190.386 38.9853 189.886 39.4851C189.387 39.9849 188.488 40.2848 187.189 40.2848H182.792V39.9849ZM181.393 36.2863C181.293 36.6861 181.493 36.7861 181.893 36.7861H186.089C186.389 36.7861 186.489 36.6861 186.489 36.4862C186.489 36.2863 186.489 36.1863 186.389 36.0864C186.289 35.8864 185.99 35.6865 185.59 35.2867C185.19 34.8868 184.591 34.7869 183.891 34.7869C183.192 34.7869 182.592 34.9868 182.193 35.2867C181.693 35.6865 181.493 35.9864 181.393 36.2863Z" fill="#E9DECC"/>
<path d="M197.081 40.6847C197.38 41.0845 197.68 41.2844 198.18 41.3844C198.579 41.4844 199.079 41.5843 199.679 41.6843C200.078 41.6843 200.478 41.5843 200.778 41.4844C201.077 41.3844 201.177 41.1845 201.177 40.8846C201.277 40.4847 201.078 40.2848 200.678 40.0849C200.278 39.885 199.779 39.785 199.179 39.685C198.48 39.4851 197.88 39.2852 197.281 39.0853C196.681 38.8853 196.181 38.5855 195.782 38.1856C195.382 37.8857 194.982 37.5858 194.683 37.086C194.383 36.5862 194.283 35.9864 194.283 35.2867C194.283 34.1871 194.783 33.1875 195.682 32.3878C196.581 31.5881 197.88 31.1882 199.579 31.1882C200.378 31.1882 201.078 31.1882 201.677 31.2882C202.277 31.3882 202.776 31.5881 203.276 31.788C203.675 31.9879 204.075 32.1879 204.375 32.4877C204.675 32.7876 204.874 32.9876 204.974 33.2874C205.274 33.7873 205.274 34.2871 205.174 34.587C205.074 34.9868 204.874 35.2867 204.575 35.4866C204.175 35.7865 203.775 35.8865 203.176 35.8865C202.576 35.8865 202.077 35.6865 201.677 35.1867C201.477 34.8868 201.277 34.7869 200.978 34.6869C200.678 34.587 200.378 34.587 200.078 34.587C199.679 34.587 199.479 34.6869 199.279 34.7869C199.079 34.8868 198.979 35.0868 198.979 35.3867C198.979 35.6865 199.079 35.8865 199.379 36.0864C199.679 36.2863 199.978 36.3863 200.478 36.4862C200.878 36.6862 201.377 36.7861 201.777 36.8861C202.177 36.9861 202.476 37.086 202.776 37.186C204.775 37.8857 205.774 39.1852 205.774 41.1845C205.774 41.6843 205.674 42.1841 205.474 42.6839C205.274 43.0838 204.874 43.5836 204.475 43.9834C204.075 44.3833 203.476 44.5832 202.776 44.7831C202.077 44.9831 201.177 45.083 200.178 45.183C199.079 45.183 198.28 45.083 197.58 44.9831C196.881 44.8831 196.281 44.6832 195.782 44.3833C195.382 44.1834 194.982 43.9834 194.683 43.5836C194.383 43.1837 194.083 42.8838 193.983 42.484C193.583 42.0841 193.484 41.5843 193.484 40.9846C193.484 40.3848 193.683 39.9849 193.983 39.685C194.383 39.3852 194.683 39.2852 195.082 39.1852C195.482 39.1852 195.782 39.1852 195.982 39.2852C196.281 39.3852 196.481 39.5851 196.681 39.785C196.681 40.1849 196.881 40.4847 197.081 40.6847Z" fill="#E9DECC"/>
<path d="M211.07 32.1879C211.17 31.4881 211.369 29.089 211.469 28.6892C211.669 27.6895 211.869 27.2897 212.468 26.8898C213.068 26.49 213.668 26.49 214.367 26.59C215.266 26.6899 215.866 26.9898 216.066 27.5896C216.365 28.1894 216.465 28.7891 216.365 29.4889L216.066 31.788C216.465 31.788 217.165 31.788 217.465 31.788C217.764 31.788 218.064 31.788 218.464 31.888C218.763 32.0879 218.963 32.2878 219.063 32.4877C219.163 32.6877 219.263 32.9876 219.263 33.3874C219.263 34.0871 219.063 34.8868 218.564 34.9868C218.164 35.1867 215.966 35.2867 215.966 35.2867C215.966 35.2867 215.566 40.3848 216.265 41.4844C216.565 41.9842 217.764 41.8842 217.964 41.8842C218.664 41.8842 219.163 41.9842 219.463 42.1841C219.763 42.384 219.863 42.584 219.963 42.9838C220.062 43.5836 219.963 44.0834 219.663 44.4832C219.363 44.8831 219.063 45.183 218.564 45.3829C218.064 45.6828 217.465 45.7828 216.865 45.8827C216.265 45.8827 215.666 45.9827 214.967 45.9827C213.867 45.7828 212.868 45.2829 212.169 44.4832C211.469 43.6835 211.17 42.0841 211.07 40.9846C210.97 39.885 210.97 35.3867 210.97 35.3867C210.97 35.3867 208.971 35.3867 208.472 35.0868C207.972 34.7869 207.772 34.0871 207.772 33.7873C207.772 33.0875 207.972 32.6877 208.472 32.4877C208.771 32.2878 210.37 32.1879 211.07 32.1879Z" fill="#E9DECC"/>
</svg>
