<svg width="1200" height="107" viewBox="0 0 1200 107" fill="none" xmlns="http://www.w3.org/2000/svg">
<g opacity="0.8">
<path fill-rule="evenodd" clip-rule="evenodd" d="M80.8081 85.5039C80.8146 85.4465 80.8223 85.3712 80.8308 85.2759C80.8671 84.8711 80.9025 84.2977 80.9349 83.5684C80.9991 82.1192 81.0433 80.2416 81.0731 78.2478C81.1324 74.27 81.1325 69.9848 81.1325 68.0624C81.1325 66.1424 81.1325 61.1294 81.0729 56.1826C81.0107 51.0229 80.8845 46.5222 80.7027 45.2496C80.5891 44.4544 80.4785 43.7388 80.3655 43.0847C80.3277 43.2395 80.2898 43.3956 80.2519 43.5528C79.4812 46.7537 78.8061 50.0492 78.6003 51.4896L73.6506 50.7824C74.1307 47.4224 76.531 36.8624 77.4912 35.4224C77.6174 35.2331 77.7354 35.052 77.8472 34.8804C78.5859 33.7466 79.0576 33.0224 79.8915 33.0224C81.8118 33.0224 82.772 33.9824 83.7321 36.3824C84.6923 38.7824 85.1724 41.1824 85.6524 44.5424C86.1325 47.9024 86.1325 64.2224 86.1325 68.0624C86.1325 71.9024 86.1325 85.3424 85.6524 86.7824C85.6524 88.2224 85.6524 90.1424 86.1325 93.0224C86.6126 94.4624 87.0927 95.9024 88.0528 97.3424C89.0129 98.3024 89.9731 99.2624 91.4133 100.222C92.8535 101.182 94.7738 101.662 96.6941 101.662C101.015 101.182 104.375 99.7424 106.296 97.3424C108.216 94.9424 109.176 92.0624 109.656 88.2224L109.656 88.2211C110.136 83.4215 110.616 78.6219 111.096 72.8624C111.576 67.1025 111.576 61.3426 111.576 55.1027C111.576 49.3427 111.096 43.5824 110.136 38.3024C109.656 33.0224 107.736 27.7424 105.335 23.4224C103.415 19.1024 100.535 15.7424 96.6941 12.8624C92.8535 10.4624 88.0528 9.02242 81.8118 9.02242C76.051 9.02242 71.2502 10.4624 67.4096 13.8224C64.9206 15.9999 62.6333 18.9839 60.6782 22.6436C59.6166 24.6309 58.6529 26.8175 57.8081 29.1824C56.9804 26.6996 56.0956 24.5022 55.134 22.5507C53.307 18.8432 51.2029 16.0238 48.6867 13.8224C44.3661 10.4624 39.5653 9.02242 33.3244 9.02242C28.0436 9.02242 23.7229 10.4624 20.3624 12.3824C16.5218 15.2624 13.6413 18.6224 11.721 22.4624C9.32067 26.7824 7.88044 32.0624 6.9203 37.3424C5.96015 43.1024 5.48007 48.3824 5.48007 54.1424C5 60.3824 5 66.1424 5 71.9024C5 77.6624 6.44022 87.2624 6.44022 87.2624C1.49556 88.0042 1.49552 88.004 1.49548 88.0037L1.49039 87.9695L1.47727 87.8808C1.46599 87.8041 1.44976 87.6929 1.42929 87.5506C1.38835 87.266 1.33038 86.8564 1.26105 86.3481C1.12256 85.3326 0.937941 83.9175 0.753077 82.3156C0.390438 79.1732 7.87263e-08 75.09 7.87263e-08 71.9024V71.8291C-8.98118e-06 66.1685 -1.85072e-05 60.3079 0.480246 53.9498C0.490885 47.962 0.998208 42.4602 1.98835 36.5203L1.99439 36.484L2.00097 36.4478C2.99345 30.9901 4.54146 25.1281 7.29797 20.1287C9.60397 15.5579 13.0061 11.6491 17.3627 8.3822L17.6117 8.19546L17.882 8.04104C21.9284 5.72917 27.0968 4.02242 33.3244 4.02242C40.4537 4.02242 46.3965 5.70744 51.7561 9.87543L51.8702 9.96414L51.979 10.0593C54.3074 12.0963 56.2794 14.5072 57.9868 17.3426C59.7974 14.5022 61.8513 12.0418 64.1174 10.0593C69.097 5.70283 75.181 4.02242 81.8118 4.02242C88.867 4.02242 94.6106 5.66444 99.3438 8.62225L99.5239 8.73479L99.6938 8.8622C104.053 12.1307 107.496 16.0735 109.812 21.1857C112.39 25.8781 114.513 31.6632 115.094 37.6223C116.088 43.1696 116.576 49.1537 116.576 55.1024V55.212C116.576 61.3742 116.576 67.31 116.079 73.2777C115.596 79.0787 115.112 83.9129 114.633 88.7077L114.625 88.7814L114.618 88.8427C114.074 93.1923 112.908 97.0813 110.2 100.466C107.107 104.331 102.212 106.08 97.2462 106.632L96.971 106.662H96.6941C94.0323 106.662 91.0845 106.012 88.6401 104.383C86.7861 103.147 85.5341 101.895 84.5759 100.937L84.1674 100.528L83.8927 100.116C82.5572 98.1132 81.8971 96.1297 81.4352 94.7419C81.4196 94.6951 81.4043 94.6491 81.3892 94.6037L81.2651 94.2315L81.2006 93.8445C80.6528 90.5583 80.6524 88.3156 80.6524 86.7824V85.9709L80.8081 85.5039ZM44.3661 61.3424C44.3661 61.3424 41.4856 45.0224 41.0056 42.1424C40.4431 40.4554 39.8807 38.933 39.4147 37.6719C39.0853 36.7801 38.804 36.0189 38.6052 35.4224C37.645 33.5024 36.6849 33.0224 35.7247 33.0224C34.2845 33.0224 32.8443 33.9824 31.8841 36.3824C31.4041 38.3024 29.4838 51.7424 29.4838 56.0624V87.2624C29.9638 91.1024 29.4838 93.9824 27.5635 96.8624C26.1233 99.2624 23.7229 100.702 19.8823 100.702C17.4819 100.702 12.2011 99.2624 9.80074 96.3824C7.40037 93.5024 6.44022 87.2624 6.44022 87.2624L1.49548 88.0037L1.49695 88.0135L1.49838 88.0228L6.44022 87.2624C1.49838 88.0228 1.4985 88.0236 1.49862 88.0243L1.49888 88.026L1.50094 88.0393L1.505 88.065L1.51764 88.1432C1.52809 88.2069 1.54266 88.2935 1.56148 88.4007C1.59907 88.6148 1.65391 88.9126 1.72713 89.2743C1.87267 89.9933 2.09551 90.9885 2.40714 92.0963C2.97058 94.0993 4.03456 97.2736 5.95988 99.5836C7.95637 101.979 10.8005 103.447 13.0861 104.304C15.4009 105.172 17.9271 105.702 19.8823 105.702C25.1755 105.702 29.3101 103.586 31.7867 99.5408C34.4122 95.5537 35.0038 91.5152 34.4838 86.9648V56.0624C34.4838 54.2852 34.9132 50.1753 35.4619 45.9692C35.6102 44.8327 35.7628 43.7209 35.9107 42.6901C35.9871 42.9106 36.0637 43.1343 36.1404 43.361C36.4479 45.1725 37.2234 49.6018 37.9413 53.6877C38.3315 55.9087 38.7067 58.0396 38.9844 59.6151L39.3765 61.8391C39.444 63.6272 39.8313 66.8609 40.2602 69.7553C40.5077 71.4256 40.7909 73.1295 41.0814 74.5978C41.3443 75.927 41.6884 77.4705 42.1242 78.5596C43.2416 81.3528 45.001 84.4078 47.0718 86.4782C49.7161 89.1221 53.5531 90.3424 57.8081 90.3424C62.2503 90.3424 65.7033 89.0316 68.489 86.9426L69.0605 86.5141L69.4891 85.9427C69.5273 85.8918 69.5658 85.8405 69.6046 85.7888C70.983 83.9523 72.7641 81.5793 73.9722 78.5596C74.2822 77.7848 74.5187 76.7145 74.684 75.9298C74.8838 74.9807 75.1045 73.8051 75.3335 72.5114C75.7928 69.9172 76.3091 66.7117 76.791 63.61C77.2738 60.5024 77.726 57.4734 78.0572 55.223C78.2229 54.0972 78.3585 53.1651 78.4527 52.514C78.4999 52.1884 78.5367 51.9329 78.5617 51.7586L78.6001 51.4909L78.6003 51.4896C78.6003 51.4894 78.6003 51.4896 73.6506 50.7824C73.6506 50.7824 70.2901 74.3024 69.3299 76.7024C68.3698 79.1024 66.9296 81.0223 65.4894 82.9423C63.569 84.3824 61.1687 85.3424 57.8081 85.3424C54.4476 85.3424 52.0473 84.3824 50.607 82.9424C49.1668 81.5024 47.7266 79.1024 46.7664 76.7024C45.8063 74.3024 44.3661 63.7424 44.3661 61.3424Z" fill="white"/>
<path fill-rule="evenodd" clip-rule="evenodd" d="M195.612 73.5403C196.835 74.4365 197.282 75.3612 197.729 76.7022C198.209 78.1422 198.209 79.1022 198.209 81.0221C198.209 81.9821 197.782 82.9422 197.355 83.9022C197.142 84.3822 196.929 84.8622 196.769 85.3422C192.928 89.6622 188.607 92.5422 184.287 93.9822C179.486 95.9022 173.725 96.3822 167.484 96.3822C163.164 96.3822 159.323 95.9022 155.482 94.4622C151.642 93.0222 147.801 91.1022 144.441 88.7022C141.08 86.7822 138.68 83.4222 136.759 79.5822C134.839 75.7422 133.879 70.9422 133.879 66.1422C133.879 59.4222 134.839 53.6622 136.759 49.3422C138.68 45.0222 141.08 41.1822 144.441 38.3022C147.321 35.4222 150.682 33.0222 155.002 32.0622C159.323 30.6222 163.164 30.1422 167.484 30.1422C171.805 30.1422 175.645 30.6222 179.966 31.5822C184.287 32.5422 187.647 33.9822 190.528 36.3822C193.888 38.7822 196.289 41.6622 198.209 45.0222C200.129 48.3822 200.609 52.2222 200.609 56.5422C200.609 60.8622 199.649 64.2222 197.249 66.6222C196.796 67.0747 196.275 67.493 195.69 67.8741C194.526 68.6311 193.105 69.2407 191.453 69.6777C191.306 69.7164 191.158 69.7538 191.008 69.7898C189.183 70.2276 187.092 70.4622 184.767 70.4622H163.164V69.5022C161.017 69.5022 159.35 69.5982 158.164 69.7901C156.696 70.0274 155.962 70.4115 155.962 70.9422C155.962 72.8622 156.923 74.7822 159.323 76.7022C161.723 78.6222 164.604 79.1022 168.444 79.1022C172.765 79.1022 175.645 78.6222 177.566 77.6622C178.805 77.0428 180.044 76.2235 181.025 75.4622C181.564 75.0437 182.026 74.6428 182.366 74.3022C183.196 73.8284 183.996 73.413 184.767 73.0633C187.12 71.9961 189.2 71.5407 191.008 71.9022C192.448 71.9022 193.888 72.3822 195.328 73.3422C195.427 73.4082 195.522 73.4742 195.612 73.5403ZM200.065 70.8274C200.423 71.2095 200.751 71.6213 201.049 72.0684C201.785 73.1732 202.193 74.2824 202.472 75.1209C203.211 77.3373 203.21 79.0125 203.209 80.8128C203.209 80.8824 203.209 80.9522 203.209 81.0222C203.209 82.7818 202.633 84.2675 202.284 85.1055C202.057 85.6509 201.912 85.9699 201.805 86.2055C201.679 86.483 201.605 86.6446 201.512 86.9236L201.187 87.8972L200.506 88.6643C196.207 93.4991 191.222 96.9101 186.007 98.6789C180.315 100.921 173.811 101.382 167.484 101.382C162.776 101.382 158.298 100.858 153.727 99.1439C149.636 97.6099 145.464 95.5457 141.731 92.9102C137.233 90.2522 134.34 85.9223 132.287 81.8186C129.949 77.1429 128.879 71.5433 128.879 66.1422C128.879 59.025 129.885 52.4988 132.191 47.3113C134.251 42.6759 136.987 38.1582 141.039 34.6336C144.234 31.468 148.286 28.4989 153.658 27.2404C158.484 25.6615 162.808 25.1422 167.484 25.1422C172.22 25.1422 176.427 25.6739 181.051 26.7013C185.832 27.7636 189.953 29.442 193.583 32.4207C197.538 35.2798 200.355 38.7011 202.55 42.5412C205.12 47.0388 205.609 51.9351 205.609 56.5422C205.609 61.5415 204.498 66.445 200.784 70.158C200.553 70.3894 200.313 70.6125 200.065 70.8274ZM158.843 54.1422C156.923 54.1422 155.962 53.6622 156.443 51.7422C156.655 51.3169 157.056 50.7975 157.562 50.1421C158.199 49.318 159.001 48.279 159.803 46.9422C162.203 45.5022 164.604 44.5422 167.964 44.5422C171.325 44.5422 174.205 45.5022 176.126 46.9422C178.526 48.8622 179.486 49.8222 179.966 50.7822C180.446 51.2622 180.446 51.7422 180.446 52.7022C180.446 53.6622 179.966 54.1422 178.526 54.1422H158.843ZM178.537 49.1422C178.585 49.1371 178.612 49.137 178.614 49.1382C178.615 49.1394 178.591 49.1419 178.537 49.1422Z" fill="white"/>
<path fill-rule="evenodd" clip-rule="evenodd" d="M278.769 29.0819L278.937 29.2258C283.071 32.7686 285.848 37.3397 287.933 42.0313C290.223 47.1811 291.245 53.2063 291.245 60.3823C291.245 67.4995 290.239 74.0257 287.933 79.2132C285.75 84.1257 282.929 88.1173 278.937 91.5388C275.318 94.6402 270.86 97.5344 266.047 98.7839C261.197 100.379 256.856 100.902 252.16 100.902C247.452 100.902 242.974 100.378 238.402 98.664C234.293 97.1234 229.938 94.9872 226.025 91.6775C221.686 88.5027 218.886 83.7571 216.866 79.2132C214.56 74.0257 213.554 67.4995 213.554 60.3823C213.554 53.6069 214.601 47.6826 216.793 42.2051L216.828 42.1175L216.866 42.0313C218.951 37.3397 221.728 32.7686 225.862 29.2258L225.889 29.2032L225.915 29.1809C229.295 26.3651 233.362 24.0236 238.593 22.8613C243.24 21.8288 247.925 21.3023 252.16 21.3023C256.895 21.3023 261.102 21.8339 265.726 22.8613C270.964 24.0251 274.953 26.3567 278.589 28.9534L278.769 29.0819ZM229.116 87.7422C232.477 90.6222 236.317 92.5423 240.158 93.9823C243.998 95.4223 247.839 95.9023 252.16 95.9023C256.48 95.9023 260.321 95.4223 264.642 93.9823C268.482 93.0223 272.323 90.6222 275.683 87.7422C279.044 84.8623 281.444 81.5023 283.364 77.1823C285.285 72.8623 286.245 67.1023 286.245 60.3823C286.245 53.6623 285.285 48.3823 283.364 44.0623C281.444 39.7423 279.044 35.9023 275.683 33.0223C272.323 30.6223 268.962 28.7023 264.642 27.7423C260.321 26.7823 256.48 26.3023 252.16 26.3023C248.319 26.3023 243.998 26.7823 239.678 27.7423C235.357 28.7023 231.997 30.6223 229.116 33.0223C225.756 35.9023 223.355 39.7423 221.435 44.0623C219.515 48.8623 218.554 54.1423 218.554 60.3823C218.554 67.1023 219.515 72.8623 221.435 77.1823C223.355 81.5023 225.756 85.3423 229.116 87.7422ZM247.189 70.4222L247.314 70.568C249.579 73.2094 251.184 73.6223 252.16 73.6223C253.724 73.6223 255.311 73.1037 257.485 70.568C259.222 68.5417 260.122 65.6683 260.122 60.3823C260.122 56.2389 259.054 53.0569 257.44 50.6564C254.989 48.2761 253.416 47.6223 252.16 47.6223C250.494 47.6223 248.814 48.2377 246.573 50.4781C245.184 51.8673 244.198 54.398 244.198 60.3823C244.198 65.5073 245.507 68.7402 247.054 70.2865L247.189 70.4222ZM261.281 47.4223C263.681 50.7823 265.122 55.1023 265.122 60.3823C265.122 66.1423 264.161 70.4623 261.281 73.8223C258.401 77.1823 255.52 78.6223 252.16 78.6223C249.279 78.6223 246.399 77.1823 243.518 73.8223C240.638 70.9423 239.198 66.1423 239.198 60.3823C239.198 54.1423 240.158 49.8223 243.038 46.9423C245.919 44.0623 248.799 42.6223 252.16 42.6223C255.52 42.6223 258.401 44.5423 261.281 47.4223Z" fill="white"/>
<path fill-rule="evenodd" clip-rule="evenodd" d="M361.681 25.5165L362.031 25.1664C363.173 24.0249 364.556 23.154 365.52 22.5473C365.761 22.3957 365.976 22.2605 366.154 22.1418L366.711 21.7704L367.346 21.5587C369.036 20.9956 371.532 20.3422 374.208 20.3422C376.82 20.3422 379.208 21.2264 381.302 22.6218C383.154 23.8565 384.393 25.0947 384.934 25.6361L384.944 25.6464C386.656 27.3581 387.458 29.116 388.073 30.9609C388.737 32.9534 388.802 34.4569 388.809 35.5436C389.281 38.8821 389.751 42.659 390.219 46.87C390.73 51.4661 390.73 56.019 390.73 60.2587V60.6592L390.699 60.9345C390.457 63.1105 390.216 65.1638 389.976 67.1996L389.975 67.2065C389.735 69.2485 389.497 71.2729 389.259 73.4145L389.255 73.4485L389.251 73.4825C388.687 77.9961 387.048 82.3375 385.464 85.5317C383.53 89.9549 380.376 93.0001 376.981 95.2627C372.786 98.0592 367.638 98.5022 363.166 98.5022C358.157 98.5022 353.614 97.1586 349.779 94.3625C348.309 93.2906 346.991 92.0409 345.815 90.638C344.524 92.1626 343.082 93.4937 341.473 94.6104C337.545 97.3349 333.021 98.5022 328.121 98.5022C320.901 98.5022 314.331 96.2513 310.199 90.7425C306.874 86.3103 304.177 80.841 302.589 73.43L302.572 73.3536L302.558 73.2768C301.517 67.5503 301.517 60.9325 301.518 54.4437L301.518 54.1174C301.518 50.7734 301.518 46.8975 301.578 43.4929C301.637 40.2314 301.753 36.9559 302.066 35.0801C302.658 31.5248 304.445 27.4124 307.556 24.9211C309.152 23.4191 311.073 22.4457 312.73 21.8432C314.476 21.2086 316.379 20.8222 318.039 20.8222C320.499 20.8222 322.916 21.084 325.093 21.9744C327.432 22.931 329.223 24.5021 330.488 26.6095C332.48 29.9294 333.121 33.2583 333.121 36.3822V36.4007C333.121 36.9524 333.121 37.7356 333.034 38.7117C333.617 37.5747 334.323 36.5504 335.147 35.7264L335.497 35.3764L335.909 35.1018C338.003 33.7064 340.872 32.3422 345.404 32.3422C348.477 32.3422 352.706 32.773 355.66 35.7264C357.099 37.1656 358.303 38.759 359.129 40.8674C359.126 40.5114 359.126 40.1771 359.126 39.8685L359.126 39.7422C359.126 39.2778 359.08 39.0909 359.037 38.9192L359.036 38.9151C359.034 38.9072 359.029 38.8915 359.023 38.8685C358.973 38.6921 358.801 38.0884 358.708 37.3333C358.46 36.4613 358.286 35.5106 358.286 34.4622C358.286 33.1556 358.556 32.0008 358.903 30.9609C359.542 29.0451 360.234 27.6875 361.407 25.9284L361.681 25.5165ZM363.646 36.3822C363.166 34.9422 363.166 33.9822 363.646 32.5422C364.126 31.1022 364.607 30.1422 365.567 28.7022C366.27 27.9995 366.972 27.5539 367.864 26.989C368.19 26.7822 368.541 26.5595 368.927 26.3022C370.367 25.8222 372.288 25.3422 374.208 25.3422C375.648 25.3422 377.088 25.8222 378.529 26.7822C379.969 27.7422 380.929 28.7022 381.409 29.1822C382.369 30.1422 382.849 31.1022 383.329 32.5422C383.809 33.9822 383.809 34.9422 383.809 35.9022C384.29 39.2622 384.77 43.1022 385.25 47.4222C385.73 51.7422 385.73 56.0621 385.73 60.382C385.49 62.542 385.25 64.5822 385.01 66.6222C384.77 68.6622 384.53 70.7022 384.29 72.8622C383.809 76.7022 382.369 80.5422 380.929 83.4222C379.489 86.7822 377.088 89.1822 374.208 91.1022C371.328 93.0222 367.487 93.5022 363.166 93.5022C357.012 93.5022 352.222 91.0455 348.798 86.338C347.681 84.803 346.71 83.0287 345.884 81.0222C344.986 83.0406 343.984 84.797 342.872 86.3037C339.22 91.2467 334.376 93.5022 328.121 93.5022C321.88 93.5022 317.079 91.5822 314.199 87.7422C311.318 83.9022 308.918 79.1022 307.478 72.3822C306.518 67.1022 306.518 60.8622 306.518 54.1422C306.518 47.4223 306.518 38.7822 306.998 35.9022C307.478 33.0222 308.918 30.1422 310.838 28.7022C312.759 26.7822 316.119 25.8222 318.039 25.8222C322.36 25.8222 324.76 26.7822 326.201 29.1822C327.641 31.5822 328.121 33.9822 328.121 36.3822C328.121 37.3422 328.121 38.7823 327.641 40.7022C327.641 41.6087 327.534 42.6222 327.421 43.6922C327.294 44.8885 327.161 46.1554 327.161 47.4222C327.161 49.8222 327.161 52.7022 326.681 55.5822C326.681 58.4622 326.681 60.8622 327.161 63.2622C327.161 64.57 327.161 65.7354 327.238 66.8358C327.239 66.8501 327.24 66.8644 327.241 66.8786C327.254 67.0446 327.267 67.2091 327.283 67.3725C327.292 67.4619 327.301 67.5509 327.311 67.6396C327.382 68.271 327.487 68.8866 327.641 69.5022C328.121 70.9422 328.601 71.9022 329.561 71.9022C330.521 71.9022 331.001 70.9422 331.961 68.5422C331.972 68.4999 331.983 68.457 331.994 68.4138C332.027 68.2852 332.062 68.1525 332.098 68.0161C332.107 67.9841 332.116 67.9518 332.125 67.9193C332.18 67.7151 332.24 67.5029 332.303 67.2834C332.825 65.4708 333.594 63.1666 334.362 60.8623C334.602 59.4223 334.842 57.8622 335.082 56.3022C335.322 54.7422 335.562 53.1822 335.802 51.7422C335.322 47.9022 335.802 45.9822 336.282 44.5422C336.762 42.1422 337.722 40.2222 338.682 39.2622C340.123 38.3022 342.043 37.3422 345.404 37.3422C348.284 37.3422 350.684 37.8222 352.125 39.2622C353.565 40.7022 354.525 42.1422 355.005 44.5422C355.485 46.4622 355.965 49.3422 356.445 52.2222L357.885 60.8622C358.284 63.253 358.683 65.3131 359.356 67.0423C359.376 67.0944 359.396 67.1461 359.417 67.1976C359.538 67.4959 359.667 67.7841 359.806 68.0622C360.766 69.9822 361.246 70.9422 362.206 70.9422C363.166 70.9422 363.646 69.9822 364.126 68.5422C364.305 68.0074 364.417 67.4064 364.487 66.7146C364.5 66.5844 364.512 66.4511 364.523 66.3143C364.606 65.2209 364.606 63.9115 364.606 62.3024V46.4622C364.126 44.0622 364.126 41.6623 364.126 39.7423C364.126 38.6176 363.962 37.9869 363.825 37.4646C363.729 37.0952 363.646 36.7799 363.646 36.3822Z" fill="white"/>
</g>
<g opacity="0.8">
<path fill-rule="evenodd" clip-rule="evenodd" d="M775.872 88.2223C775.872 86.7822 775.872 83.9023 775.41 80.5424C775.41 78.8624 775.526 66.8624 775.641 54.8624C775.756 42.8624 775.872 30.8624 775.872 29.1824C775.872 25.8224 775.872 23.9024 776.333 22.4624C777.256 18.1424 778.64 14.7824 780.947 12.3824C783.716 9.50238 786.023 8.06238 788.33 7.10238C789.714 6.14238 792.944 5.66238 797.558 5.66238H825.703C830.317 5.66238 840.007 7.10238 842.775 9.50238C845.544 11.4224 846.005 13.8224 846.005 16.7024C846.005 19.5824 844.16 21.0224 841.853 22.4624C839.546 23.4224 836.777 23.9024 834.009 23.9024C833.247 23.9024 825.073 23.7569 817.726 23.6261C811.727 23.5194 806.278 23.4224 805.863 23.4224C804.479 23.4224 803.556 24.3824 802.633 25.8224C801.71 27.2624 801.249 28.7024 801.249 30.1424V45.0224H829.395C829.395 45.0224 838.623 46.9424 838.623 53.1824C838.161 60.3824 829.395 62.3024 829.395 62.3024H801.249V81.5023C801.249 84.3823 801.249 87.2624 800.788 89.1823C800.326 91.5823 799.865 93.5023 798.942 95.4223C798.019 97.3423 797.096 98.3023 795.251 99.2623C793.405 100.222 791.56 100.702 788.791 100.702C786.484 100.702 784.177 100.222 782.793 99.7423C780.947 99.2623 780.024 98.3024 779.102 97.3424C778.179 95.9023 777.717 94.9423 777.256 93.0223C776.795 91.5825 776.333 90.1421 775.872 88.2223ZM772.44 94.3795C771.991 92.9772 771.499 91.4252 771.01 89.3907L770.872 88.8147V88.2223C770.872 86.8162 770.869 84.2238 770.457 81.2226L770.41 80.8841V80.5424C770.41 78.8383 770.525 66.8983 770.64 54.9794L770.641 54.8143C770.757 42.7879 770.872 30.8305 770.872 29.1824C770.872 28.9781 770.872 28.7741 770.871 28.5706C770.868 25.928 770.864 23.3644 771.489 21.2093C772.499 16.5749 774.15 12.2391 777.343 8.91736C780.412 5.72379 783.17 3.89456 786.011 2.65543C787.575 1.74053 789.419 1.31986 790.971 1.08073C792.869 0.7882 795.105 0.662384 797.558 0.662384H825.703C828.399 0.662384 832.304 1.06764 835.899 1.77695C837.712 2.13465 839.565 2.59242 841.219 3.16319C842.667 3.66264 844.421 4.39833 845.822 5.53281C847.867 7.00166 849.276 8.8177 850.095 10.9479C850.888 13.0089 851.005 15.0611 851.005 16.7024C851.005 22.491 846.855 25.2343 844.5 26.7039L844.152 26.9211L843.774 27.0787C840.749 28.3373 837.307 28.9024 834.009 28.9024C833.258 28.9024 826.372 28.7807 819.674 28.6616C818.993 28.6495 818.314 28.6374 817.641 28.6254C814.977 28.578 812.422 28.5325 810.368 28.4966C809.082 28.4741 807.993 28.4554 807.198 28.4423C807.092 28.4406 806.992 28.4389 806.897 28.4374C806.879 28.4638 806.861 28.4914 806.843 28.5202C806.338 29.3083 806.249 29.8258 806.249 30.1424V40.0224H829.909L830.413 40.1272L829.395 45.0224C830.413 40.1272 830.415 40.1275 830.416 40.1279L830.42 40.1286L830.427 40.1302L830.445 40.1339L830.491 40.1438C830.526 40.1514 830.57 40.1613 830.622 40.1733C830.726 40.1974 830.865 40.2306 831.033 40.2737C831.368 40.3595 831.824 40.4858 832.364 40.6588C833.425 40.9991 834.892 41.5476 836.405 42.3742C839.17 43.8842 843.623 47.2207 843.623 53.1824V53.3424L843.613 53.5021C843.236 59.3828 839.406 62.8909 836.45 64.7042C834.945 65.6276 833.494 66.2314 832.435 66.605C831.898 66.7944 831.443 66.9315 831.105 67.0248C830.936 67.0716 830.795 67.1078 830.687 67.1343C830.659 67.1412 830.634 67.1475 830.61 67.1531C830.588 67.1583 830.568 67.163 830.55 67.1672L830.501 67.1785L830.481 67.183L830.472 67.1849L830.468 67.1858C830.466 67.1862 830.464 67.1866 829.395 62.3024L830.464 67.1866L829.936 67.3024H806.249V81.5023C806.249 81.6255 806.249 81.7508 806.249 81.878C806.251 84.4152 806.253 87.7288 805.678 90.2264C805.204 92.6802 804.647 95.0948 803.449 97.5883C802.846 98.8419 802.111 100.061 801.047 101.167C799.979 102.279 798.79 103.057 797.558 103.698C794.925 105.068 792.274 105.702 788.791 105.702C785.987 105.702 783.216 105.155 781.337 104.528C778.245 103.67 776.554 101.908 775.563 100.876L775.157 100.453L774.892 100.04C773.732 98.2301 773.036 96.7858 772.44 94.3795Z" fill="white"/>
<path fill-rule="evenodd" clip-rule="evenodd" d="M906.074 28.7774L906.363 29.0774C909.457 32.2967 912.748 36.776 914.441 42.0567C915.996 46.9115 916.986 52.7101 916.986 59.9024C916.986 67.0501 916.008 73.3358 914.441 78.2281L914.369 78.4513L914.277 78.6668C912.192 83.5474 909.547 87.4149 906.363 90.7274C903.163 94.0561 898.812 96.9806 894.157 98.2635C889.832 99.9052 885.583 100.422 881.533 100.422C877.4 100.422 873.059 99.8836 868.642 98.1605C864.51 96.5483 860.668 94.3167 857.322 90.8888C854.018 87.9678 850.834 83.5195 849.159 78.449C846.957 73.1436 846.542 66.5582 846.542 59.9024C846.542 53.1411 847.546 47.3938 849.045 42.197L849.13 41.9012L849.251 41.6181C851.249 36.9412 853.85 32.5263 857.165 29.0774L857.323 28.9134L857.495 28.7645C860.694 25.9911 864.566 23.6455 869.117 22.4455C872.88 21.3372 877.038 20.8224 881.533 20.8224C885.663 20.8224 889.777 21.3601 893.866 22.4234C898.45 23.6158 902.281 25.9584 905.74 28.5291L906.074 28.7774ZM870.46 27.2624C866.768 28.2224 863.539 30.1424 860.77 32.5424C858.002 35.4224 855.695 39.2624 853.849 43.5824C852.465 48.3824 851.542 53.6624 851.542 59.9024C851.542 66.6224 852.003 72.3824 853.849 76.7024C855.233 81.0224 858.002 84.8624 860.77 87.2624C863.539 90.1424 866.768 92.0624 870.46 93.5024C874.151 94.9424 877.842 95.4224 881.533 95.4224C885.225 95.4224 888.916 94.9424 892.607 93.5024C896.298 92.5424 899.989 90.1424 902.758 87.2624C905.526 84.3824 907.833 81.0224 909.679 76.7024C911.063 72.3824 911.986 66.6224 911.986 59.9024C911.986 53.1824 911.063 47.9024 909.679 43.5824C908.295 39.2624 905.526 35.4224 902.758 32.5424C899.528 30.1424 896.298 28.2224 892.607 27.2624C888.916 26.3024 885.225 25.8224 881.533 25.8224C877.381 25.8224 873.689 26.3024 870.46 27.2624ZM877.427 70.0153L877.548 70.1629C879.944 73.0701 880.975 73.1424 881.533 73.1424C882.299 73.1424 883.732 72.8271 885.837 70.3338C887.423 67.9473 888.53 64.6941 888.53 59.9024C888.53 55.6302 887.448 52.375 885.837 49.951C883.732 47.4577 882.299 47.1424 881.533 47.1424C880.655 47.1424 879.158 47.5673 877.001 49.7544C875.696 51.4796 874.537 54.5215 874.537 59.9024C874.537 65.0722 875.811 68.3348 877.294 69.8774L877.427 70.0153ZM873.228 46.4624C875.996 43.5824 878.765 42.1424 881.533 42.1424C884.302 42.1424 887.07 43.5824 889.839 46.9424C892.146 50.3024 893.53 54.6224 893.53 59.9024C893.53 65.6624 892.146 69.9824 889.839 73.3424C887.07 76.7024 884.302 78.1424 881.533 78.1424C878.765 78.1424 876.458 76.7024 873.689 73.3424C870.921 70.4624 869.537 65.6624 869.537 59.9024C869.537 53.6624 870.921 49.3424 873.228 46.4624Z" fill="white"/>
<path fill-rule="evenodd" clip-rule="evenodd" d="M930.354 28.6654C930.938 28.6654 931.607 28.5732 932.362 28.4693C933.335 28.3352 934.451 28.1815 935.708 28.1815C939.277 27.6975 941.954 28.1815 943.292 29.6334C943.523 29.8833 943.753 30.1333 943.981 30.3857C945.078 31.5995 946.123 32.8704 946.862 34.473C947.641 33.9091 948.572 33.5094 949.567 33.0827C950.146 32.834 950.747 32.5762 951.352 32.2713C951.491 32.2012 951.63 32.1287 951.769 32.0532C953.554 31.5692 955.785 31.0852 958.462 31.0852C962.923 31.0852 966.492 31.5692 969.169 32.5371C972.292 33.505 974.523 34.9569 976.308 36.8928C978.092 38.8286 979.877 41.2484 980.769 43.1842C981.662 45.1201 982.554 47.5399 983 49.4757V52.8634C983 54.3153 982.554 55.2832 981.662 56.7351C981.215 57.703 980.323 58.6709 979.431 59.1549C978.092 60.1228 976.754 60.6068 974.523 61.0907C971.4 61.5747 969.169 61.0907 967.831 59.6389C966.492 58.187 965.6 56.7351 965.154 54.7993C964.708 53.8314 963.815 52.8635 962.477 51.4118C961.139 49.9599 958.908 49.9597 955.785 49.9597C954 49.9597 952.662 50.4436 951.769 51.4115C950.807 52.1077 950.306 52.8038 949.934 53.3199C949.789 53.5214 949.664 53.6955 949.538 53.8313C949.092 55.2831 948.646 56.251 948.2 57.2189C947.754 58.1868 947.754 59.1549 947.754 60.1228C947.754 63.9944 947.754 67.8662 947.308 71.7379C947.308 73.6737 947.196 75.6095 947.085 77.5454C946.973 79.4812 946.862 81.417 946.862 83.3529C946.415 87.2246 945.077 90.1283 942.846 91.5802C940.615 93.516 937.938 94 934.815 94C931.692 94 929.015 93.0321 927.677 91.0962C925.892 89.1604 925 86.7406 925 83.3529C925 77.0615 925 70.2859 925.446 62.5426C925.892 55.2832 925.892 47.5399 925.446 40.7644C925.446 39.3126 925.446 37.8607 925.892 36.4088C925.892 34.9569 926.785 33.0212 927.231 32.0532C928.123 30.6013 929.015 29.6334 930.354 28.6654ZM920.93 35.5974C921.045 34.3171 921.405 33.158 921.682 32.3786C922.037 31.3754 922.451 30.4785 922.674 29.9948C922.679 29.983 922.685 29.9714 922.69 29.9601L922.815 29.6892L922.971 29.4351C924.197 27.4407 925.535 25.9798 927.424 24.6138L928.735 23.6654H930.354C930.576 23.6654 930.877 23.6245 931.816 23.497C931.882 23.4881 931.952 23.4787 932.024 23.4688C932.889 23.3516 934.041 23.2066 935.363 23.1844C937.383 22.9349 939.397 22.916 941.263 23.2682C943.22 23.6372 945.345 24.4827 946.969 26.2443C947.013 26.2927 947.058 26.3419 947.105 26.3918C947.549 26.8732 948.059 27.4253 948.586 28.0537C948.865 27.9263 949.122 27.8007 949.385 27.658L949.898 27.38L950.461 27.2275C952.464 26.6842 955.169 26.0852 958.462 26.0852C963.161 26.0852 967.338 26.58 970.758 27.7953C974.614 29.0081 977.586 30.9027 979.984 33.5037C981.952 35.6386 984.114 38.4963 985.31 41.0912C986.301 43.2401 987.328 45.9921 987.872 48.3528L988 48.907V52.8634C988 55.5866 987.06 57.4744 986.052 59.1395C985.202 60.8147 983.781 62.3855 982.127 63.3723C980.065 64.804 978.021 65.4481 975.583 65.9771L975.437 66.0088L975.289 66.0318C971.536 66.6133 967.176 66.3057 964.155 63.0279C962.539 61.2757 961.227 59.2957 960.486 56.7154C960.436 56.6483 960.37 56.5625 960.283 56.4561C959.993 56.1023 959.618 55.6888 959.065 55.088C959.045 55.0842 959.022 55.0803 958.997 55.0763C958.734 55.0335 958.356 54.9986 957.79 54.9795C957.222 54.9602 956.586 54.9597 955.785 54.9597C955.534 54.9597 955.366 54.9789 955.265 54.9965L955.106 55.1693L954.699 55.4631C954.484 55.6184 954.361 55.7527 954.242 55.9029C954.177 55.9861 954.123 56.0599 954.027 56.192C953.587 57.4693 953.15 58.4236 952.778 59.231C952.778 59.2348 952.777 59.2389 952.777 59.2433C952.77 59.3002 952.763 59.3913 952.759 59.5409C952.754 59.6989 952.754 59.8688 952.754 60.1228V60.2487C952.754 63.9521 952.754 67.9643 952.307 72.025C952.297 74.0072 952.184 75.9621 952.08 77.7689L952.076 77.833C951.963 79.793 951.862 81.585 951.862 83.3529V83.64L951.829 83.9253C951.324 88.3043 949.714 92.8969 945.87 95.5715C942.353 98.4843 938.319 99 934.815 99C931.041 99 926.496 97.8825 923.782 94.2427C921.141 91.2545 920 87.6213 920 83.3529V83.3107C920 77.0371 920 70.142 920.454 62.255L920.455 62.2455L920.456 62.2359C920.89 55.1732 920.888 47.6426 920.457 41.093L920.446 40.9289V40.7644C920.446 40.706 920.446 40.6459 920.446 40.5843C920.445 39.3653 920.443 37.5396 920.93 35.5974Z" fill="white"/>
<path fill-rule="evenodd" clip-rule="evenodd" d="M1055.28 72.6697C1055.35 72.7316 1055.42 72.7958 1055.48 72.8624C1056.87 73.8224 1057.33 74.7823 1057.79 76.2224C1058.25 77.6622 1058.25 78.6222 1058.25 80.5418C1058.25 81.5018 1057.84 82.4624 1057.43 83.4224C1057.23 83.9024 1057.02 84.3824 1056.87 84.8624C1053.18 89.1823 1049.02 92.0623 1044.41 93.5023C1039.8 95.4223 1034.26 95.9023 1027.8 95.9023C1023.65 95.9023 1019.95 95.4223 1015.8 93.9823C1012.11 92.5423 1008.42 90.6223 1005.19 88.2223C1001.96 86.3023 999.192 82.9423 997.807 79.1023C995.962 75.2624 995.039 70.4624 995.039 65.6624C995.039 58.9424 995.962 53.1824 997.807 48.8624C999.653 44.5424 1001.96 40.7024 1005.19 37.8224C1007.96 34.9424 1011.65 32.5424 1015.34 31.5824C1019.49 30.1424 1023.65 29.6624 1027.34 29.6624C1031.49 29.6624 1035.64 30.1424 1039.33 31.1024C1043.49 32.0624 1046.72 33.5024 1049.48 35.9024C1052.71 38.3024 1055.48 41.1824 1056.87 44.5424C1058.71 47.9024 1059.17 51.7424 1059.17 56.0624C1059.17 60.3824 1058.25 63.7424 1055.94 66.1424C1055.66 66.4394 1055.34 66.7218 1055 66.9885C1054.15 67.6566 1053.11 68.2268 1051.9 68.6846C1051.71 68.7548 1051.52 68.8223 1051.33 68.8872C1049.21 69.595 1046.6 69.9824 1043.49 69.9824H1024.11V69.0224C1021.95 69.0224 1020.3 69.1087 1019.11 69.2815C1017.49 69.516 1016.72 69.9096 1016.72 70.4624C1016.72 72.3824 1017.65 74.3023 1019.95 76.2224C1022.26 78.1423 1025.03 78.6223 1028.72 78.6223C1032.87 78.6223 1035.64 78.1424 1037.95 77.1824C1039.14 76.5629 1040.33 75.7436 1041.4 74.9824C1041.59 74.8423 1041.79 74.7043 1041.97 74.5698C1042.35 74.3023 1042.7 74.049 1043.02 73.8223C1043.18 73.7303 1043.33 73.6405 1043.49 73.5529C1046.52 71.8136 1049.13 70.9654 1051.33 71.4224C1052.62 71.4224 1054.31 71.8381 1055.28 72.6697ZM1059.49 69.6673C1059.51 69.6474 1059.53 69.6274 1059.55 69.6074C1063.12 65.8902 1064.17 61.0157 1064.17 56.0624C1064.17 51.5559 1063.72 46.7856 1061.38 42.3789C1059.51 38.0187 1056.08 34.5965 1052.61 31.9987C1049.11 29.0133 1045.14 27.3191 1040.53 26.2462C1036.39 25.1765 1031.83 24.6624 1027.34 24.6624C1023.28 24.6624 1018.62 25.1819 1013.88 26.7959C1009.26 28.0478 1004.93 30.9262 1001.72 34.2198C997.81 37.7572 995.183 42.2776 993.209 46.898C991.003 52.0632 990.039 58.5634 990.039 65.6624C990.039 70.9496 991.029 76.4295 993.193 81.0407C994.947 85.7337 998.31 89.8701 1002.41 92.3818C1006.01 95.0265 1010.03 97.0993 1013.98 98.6404L1014.07 98.6751L1014.16 98.7064C1018.94 100.361 1023.19 100.902 1027.8 100.902C1034.29 100.902 1040.59 100.451 1046.12 98.2061C1051.69 96.4185 1056.53 92.9554 1060.67 88.1104L1061.32 87.3458L1061.63 86.388C1061.72 86.1042 1061.79 85.9369 1061.92 85.6535C1062.02 85.4163 1062.16 85.0977 1062.37 84.5613C1062.71 83.7219 1063.25 82.2622 1063.25 80.5424C1063.25 80.473 1063.25 80.4039 1063.25 80.335C1063.25 78.5362 1063.25 76.8871 1062.55 74.6967C1062.28 73.8644 1061.9 72.764 1061.19 71.6646C1060.71 70.9116 1060.14 70.2542 1059.49 69.6673ZM1039.31 48.6624C1039.31 48.663 1039.31 48.6636 1039.31 48.6643C1039.32 48.6722 1039.33 48.6801 1039.33 48.6879C1040 49.3135 1040.48 49.8079 1040.72 50.3024C1041.18 50.7823 1041.18 51.2623 1041.18 52.2221C1041.18 53.1821 1040.72 53.6624 1039.33 53.6624H1019.95C1018.11 53.6624 1017.19 53.1824 1017.65 51.2624C1018.11 49.8224 1019.03 48.3824 1021.34 46.4624C1023.18 45.0224 1025.95 44.0624 1029.18 44.0624C1032.41 44.0624 1035.18 45.0224 1037.03 46.4624C1037.73 47.1957 1038.37 47.7891 1038.91 48.2958C1039.05 48.4232 1039.18 48.5451 1039.31 48.6624Z" fill="white"/>
<path fill-rule="evenodd" clip-rule="evenodd" d="M1088.22 69.1749C1088.59 70.1746 1089.07 70.878 1089.58 71.6204C1089.75 71.866 1089.92 72.1159 1090.09 72.3822C1091.47 74.3022 1092.86 75.2622 1095.16 75.7422C1097.01 76.2221 1099.32 76.702 1101.62 77.182C1103.47 77.182 1105.31 76.7022 1106.7 76.2222C1108.08 75.7422 1108.54 74.7822 1108.54 73.3422C1109.01 71.9022 1108.08 70.4622 1106.24 69.5022C1104.39 68.5422 1102.08 68.0622 1099.32 67.5822C1096.82 66.8406 1094.6 66.0991 1092.44 65.3576C1091.87 65.1585 1091.29 64.9593 1090.72 64.7602C1090.66 64.7409 1090.61 64.7215 1090.55 64.7022C1088.86 64.1161 1087.34 63.351 1085.99 62.4071C1085.86 62.316 1085.74 62.2233 1085.61 62.1289C1084.9 61.5991 1084.24 61.0169 1083.63 60.3822C1083.36 60.1766 1083.1 59.9711 1082.84 59.7627C1081.27 58.5115 1079.74 57.1596 1078.55 55.1022C1077.17 52.7022 1076.71 49.8222 1076.71 46.4622C1076.71 41.1822 1079.01 36.3822 1083.17 32.5422C1087.32 28.7022 1093.32 26.7822 1101.16 26.7822C1104.85 26.7822 1108.08 26.7822 1110.85 27.2622C1113.62 27.7422 1115.93 28.7021 1118.23 29.6621C1120.08 30.6221 1121.92 31.5822 1123.31 33.0222C1124.69 34.4621 1125.62 35.4222 1126.08 36.8622C1127.46 39.2622 1127.46 41.6622 1127 43.1022C1126.54 45.0222 1125.62 46.4622 1124.23 47.4222C1122.39 48.8622 1120.54 49.3422 1117.77 49.3422C1115 49.3422 1112.7 48.3822 1110.85 45.9822C1109.93 44.5422 1109.01 44.0622 1107.62 43.5822C1106.24 43.1022 1104.85 43.1022 1103.47 43.1022C1101.62 43.1022 1100.7 43.5822 1099.78 44.0622C1098.85 44.5422 1098.39 45.5022 1098.39 46.9422C1098.39 48.3822 1098.85 49.3422 1100.24 50.3022C1101.62 51.2622 1103.01 51.7422 1105.31 52.2222C1106.86 53.0264 1108.73 53.4938 1110.38 53.9065C1110.7 53.9864 1111.01 54.0643 1111.31 54.1422C1113.16 54.6222 1114.54 55.1022 1115.93 55.5822C1125.15 58.9422 1129.77 65.1822 1129.77 74.7822C1129.77 77.1822 1129.31 79.5822 1128.38 81.5022C1127.46 83.4222 1126.08 85.8222 1123.77 87.7422C1121.92 89.6622 1119.16 90.6222 1115.93 91.5822C1112.7 92.5422 1108.54 93.0222 1103.93 93.5022C1098.85 93.5022 1095.16 93.0222 1091.93 92.5422C1088.7 92.0622 1085.94 91.1022 1083.63 89.6622C1081.78 88.7022 1079.94 87.7422 1078.55 85.8222C1077.17 84.3822 1076.25 82.4622 1075.32 80.5423C1073.48 78.6223 1073.02 76.2222 1073.02 73.3422C1073.02 70.4622 1073.94 68.5422 1075.32 67.1022C1076.71 65.6622 1078.55 65.1822 1080.4 64.7022C1080.56 64.7022 1080.73 64.7022 1080.9 64.7029C1082.2 64.7086 1083.74 64.7577 1084.55 65.1822C1085.94 65.6622 1086.86 66.6221 1087.78 67.5821C1087.9 68.1967 1088.05 68.717 1088.22 69.1749ZM1071.12 83.34C1068.47 80.1668 1068.02 76.4672 1068.02 73.3422C1068.02 69.2132 1069.41 66.039 1071.72 63.6371C1073.19 62.1031 1074.93 61.2155 1076.44 60.6589C1075.66 59.7863 1074.9 58.7786 1074.22 57.6003C1072.21 54.1043 1071.71 50.2056 1071.71 46.4622C1071.71 39.6066 1074.74 33.5267 1079.77 28.8712C1085.15 23.8939 1092.55 21.7822 1101.16 21.7822C1101.25 21.7822 1101.34 21.7822 1101.43 21.7822C1104.91 21.7818 1108.51 21.7814 1111.71 22.3357C1115.03 22.9118 1117.77 24.0546 1120.01 24.9863L1120.35 25.1279L1120.54 25.2264C1120.62 25.2649 1120.69 25.3043 1120.77 25.3446C1122.46 26.2235 1124.95 27.5138 1126.91 29.5572C1126.99 29.6334 1127.06 29.7114 1127.14 29.7914C1128.26 30.9501 1129.78 32.5225 1130.65 34.8026C1132.46 38.212 1132.61 41.7851 1131.82 44.4363C1131.12 47.2198 1129.64 49.7061 1127.2 51.4463C1125.92 52.4254 1124.63 53.0998 1123.3 53.5496C1126.1 55.2297 1128.48 57.326 1130.36 59.9061C1133.4 64.1091 1134.77 69.158 1134.77 74.7822C1134.77 77.7566 1134.21 80.9302 1132.89 83.6681C1131.87 85.8022 1130.16 88.8584 1127.17 91.4149C1124.29 94.2746 1120.35 95.4848 1117.35 96.3749C1113.59 97.4915 1108.96 98.006 1104.45 98.4753L1104.19 98.5022H1103.93C1098.5 98.5022 1094.54 97.9844 1091.2 97.4878C1087.5 96.9379 1084.11 95.8182 1081.16 94.0143C1081.15 94.0066 1081.13 93.9989 1081.12 93.9911C1079.41 93.1074 1076.77 91.7372 1074.71 89.0296C1073.03 87.1954 1071.92 84.9915 1071.12 83.34Z" fill="white"/>
<path fill-rule="evenodd" clip-rule="evenodd" d="M1153.76 49.4153C1153.76 49.4153 1153.76 70.5353 1154.22 75.8153C1154.68 81.0953 1156.07 88.7753 1159.3 92.6153C1162.53 96.4553 1167.14 98.8553 1172.22 99.8153C1173.6 99.8153 1174.99 99.6953 1176.37 99.5753C1177.75 99.4553 1179.14 99.3353 1180.52 99.3353C1183.29 98.8553 1186.06 98.3753 1188.37 96.9353C1190.67 95.9753 1192.06 94.5353 1193.44 92.6153C1194.83 91.1753 1195.29 88.7753 1194.83 85.8953C1194.37 83.9753 1193.9 83.0153 1192.52 82.0553C1191.6 81.0953 1189.29 80.6153 1186.06 80.6153C1185.9 80.6153 1185.69 80.6218 1185.44 80.6296C1183.54 80.6881 1179.44 80.8148 1178.22 78.6953C1174.99 73.4153 1176.83 48.9353 1176.83 48.9353C1176.83 48.9353 1186.98 48.4553 1188.83 47.4953C1191.14 47.0153 1192.06 43.1753 1192.06 39.8153C1192.06 37.8953 1191.6 36.4553 1191.14 35.4953C1190.67 34.5353 1189.75 33.5753 1188.37 32.6153C1186.52 32.1353 1185.14 32.1353 1183.75 32.1353H1177.29L1178.68 21.0953C1178.68 17.7353 1178.68 14.8553 1177.29 11.9753C1175.91 9.09532 1173.6 7.65532 1169.45 7.17532C1166.22 6.69532 1163.45 7.17532 1160.68 8.61532C1157.91 10.5353 1156.99 12.4553 1156.07 17.2553C1155.79 18.1321 1155.34 22.7453 1154.92 26.9785C1154.65 29.6982 1154.4 32.261 1154.22 33.5753C1150.99 33.5753 1144.07 34.0553 1142.23 35.4953C1139.92 36.4553 1139 38.3753 1139 41.7353C1139 43.1753 1139.92 46.5353 1142.23 47.9753C1144.53 49.4153 1153.76 49.4153 1153.76 49.4153ZM1139.78 31.1129C1140.97 30.3726 1142.28 29.9787 1143.18 29.7465C1144.41 29.4268 1145.78 29.1995 1147.08 29.0351C1147.95 28.9237 1148.85 28.835 1149.72 28.7665C1149.79 28.0751 1149.86 27.3408 1149.94 26.5839C1150.01 25.806 1150.09 25.0042 1150.17 24.2005C1150.34 22.4586 1150.52 20.7371 1150.69 19.3504C1150.77 18.6596 1150.85 18.0154 1150.93 17.4759C1150.98 17.146 1151.07 16.6256 1151.2 16.1183C1151.67 13.7094 1152.23 11.4869 1153.26 9.5335C1154.41 7.34147 1155.95 5.81267 1157.83 4.50672L1158.09 4.32592L1158.38 4.17951C1162.06 2.26182 1165.87 1.60421 1170.1 2.21772C1172.58 2.51077 1174.95 3.13547 1177.03 4.41578C1179.22 5.7628 1180.75 7.6234 1181.8 9.80936C1183.68 13.7291 1183.68 17.6184 1183.68 20.7476C1183.68 20.8646 1183.68 20.9805 1183.68 21.0953V21.4076L1182.96 27.1353L1183.82 27.1353C1185.25 27.1351 1187.16 27.1349 1189.63 27.7763L1190.49 28.0001L1191.22 28.5067C1192.94 29.7004 1194.65 31.2618 1195.64 33.3293C1196.39 34.8905 1197.06 37.0667 1197.06 39.8153C1197.06 41.8679 1196.79 44.2825 1196.01 46.4309C1195.37 48.2024 1193.84 51.2348 1190.47 52.235C1189.87 52.4715 1189.3 52.615 1188.91 52.7043C1188.28 52.8505 1187.59 52.9705 1186.91 53.071C1185.55 53.2727 1184 53.433 1182.57 53.5566C1182.23 53.5862 1181.89 53.6141 1181.56 53.6401C1181.45 55.9069 1181.34 58.8296 1181.31 61.8778C1181.28 65.1945 1181.36 68.5602 1181.62 71.3569C1181.75 72.757 1181.91 73.9243 1182.11 74.8255C1182.18 75.1151 1182.24 75.3473 1182.29 75.5297C1182.4 75.5494 1182.54 75.5688 1182.69 75.5861C1183.22 75.6444 1183.8 75.6595 1184.39 75.6531C1184.68 75.6499 1184.96 75.642 1185.23 75.6336L1185.3 75.6315C1185.52 75.6244 1185.82 75.6153 1186.06 75.6153C1187.89 75.6153 1189.66 75.7476 1191.22 76.0911C1192.51 76.3717 1194.27 76.9196 1195.7 78.1853C1196.73 78.9526 1197.64 79.8851 1198.35 81.1172C1199.07 82.3597 1199.43 83.6526 1199.69 84.727L1199.73 84.9142L1199.76 85.1043C1200.32 88.5794 1200.02 92.7392 1197.32 95.7859C1195.75 97.9269 1193.81 99.9893 1190.66 101.391C1187.6 103.19 1184.15 103.783 1181.69 104.207C1181.59 104.226 1181.48 104.244 1181.38 104.262L1180.95 104.335H1180.52C1179.39 104.335 1178.22 104.433 1176.8 104.557L1176.72 104.564C1175.39 104.679 1173.82 104.815 1172.22 104.815H1171.75L1171.29 104.728C1165.29 103.593 1159.57 100.702 1155.47 95.8337C1153.14 93.0624 1151.76 89.3236 1150.89 86.031C1149.99 82.6181 1149.49 79.0815 1149.24 76.2506C1148.99 73.3703 1148.88 66.5366 1148.82 60.6838C1148.8 58.339 1148.78 56.0976 1148.77 54.2409C1148.69 54.2353 1148.6 54.2294 1148.51 54.2233C1147.14 54.1279 1145.58 53.9788 1144.16 53.7369C1142.97 53.5346 1141.08 53.1505 1139.58 52.2169C1137.24 50.7588 1135.9 48.5508 1135.16 46.8404C1134.42 45.1383 1134 43.2619 1134 41.7353C1134 39.6769 1134.27 37.4616 1135.29 35.4475C1136.31 33.4416 1137.88 32.0196 1139.78 31.1129Z" fill="white"/>
</g>
</svg>
