<svg width="236" height="126" viewBox="0 0 236 126" fill="none" xmlns="http://www.w3.org/2000/svg">
<g opacity="0.8">
<path fill-rule="evenodd" clip-rule="evenodd" d="M55.725 43.4376C55.7273 43.4156 55.7298 43.3899 55.7324 43.3604C55.7509 43.1535 55.7694 42.8557 55.7864 42.4716C55.8202 41.7091 55.8435 40.7185 55.8592 39.6635C55.8906 37.5594 55.8906 35.292 55.8906 34.2735C55.8906 33.2565 55.8906 30.6029 55.8591 27.985C55.8347 25.9602 55.7918 24.148 55.734 23.077C55.5044 24.1319 55.3267 25.0523 55.2565 25.5441L52.6943 25.1784C55.2565 25.5441 55.2565 25.544 55.2565 25.5441L55.1783 26.0873C55.1284 26.4325 55.0566 26.9265 54.9689 27.5231C54.7936 28.7157 54.5542 30.3212 54.2986 31.9685C54.0435 33.6122 53.7699 35.313 53.5263 36.6908C53.4048 37.3776 53.2873 38.0045 53.1804 38.5126C53.0943 38.922 52.9636 39.5198 52.7864 39.9633C52.1297 41.6066 51.1631 42.8958 50.4359 43.8656C50.4135 43.8954 50.3913 43.925 50.3694 43.9543L50.1124 44.2972L49.7697 44.5545C48.2344 45.7072 46.3324 46.4267 43.9045 46.4267C41.5889 46.4267 39.4564 45.7615 37.9721 44.2757C36.8321 43.1345 35.8789 41.4702 35.2767 39.9633C35.0325 39.3522 34.8453 38.5044 34.7067 37.8028C34.5515 37.0179 34.4008 36.1095 34.2693 35.2212C34.0452 33.7067 33.8387 31.993 33.7992 31.0145L33.5958 29.8594C33.4489 29.0248 33.2504 27.896 33.0439 26.7194C32.8163 25.4223 32.5775 24.0589 32.3876 22.9678C32.1192 25.0719 31.9184 27.0505 31.9184 27.9171V44.2664C32.1963 46.7278 31.8749 48.9462 30.4371 51.1347C29.0539 53.3931 26.7439 54.5629 23.8384 54.5629C22.7499 54.5629 21.3699 54.2697 20.1171 53.7994C18.8815 53.3356 17.3113 52.5303 16.1988 51.194C15.1292 49.9092 14.5506 48.1652 14.2509 47.0985C14.0832 46.5014 13.9633 45.9656 13.8851 45.5785C13.8457 45.3836 13.8161 45.2229 13.7958 45.1069C13.7856 45.0488 13.7776 45.0016 13.7719 44.9667L13.7649 44.9235L13.7627 44.909L13.7613 44.9004C13.7612 44.8999 13.7612 44.8994 16.7264 44.4437C16.7264 44.4437 17.2344 47.749 18.5044 49.2746C19.7744 50.8001 22.5684 51.5629 23.8384 51.5629C25.8704 51.5629 27.1404 50.8001 27.9024 49.5288C28.9184 48.0033 29.1724 46.4778 28.9184 44.4437V27.9171C28.9184 25.6288 29.9344 18.5096 30.1884 17.4926C30.6964 16.2213 31.4585 15.7128 32.2205 15.7128C32.7285 15.7128 33.2365 15.9671 33.7445 16.9841C33.8497 17.3 33.9985 17.7032 34.1728 18.1756C34.4193 18.8436 34.7169 19.65 35.0145 20.5437C35.2685 22.0692 36.7925 30.7139 36.7925 30.7139C36.7925 31.9852 37.5545 37.5788 38.0625 38.8501C38.5705 40.1214 39.3325 41.3926 40.0945 42.1554C40.8565 42.9182 42.1265 43.4267 43.9045 43.4267C45.6825 43.4267 46.9526 42.9182 47.9686 42.1554C48.7306 41.1384 49.4926 40.1214 50.0006 38.8501C50.5086 37.5788 52.2866 25.1203 52.2866 25.1203C52.5406 23.3405 53.8106 17.7468 54.3186 16.9841C54.3854 16.8838 54.4478 16.7879 54.507 16.697C54.8978 16.0964 55.1474 15.7128 55.5886 15.7128C56.6046 15.7128 57.1126 16.2213 57.6206 17.4926C58.1286 18.7639 58.3826 20.0351 58.6366 21.8149C58.8906 23.5947 58.8906 32.2394 58.8906 34.2735C58.8906 36.3075 58.8906 43.4267 58.6366 44.1895C58.6366 44.9522 58.6366 45.9692 58.8906 47.4948C59.1446 48.2575 59.3986 49.0203 59.9066 49.7831C60.4146 50.2916 60.9226 50.8001 61.6846 51.3086C62.4467 51.8171 63.4627 52.0714 64.4787 52.0714C66.7647 51.8171 68.5427 51.0544 69.5587 49.7831C70.5747 48.5118 71.0827 46.9863 71.3367 44.9522C71.5907 42.4098 71.8447 39.8669 72.0987 36.816C72.3527 33.765 72.3527 30.714 72.3527 27.4087C72.3527 24.3576 72.0987 21.3064 71.5907 18.5096C71.3367 15.7128 70.3207 12.916 69.0507 10.6277C68.0347 8.33937 66.5107 6.55958 64.4787 5.03405C62.4467 3.76277 59.9066 3 56.6046 3C53.5566 3 51.0166 3.76277 48.9846 5.54256C47.7579 6.61699 46.6238 8.06206 45.6381 9.82183C44.991 10.9771 44.4079 12.268 43.9045 13.6787C43.4092 12.1914 42.8753 10.8973 42.2877 9.7665C41.3685 7.99774 40.318 6.62824 39.0785 5.54256C36.7925 3.76277 34.2525 3 30.9505 3C28.1564 3 25.8704 3.76277 24.0924 4.77979C22.0604 6.30533 20.5364 8.08512 19.5204 10.1192C18.2504 12.4075 17.4884 15.2043 16.9804 18.0011C16.4724 21.0522 16.2184 23.849 16.2184 26.9001C15.9644 30.2054 15.9644 33.2564 15.9644 36.3075C15.9644 39.3586 16.7264 44.4437 16.7264 44.4437C13.7595 44.8883 13.7595 44.8881 13.7594 44.888L13.7567 44.8694L13.7497 44.8219C13.7436 44.781 13.735 44.7217 13.7241 44.6459C13.7023 44.4944 13.6716 44.2766 13.6348 44.0064C13.5612 43.4668 13.4632 42.7147 13.3651 41.8633C13.173 40.1972 12.9644 38.0174 12.9644 36.3075V36.2638C12.9643 33.272 12.9643 30.1607 13.2185 26.7846C13.2248 23.597 13.4951 20.6673 14.0211 17.5084L14.0247 17.4866L14.0287 17.465C14.5561 14.5614 15.3826 11.4157 16.8659 8.72017C18.1129 6.24793 19.9495 4.13871 22.2913 2.38066L22.4407 2.26848L22.6029 2.1757C24.7925 0.923206 27.5877 0 30.9505 0C34.7863 0 38.012 0.910204 40.9215 3.1754L40.9899 3.22867L41.0551 3.28581C42.1848 4.27525 43.1565 5.42453 44.0069 6.74967C44.9044 5.41676 45.9082 4.249 47.0079 3.28581C49.7233 0.907473 53.0338 0 56.6046 0C60.3958 0 63.502 0.884305 66.0698 2.49077L66.1779 2.55838L66.2798 2.63491C68.6229 4.39397 70.4838 6.52347 71.7371 9.28667C73.114 11.7986 74.2508 14.8984 74.5655 18.1016C75.0936 21.0586 75.3527 24.2442 75.3527 27.4086V27.4739C75.3527 30.7329 75.3527 33.8894 75.0884 37.0649C74.8323 40.1406 74.5763 42.7037 74.3226 45.2432L74.3182 45.2872L74.3136 45.324C74.0215 47.6633 73.3904 49.7939 71.9022 51.656C70.1832 53.807 67.4843 54.7556 64.8103 55.053L64.645 55.0714H64.4787C63.0171 55.0714 61.3841 54.7147 60.0194 53.804C59.009 53.1297 58.3259 52.4457 57.818 51.9372L57.5743 51.6932L57.4097 51.446C56.6766 50.3452 56.3147 49.2561 56.0705 48.5215C56.0616 48.4947 56.0529 48.4684 56.0443 48.4426L55.97 48.2195L55.9314 47.9875C55.6368 46.2185 55.6366 45.0081 55.6366 44.1895V43.7031L55.725 43.4376ZM16.7264 44.4437L13.7613 44.9004L13.7594 44.888L16.7264 44.4437Z" fill="white"/>
<path fill-rule="evenodd" clip-rule="evenodd" d="M117.12 37.4275C117.545 37.8285 117.74 38.2643 117.935 38.8501C118.189 39.6128 118.189 40.1213 118.189 41.1383C118.189 41.6468 117.963 42.1554 117.737 42.6639C117.625 42.9182 117.512 43.1724 117.427 43.4267C115.395 45.715 113.109 47.2405 110.823 48.0033C108.283 49.0203 105.235 49.2746 101.933 49.2746C99.6469 49.2746 97.6149 49.0203 95.5828 48.2575C93.5508 47.4948 91.5188 46.4777 89.7408 45.2065C87.9628 44.1894 86.6928 42.4097 85.6768 40.3756C84.6608 38.3416 84.1528 35.799 84.1528 33.2564C84.1528 29.6969 84.6608 26.6458 85.6768 24.3575C86.6928 22.0692 87.9628 20.0351 89.7408 18.5096C91.2648 16.9841 93.0428 15.7128 95.3288 15.2043C97.6149 14.4415 99.6469 14.1873 101.933 14.1873C104.219 14.1873 106.251 14.4415 108.537 14.95C110.823 15.4585 112.601 16.2213 114.125 17.4926C115.903 18.7639 117.173 20.2894 118.189 22.0692C119.205 23.849 119.459 25.883 119.459 28.1713C119.459 30.4596 118.951 32.2394 117.681 33.5107C117.532 33.66 117.369 33.8023 117.192 33.9371C116.521 34.4488 115.655 34.8536 114.615 35.129C114.537 35.1496 114.459 35.1695 114.379 35.1886C113.414 35.4205 112.307 35.5447 111.077 35.5447H99.6469V35.0362C98.278 35.0362 97.278 35.1101 96.6469 35.2578C96.1069 35.3841 95.8368 35.5645 95.8368 35.799C95.8368 36.5012 96.079 37.2033 96.6469 37.9055C96.8192 38.1186 97.0215 38.3317 97.2562 38.5447C97.3683 38.6465 97.4878 38.7483 97.6149 38.8501C98.8849 39.8671 100.409 40.1214 102.441 40.1214C104.727 40.1214 106.251 39.8671 107.267 39.3586C107.734 39.1246 108.202 38.8368 108.62 38.5447C109.11 38.202 109.533 37.8533 109.807 37.5788C110.246 37.3278 110.669 37.1078 111.077 36.9225C112.322 36.3572 113.422 36.116 114.379 36.3075C115.141 36.3075 115.903 36.5618 116.665 37.0703C116.842 37.1883 116.991 37.3063 117.12 37.4275ZM119.665 35.7661C119.778 35.9044 119.886 36.0494 119.987 36.2019C120.404 36.8267 120.631 37.4499 120.781 37.9022C121.19 39.1308 121.19 40.0675 121.189 41.0197C121.189 41.0592 121.189 41.0988 121.189 41.1384C121.189 42.1428 120.861 42.9832 120.673 43.4354C120.541 43.752 120.464 43.9214 120.409 44.0402C120.35 44.1698 120.318 44.2394 120.273 44.3745L120.079 44.9585L119.67 45.4187C117.364 48.0161 114.679 49.8605 111.856 50.8208C108.781 52.0318 105.287 52.2746 101.933 52.2746C99.4142 52.2746 96.9993 51.9936 94.5286 51.0662C92.3455 50.2467 90.1148 49.1428 88.1128 47.7299C85.6536 46.2701 84.0882 43.9089 82.993 41.7162C81.7266 39.181 81.1528 36.1592 81.1528 33.2564C81.1528 29.4588 81.6879 25.9485 82.9349 23.1401C84.035 20.6625 85.5058 18.222 87.6983 16.3098C89.4118 14.6119 91.6043 12.9994 94.5212 12.3116C97.1106 11.4652 99.4327 11.1873 101.933 11.1873C104.468 11.1873 106.72 11.4726 109.188 12.0216C111.752 12.5918 113.986 13.4979 115.959 15.1166C118.094 16.6636 119.614 18.514 120.794 20.5819C122.2 23.0438 122.459 25.711 122.459 28.1713C122.459 30.8664 121.86 33.5718 119.803 35.631C119.758 35.6766 119.712 35.7216 119.665 35.7661ZM107.481 23.9C107.497 23.9141 107.512 23.9281 107.528 23.9419C107.617 24.0217 107.699 24.0974 107.775 24.1699C108.17 24.5473 108.394 24.8338 108.537 25.1203C108.791 25.3745 108.791 25.6288 108.791 26.1373C108.791 26.6458 108.537 26.9 107.775 26.9H97.3609C96.3448 26.9 95.8368 26.6458 96.0908 25.6288C96.2034 25.4035 96.4156 25.1283 96.6833 24.7812C96.8759 24.5314 97.0973 24.2444 97.3309 23.912C97.3337 23.908 97.3365 23.904 97.3393 23.9C97.5115 23.6545 97.6902 23.3843 97.8689 23.0862C99.1389 22.3234 100.409 21.8149 102.187 21.8149C103.965 21.8149 105.489 22.3234 106.505 23.0862C106.898 23.4012 107.219 23.6675 107.481 23.9Z" fill="white"/>
<path fill-rule="evenodd" clip-rule="evenodd" d="M161.033 13.3495L161.133 13.4359C163.375 15.3593 164.871 17.8321 165.986 20.3431C167.223 23.129 167.768 26.3724 167.768 30.2052C167.768 34.0029 167.233 37.5132 165.986 40.3216C164.812 42.9651 163.29 45.1239 161.133 46.9746C159.2 48.6333 156.797 50.2014 154.182 50.8837C151.578 51.7396 149.246 52.0202 146.734 52.0202C144.215 52.0202 141.8 51.7393 139.329 50.8118C137.136 49.9884 134.795 48.8413 132.686 47.0576C130.321 45.3216 128.812 42.7447 127.736 40.3216C126.489 37.5132 125.954 34.0029 125.954 30.2052C125.954 26.5791 126.513 23.3961 127.692 20.4473L127.713 20.3948L127.736 20.3431C128.851 17.8321 130.346 15.3593 132.588 13.4359L132.604 13.4223L132.62 13.4089C134.443 11.888 136.645 10.6176 139.478 9.98742C141.96 9.43531 144.465 9.15308 146.734 9.15308C149.269 9.15308 151.521 9.43838 153.989 9.98742C156.826 10.6184 158.981 11.8829 160.925 13.2723L161.033 13.3495ZM134.542 44.6978C136.32 46.2234 138.352 47.2404 140.384 48.0032C142.416 48.7659 144.448 49.0202 146.734 49.0202C149.02 49.0202 151.052 48.7659 153.338 48.0032C155.37 47.4946 157.402 46.2234 159.18 44.6978C160.958 43.1723 162.228 41.3925 163.244 39.1042C164.26 36.8159 164.768 33.7648 164.768 30.2052C164.768 26.6457 164.26 23.8488 163.244 21.5605C162.228 19.2722 160.958 17.2382 159.18 15.7127C157.402 14.4414 155.624 13.4244 153.338 12.9158C151.052 12.4073 149.02 12.1531 146.734 12.1531C144.702 12.1531 142.416 12.4073 140.13 12.9158C137.844 13.4244 136.066 14.4414 134.542 15.7127C132.764 17.2382 131.494 19.2722 130.478 21.5605C129.462 24.1031 128.954 26.8999 128.954 30.2052C128.954 33.7648 129.462 36.8159 130.478 39.1042C131.494 41.3925 132.764 43.4265 134.542 44.6978ZM144.365 35.2857L144.44 35.3732C145.595 36.7219 146.354 36.867 146.734 36.867C147.433 36.867 148.18 36.6584 149.281 35.3732C150.12 34.3935 150.592 32.9725 150.592 30.2052C150.592 28.0913 150.053 26.4842 149.252 25.2787C147.993 24.0606 147.254 23.7978 146.734 23.7978C145.974 23.7978 145.171 24.0646 144.03 25.2063C143.4 25.8374 142.876 27.0527 142.876 30.2052C142.876 32.8762 143.56 34.4789 144.284 35.2041L144.365 35.2857ZM151.56 23.3403C152.83 25.1201 153.592 27.4084 153.592 30.2052C153.592 33.2563 153.084 35.5446 151.56 37.3244C150.036 39.1042 148.512 39.867 146.734 39.867C145.21 39.867 143.686 39.1042 142.162 37.3244C140.638 35.7989 139.876 33.2563 139.876 30.2052C139.876 26.8999 140.384 24.6116 141.908 23.0861C143.432 21.5605 144.956 20.7978 146.734 20.7978C148.512 20.7978 150.036 21.8148 151.56 23.3403Z" fill="white"/>
<path fill-rule="evenodd" clip-rule="evenodd" d="M176.002 36.5617C175.494 33.7649 175.494 30.4596 175.494 26.9C175.494 23.3404 175.494 18.7638 175.748 17.2383C176.002 15.7127 176.764 14.1872 177.78 13.4244C178.796 12.4074 180.574 11.8989 181.59 11.8989C183.876 11.8989 185.146 12.4074 185.908 13.6787C186.67 14.95 186.924 16.2213 186.924 17.4925C186.924 18.001 186.924 18.7638 186.67 19.7808C186.67 20.261 186.613 20.7979 186.554 21.3646C186.487 21.9983 186.416 22.6694 186.416 23.3404C186.416 24.6117 186.416 26.1372 186.162 27.6628C186.162 29.1883 186.162 30.4596 186.416 31.7309C186.416 31.9896 186.416 32.2378 186.418 32.4776C186.421 32.8443 186.43 33.1914 186.451 33.5265C186.453 33.5682 186.456 33.6098 186.459 33.6511C186.465 33.738 186.473 33.8241 186.481 33.9095C186.518 34.2933 186.577 34.6648 186.67 35.0362C186.924 35.799 187.178 36.3075 187.686 36.3075C188.194 36.3075 188.448 35.799 188.956 34.5277C188.961 34.5057 188.967 34.4835 188.973 34.4611C188.99 34.3931 189.008 34.3231 189.028 34.251C189.065 34.1147 189.105 33.9713 189.148 33.8217C189.231 33.5358 189.325 33.2273 189.427 32.9032C189.664 32.1459 189.945 31.3028 190.226 30.4596C190.353 29.6969 190.48 28.8705 190.607 28.0442C190.734 27.2178 190.861 26.3915 190.988 25.6287C190.734 23.5947 190.988 22.5777 191.242 21.8149C191.496 20.5436 192.004 19.5266 192.512 19.0181C193.274 18.5096 194.29 18.001 196.068 18.001C197.592 18.001 198.862 18.2553 199.624 19.0181C200.386 19.7808 200.894 20.5436 201.148 21.8149C201.402 22.8319 201.656 24.3574 201.91 25.883L202.672 30.4596C202.829 31.3999 202.985 32.2436 203.201 32.9907C203.246 33.1468 203.294 33.2987 203.345 33.4465C203.372 33.5256 203.4 33.6036 203.43 33.6804C203.508 33.8868 203.594 34.0845 203.688 34.2734C204.196 35.2904 204.45 35.799 204.958 35.799C205.466 35.799 205.72 35.2904 205.974 34.5277C206.102 34.1445 206.165 33.6972 206.197 33.1534C206.199 33.1085 206.202 33.063 206.204 33.0167C206.211 32.8765 206.215 32.7301 206.219 32.577C206.228 32.1748 206.228 31.7264 206.228 31.2225V22.8319C205.974 21.5607 205.974 20.2894 205.974 19.2724C205.974 18.6766 205.887 18.3426 205.815 18.0658C205.764 17.8702 205.72 17.7032 205.72 17.4925C205.466 16.7298 205.466 16.2213 205.72 15.4585C205.974 14.6957 206.228 14.1872 206.736 13.4244C207.108 13.0522 207.48 12.8162 207.951 12.5169C208.124 12.4074 208.31 12.2894 208.514 12.1532C209.276 11.8989 210.292 11.6447 211.308 11.6447C212.07 11.6447 212.832 11.8989 213.594 12.4074C214.356 12.9159 214.864 13.4244 215.118 13.6787C215.626 14.1872 215.88 14.6957 216.134 15.4585C216.388 16.2213 216.388 16.7298 216.388 17.2383C216.642 19.0181 216.896 21.0521 217.15 23.3404C217.404 25.6287 217.404 27.917 217.404 30.2052C217.277 31.3494 217.15 32.4301 217.023 33.5107C216.896 34.5913 216.769 35.6718 216.642 36.816C216.388 38.85 215.626 40.8841 214.864 42.4096C214.102 44.1894 212.832 45.4607 211.308 46.4777C209.784 47.4947 207.752 47.749 205.466 47.749C202.346 47.749 199.889 46.5544 198.095 44.2611C197.406 43.3804 196.815 42.3377 196.322 41.1383C195.785 42.3474 195.177 43.3791 194.494 44.2426C192.591 46.6477 190.101 47.749 186.924 47.749C183.622 47.749 181.082 46.732 179.558 44.6979C178.034 42.6639 176.764 40.1213 176.002 36.5617ZM196.284 46.7704C195.654 47.4703 194.959 48.0911 194.192 48.6238C192.044 50.1157 189.576 50.749 186.924 50.749C183.033 50.749 179.432 49.5326 177.157 46.4968C175.367 44.1074 173.919 41.1634 173.068 37.1897L173.059 37.1439L173.05 37.0979C172.494 34.0333 172.494 30.5009 172.494 27.0774C172.494 27.0182 172.494 26.9591 172.494 26.9V26.8851C172.494 25.115 172.494 23.0594 172.526 21.2529C172.557 19.5321 172.618 17.7695 172.789 16.7456C173.11 14.8141 174.081 12.5491 175.809 11.1571C176.697 10.3237 177.757 9.78964 178.659 9.46124C179.612 9.11408 180.661 8.89891 181.59 8.89891C182.913 8.89891 184.244 9.03912 185.457 9.53583C186.767 10.0723 187.774 10.9564 188.481 12.1363C189.56 13.9366 189.915 15.7419 189.924 17.4286C190.07 17.2398 190.225 17.0621 190.39 16.8978L190.6 16.6876L190.847 16.5227C192.001 15.7526 193.586 15.001 196.068 15.001C197.708 15.001 200.076 15.226 201.746 16.8978C202.113 17.2651 202.453 17.6522 202.758 18.0784C202.757 18.07 202.756 18.0615 202.755 18.053C202.623 17.5783 202.53 17.0547 202.53 16.4755C202.53 15.7342 202.683 15.0839 202.874 14.5107C203.223 13.4626 203.604 12.7157 204.239 11.7615L204.404 11.5143L204.614 11.3042C205.251 10.6666 206.036 10.1726 206.542 9.85423C206.662 9.77873 206.766 9.71311 206.849 9.65778L207.183 9.43464L207.565 9.3074C208.476 9.00315 209.838 8.64465 211.308 8.64465C212.774 8.64465 214.105 9.14199 215.259 9.91204C216.269 10.5856 216.943 11.2611 217.234 11.5524L217.24 11.5584C218.199 12.5181 218.646 13.5053 218.98 14.5107C219.344 15.6018 219.383 16.433 219.388 17.0228C219.637 18.7896 219.885 20.7861 220.132 23.0095C220.404 25.4633 220.404 27.8914 220.404 30.1323V30.3713L220.386 30.5363C220.258 31.6906 220.13 32.7796 220.003 33.8581L220.003 33.8608C219.875 34.9426 219.75 36.0139 219.624 37.1469L219.622 37.1674L219.619 37.1877C219.315 39.6254 218.434 41.9602 217.586 43.6744C216.528 46.0915 214.806 47.7501 212.973 48.9731C210.66 50.5169 207.843 50.749 205.466 50.749C202.749 50.749 200.27 50.0183 198.173 48.4877C197.482 47.9832 196.854 47.4077 196.284 46.7704Z" fill="white"/>
</g>
<g opacity="0.8">
<path fill-rule="evenodd" clip-rule="evenodd" d="M3.25292 116.389C3.25292 115.627 3.25292 114.101 3 112.321C3 111.431 3.06323 105.075 3.12646 98.7186C3.18969 92.3622 3.25292 86.0058 3.25292 85.1159C3.25292 83.3361 3.25293 82.3191 3.50585 81.5563C4.01169 79.268 4.77046 77.4882 6.03506 76.2169C7.55259 74.6914 8.81719 73.9286 10.0818 73.4201C10.8406 72.9116 12.611 72.6573 15.1402 72.6573H30.5684C33.0976 72.6573 38.4089 73.4201 39.9264 74.6914C41.444 75.7084 41.6969 76.9797 41.6969 78.5052C41.6969 80.0308 40.6852 80.7935 39.4206 81.5563C38.156 82.0648 36.6385 82.3191 35.121 82.3191C34.7033 82.3191 30.2231 82.242 26.1955 82.1727C22.9069 82.1162 19.9201 82.0648 19.6928 82.0648C18.934 82.0648 18.4282 82.5733 17.9223 83.3361C17.4165 84.0989 17.1636 84.8616 17.1636 85.6244V93.5063H32.5918C32.5918 93.5063 37.6502 94.5234 37.6502 97.8287C37.3972 101.643 32.5918 102.66 32.5918 102.66H17.1636V112.83C17.1636 114.355 17.1636 115.881 16.9106 116.898C16.6577 118.169 16.4048 119.186 15.899 120.203C15.3931 121.22 14.8873 121.729 13.8756 122.237C12.8639 122.746 11.8522 123 10.3347 123C9.0701 123 7.80549 122.746 7.04673 122.491C6.03507 122.237 5.52924 121.729 5.0234 121.22C4.51753 120.457 4.26461 119.949 4.01169 118.932C3.75879 118.169 3.50582 117.406 3.25292 116.389ZM1.13 119.773C0.884486 119.032 0.612047 118.201 0.341593 117.113L0.252917 116.757V116.389C0.252917 115.648 0.251139 114.301 0.0298405 112.743L0 112.533V112.321C0 111.416 0.06287 105.096 0.125606 98.7894L0.126607 98.6887C0.19 92.3159 0.252917 85.986 0.252917 85.1159C0.252917 85.0022 0.252706 84.8881 0.252495 84.7736C0.249966 83.4038 0.247352 81.9873 0.604759 80.7827C1.1686 78.2911 2.09769 75.9212 3.90816 74.1012C5.61398 72.3864 7.15059 71.3998 8.7303 70.7325C9.62234 70.2313 10.6575 70.007 11.5052 69.8808C12.5567 69.7242 13.7912 69.6573 15.1402 69.6573H30.5684C32.058 69.6573 34.2095 69.8734 36.1886 70.2507C37.187 70.4411 38.2108 70.6853 39.1284 70.9912C39.9219 71.2557 40.9109 71.653 41.7141 72.2795C42.8695 73.0828 43.6881 74.0919 44.1682 75.2985C44.6319 76.4639 44.6969 77.6162 44.6969 78.5052C44.6969 81.8252 42.2279 83.3665 40.9701 84.1252L40.7636 84.2497L40.5398 84.3397C38.8543 85.0175 36.9449 85.3191 35.121 85.3191C34.7073 85.3191 30.9303 85.2546 27.2605 85.1915C26.8854 85.1851 26.5107 85.1786 26.1399 85.1722C24.6818 85.1472 23.2838 85.1231 22.1594 85.1041C21.4542 85.0922 20.8577 85.0823 20.4221 85.0754C20.4048 85.0751 20.3878 85.0748 20.3711 85.0746C20.1747 85.3936 20.1636 85.5654 20.1636 85.6244V90.5063H32.8903L33.1831 90.5652L32.5918 93.5063C33.1831 90.5652 33.184 90.5654 33.185 90.5656L33.1913 90.5668L33.2014 90.5689L33.2273 90.5743C33.2368 90.5763 33.2474 90.5786 33.2592 90.5812C33.2718 90.5839 33.2858 90.587 33.3011 90.5904C33.3597 90.6034 33.437 90.6214 33.5305 90.6445C33.7168 90.6907 33.9707 90.7585 34.2703 90.8514C34.8588 91.0338 35.6759 91.3287 36.5212 91.7748C38.0246 92.5683 40.6502 94.4185 40.6502 97.8287V97.928L40.6436 98.0272C40.4235 101.346 38.1916 103.285 36.556 104.255C35.7134 104.754 34.9033 105.08 34.3146 105.281C34.0157 105.382 33.7618 105.456 33.5735 105.507C33.479 105.532 33.4002 105.551 33.3395 105.566C33.3091 105.573 33.2832 105.579 33.262 105.584L33.2338 105.59L33.2224 105.593L33.2174 105.594L33.2151 105.594C33.214 105.594 33.2129 105.595 32.5918 102.66L33.2129 105.595L32.9057 105.66H20.1636V112.83C20.1636 112.9 20.1636 112.972 20.1637 113.046C20.1647 114.371 20.1662 116.169 19.8409 117.544C19.5793 118.851 19.265 120.172 18.5851 121.539C18.2425 122.228 17.8188 122.908 17.2039 123.527C16.5886 124.145 15.9103 124.572 15.2229 124.918C13.7464 125.66 12.2648 126 10.3347 126C8.78202 126 7.24797 125.708 6.19977 125.371C4.45114 124.9 3.48608 123.929 2.93119 123.371L2.6872 123.126L2.52319 122.878C1.87017 121.894 1.4688 121.091 1.13 119.773Z" fill="white"/>
<path fill-rule="evenodd" clip-rule="evenodd" d="M74.7578 84.6037L74.933 84.7799C76.6474 86.5034 78.4936 88.9224 79.4475 91.7993C80.3154 94.4169 80.8646 97.5349 80.8646 101.388C80.8646 105.214 80.3232 108.591 79.4475 111.231L79.4021 111.368L79.3438 111.5C78.1806 114.131 76.7047 116.216 74.933 117.997C73.1486 119.79 70.73 121.361 68.1435 122.051C65.7494 122.928 63.402 123.203 61.1718 123.203C58.893 123.203 56.4918 122.916 54.0434 121.993C51.764 121.134 49.6275 119.939 47.7586 118.091C45.9186 116.517 44.1385 114.119 43.1947 111.367C41.9562 108.474 41.7319 104.912 41.7319 101.388C41.7319 97.759 42.2901 94.6726 43.1218 91.8856L43.176 91.7039L43.2527 91.5305C44.3617 89.0221 45.8102 86.643 47.6635 84.7799L47.7595 84.6834L47.8638 84.596C49.6437 83.1049 51.7955 81.8458 54.3211 81.2018C56.4028 80.6097 58.6973 80.3361 61.1718 80.3361C63.4493 80.3361 65.7181 80.6226 67.9731 81.1893C70.5194 81.8292 72.6452 83.0868 74.5559 84.4588L74.7578 84.6037ZM55.1017 84.0988C53.0783 84.6073 51.3079 85.6244 49.7903 86.8956C48.2728 88.4212 47.0082 90.4552 45.9965 92.7435C45.2378 95.2861 44.7319 98.0829 44.7319 101.388C44.7319 104.948 44.9849 107.999 45.9965 110.287C46.7553 112.575 48.2728 114.61 49.7903 115.881C51.3079 117.406 53.0783 118.423 55.1017 119.186C57.1251 119.949 59.1484 120.203 61.1718 120.203C63.1952 120.203 65.2185 119.949 67.2419 119.186C69.2653 118.678 71.2886 117.406 72.8061 115.881C74.3237 114.355 75.5883 112.575 76.6 110.287C77.3587 107.999 77.8646 104.948 77.8646 101.388C77.8646 97.8286 77.3587 95.0318 76.6 92.7435C75.8412 90.4552 74.3237 88.4212 72.8061 86.8956C71.0357 85.6244 69.2653 84.6073 67.2419 84.0988C65.2185 83.5903 63.1952 83.3361 61.1718 83.3361C58.8955 83.3361 56.8721 83.5903 55.1017 84.0988ZM59.0803 106.473L59.155 106.561C59.8019 107.32 60.2511 107.687 60.5541 107.867C60.8015 108.014 60.97 108.05 61.1718 108.05C61.5306 108.05 62.2526 107.917 63.3531 106.663C64.168 105.47 64.7477 103.835 64.7477 101.388C64.7477 99.219 64.1837 97.583 63.3531 96.3675C62.2526 95.1135 61.5306 94.9808 61.1718 94.9808C60.7492 94.9808 59.9854 95.1742 58.8509 96.281C58.2062 97.1145 57.5958 98.6243 57.5958 101.388C57.5958 104.062 58.2779 105.667 58.999 106.392L59.0803 106.473ZM56.6192 94.2691C58.1368 92.7435 59.6543 91.9808 61.1718 91.9808C62.6893 91.9808 64.2068 92.7435 65.7244 94.5233C66.989 96.3031 67.7477 98.5914 67.7477 101.388C67.7477 104.439 66.989 106.728 65.7244 108.507C64.2068 110.287 62.6893 111.05 61.1718 111.05C59.6543 111.05 58.3897 110.287 56.8721 108.507C55.3546 106.982 54.5958 104.439 54.5958 101.388C54.5958 98.0829 55.3546 95.7946 56.6192 94.2691Z" fill="white"/>
<path fill-rule="evenodd" clip-rule="evenodd" d="M87.9815 84.8616C88.3126 84.8616 88.692 84.8131 89.1196 84.7585C89.6716 84.688 90.3039 84.6073 91.0165 84.6073C93.0399 84.3531 94.5574 84.6073 95.3162 85.3701C95.6972 85.7532 96.0783 86.1363 96.4274 86.5516C96.7733 86.9632 97.0877 87.4064 97.3395 87.9126C97.6928 87.6759 98.101 87.4942 98.5384 87.3163C98.6483 87.2717 98.76 87.2272 98.8732 87.1822C99.2771 87.0216 99.6994 86.8536 100.122 86.6414C101.133 86.3871 102.398 86.1328 103.915 86.1328C106.445 86.1328 108.468 86.3871 109.986 86.8956C111.756 87.4041 113.021 88.1669 114.032 89.1839C115.044 90.2009 116.056 91.4722 116.562 92.4892C117.067 93.5063 117.573 94.7775 117.826 95.7946V97.5744C117.826 98.3371 117.573 98.8456 117.067 99.6084C116.814 100.117 116.309 100.625 115.803 100.88C115.044 101.388 114.285 101.642 113.021 101.897C111.25 102.151 109.986 101.897 109.227 101.134C108.468 100.371 107.962 99.6084 107.709 98.5914C107.456 98.0829 106.951 97.5744 106.192 96.8117C105.433 96.049 104.168 96.0488 102.398 96.0488C101.386 96.0488 100.628 96.3031 100.122 96.8116C99.5759 97.1773 99.2919 97.5431 99.0813 97.8142C98.9991 97.92 98.9281 98.0115 98.8571 98.0829C98.6042 98.8456 98.3512 99.3541 98.0983 99.8626C97.8454 100.371 97.8454 100.88 97.8454 101.388C97.8454 103.422 97.8454 105.456 97.5925 107.49C97.5925 108.507 97.5292 109.524 97.466 110.541C97.4028 111.558 97.3395 112.575 97.3395 113.592C97.0866 115.627 96.3278 117.152 95.0632 117.915C93.7986 118.932 92.2811 119.186 90.5107 119.186C88.7402 119.186 87.2227 118.678 86.4639 117.661C85.4522 116.644 84.9464 115.372 84.9464 113.592C84.9464 110.287 84.9464 106.728 85.1993 102.659C85.4522 98.8456 85.4522 94.7775 85.1993 91.218C85.1993 90.4552 85.1993 89.6924 85.4522 88.9297C85.4522 88.1669 85.9581 87.1499 86.211 86.6414C86.7168 85.8786 87.2227 85.3701 87.9815 84.8616ZM82.4809 88.4024C82.5586 87.6721 82.7776 87.0291 82.9349 86.6181C83.145 86.0689 83.388 85.5806 83.5146 85.3262C83.5181 85.319 83.5216 85.3121 83.5249 85.3054L83.6079 85.1386L83.7108 84.9833C84.4351 83.8912 85.2228 83.0989 86.3113 82.3695L87.0691 81.8616H87.9815C88.1108 81.8616 88.2852 81.8396 88.8107 81.7735C88.8502 81.7685 88.8917 81.7633 88.9353 81.7578C89.4258 81.6962 90.0776 81.6203 90.825 81.6088C91.9675 81.4778 93.1039 81.468 94.1572 81.6521C95.2473 81.8427 96.4776 82.2838 97.4431 83.2543C97.4712 83.2827 97.5 83.3116 97.5294 83.3411C97.7653 83.5778 98.0389 83.8523 98.3258 84.1667C98.4825 84.1003 98.6269 84.035 98.7744 83.9609L99.0698 83.8124L99.3904 83.7318C100.526 83.4464 102.056 83.1328 103.915 83.1328C106.575 83.1328 108.938 83.392 110.876 84.0301C113.057 84.6661 114.765 85.6664 116.159 87.0682C117.282 88.1974 118.54 89.731 119.248 91.1532C119.819 92.3017 120.417 93.7825 120.737 95.0706L120.826 95.4271V97.5744C120.826 99.1576 120.232 100.249 119.652 101.139C119.129 102.087 118.283 102.937 117.334 103.463C116.15 104.224 114.985 104.562 113.612 104.838L113.53 104.854L113.447 104.866C111.356 105.167 108.87 105.029 107.1 103.25C106.184 102.329 105.405 101.259 104.95 99.8506C104.934 99.831 104.915 99.8088 104.893 99.7841C104.741 99.6122 104.544 99.4103 104.251 99.1143C104.243 99.1131 104.235 99.1119 104.227 99.1106C104.075 99.0878 103.858 99.0694 103.537 99.0593C103.213 99.0491 102.852 99.0488 102.398 99.0488C102.27 99.0488 102.176 99.057 102.113 99.066C102.112 99.0662 102.111 99.0663 102.11 99.0664L102.039 99.1381L101.792 99.3037C101.686 99.3745 101.633 99.4294 101.583 99.489C101.559 99.5168 101.539 99.5418 101.509 99.5799C101.276 100.197 101.045 100.673 100.849 101.069C100.849 101.078 100.848 101.088 100.848 101.1C100.846 101.173 100.845 101.253 100.845 101.388L100.845 101.467C100.845 103.395 100.845 105.52 100.592 107.676C100.585 108.723 100.521 109.752 100.463 110.687L100.46 110.728C100.396 111.76 100.34 112.684 100.34 113.592V113.778L100.317 113.963C100.016 116.377 99.0479 118.914 96.7898 120.373C94.7644 121.925 92.4724 122.186 90.5107 122.186C88.4243 122.186 85.81 121.627 84.1995 119.635C82.6397 117.994 81.9464 115.966 81.9464 113.592V113.565C81.9464 110.271 81.9464 106.634 82.2051 102.473L82.2059 102.461C82.4504 98.7744 82.4494 94.844 82.2069 91.4306L82.1993 91.3244V91.218C82.1993 91.1848 82.1993 91.1505 82.1992 91.1149C82.1982 90.4847 82.1967 89.4804 82.4809 88.4024Z" fill="white"/>
<path fill-rule="evenodd" clip-rule="evenodd" d="M156.702 108.38C157.324 108.848 157.556 109.334 157.788 110.033C158.041 110.796 158.041 111.304 158.041 112.321C158.041 112.829 157.816 113.338 157.591 113.847C157.479 114.101 157.366 114.355 157.282 114.61C155.258 116.898 152.982 118.423 150.453 119.186C147.924 120.203 144.889 120.457 141.348 120.457C139.072 120.457 137.048 120.203 134.772 119.44C132.748 118.678 130.725 117.661 128.955 116.389C127.184 115.372 125.667 113.593 124.908 111.558C123.896 109.524 123.39 106.982 123.39 104.439C123.39 100.88 123.896 97.8287 124.908 95.5404C125.92 93.252 127.184 91.218 128.955 89.6925C130.472 88.1669 132.496 86.8957 134.519 86.3871C136.795 85.6244 139.072 85.3701 141.095 85.3701C143.371 85.3701 145.647 85.6244 147.671 86.1329C149.947 86.6414 151.718 87.4042 153.235 88.6754C155.006 89.9467 156.523 91.4723 157.282 93.2521C158.294 95.0318 158.546 97.0659 158.546 99.3542C158.546 101.642 158.041 103.422 156.776 104.694C156.712 104.758 156.645 104.821 156.575 104.883C156.047 105.354 155.367 105.748 154.537 106.048C154.442 106.083 154.345 106.116 154.247 106.147C153.086 106.522 151.652 106.728 149.947 106.728H139.324V106.219C137.979 106.219 136.989 106.279 136.324 106.397C135.615 106.524 135.278 106.719 135.278 106.982C135.278 107.776 135.586 108.571 136.324 109.365C136.437 109.486 136.559 109.607 136.691 109.728C136.803 109.829 136.922 109.931 137.048 110.033C138.313 111.05 139.83 111.304 141.854 111.304C144.13 111.304 145.647 111.05 146.912 110.541C147.378 110.307 147.843 110.02 148.284 109.728C148.575 109.535 148.855 109.34 149.118 109.158C149.322 109.016 149.515 108.882 149.694 108.762C149.779 108.713 149.863 108.665 149.947 108.619C151.61 107.698 153.043 107.248 154.247 107.49C155.006 107.49 156.017 107.745 156.523 108.253C156.586 108.295 156.646 108.338 156.702 108.38ZM159.155 106.545C159.409 106.8 159.64 107.079 159.845 107.39C160.259 108.014 160.485 108.637 160.635 109.089C161.042 110.316 161.041 111.251 161.041 112.203C161.041 112.242 161.041 112.282 161.041 112.321C161.041 113.323 160.715 114.162 160.527 114.614C160.396 114.93 160.319 115.099 160.265 115.218C160.206 115.348 160.174 115.418 160.129 115.554L159.936 116.137L159.529 116.597C157.227 119.2 154.535 121.06 151.447 122.019C148.385 123.219 144.908 123.457 141.348 123.457C138.811 123.457 136.457 123.169 133.819 122.285L133.766 122.267L133.714 122.248C131.539 121.428 129.317 120.324 127.323 118.911C125.039 117.554 123.149 115.317 122.154 112.756C120.941 110.251 120.39 107.288 120.39 104.439C120.39 100.643 120.923 97.1343 122.164 94.3273C123.259 91.8502 124.724 89.409 126.909 87.4958C128.698 85.7232 131.104 84.1802 133.672 83.5074C136.288 82.6463 138.859 82.3701 141.095 82.3701C143.567 82.3701 146.078 82.6434 148.364 83.2137C150.902 83.7849 153.116 84.691 155.073 86.3023C156.979 87.6845 158.907 89.5313 159.973 91.9175C161.299 94.3366 161.546 96.9443 161.546 99.3542C161.546 101.933 161.001 104.522 159.155 106.545ZM147.266 95.0829C147.29 95.1049 147.314 95.1266 147.338 95.148C147.373 95.1794 147.407 95.2101 147.441 95.2403C147.521 95.3126 147.598 95.3817 147.671 95.448C148.035 95.7793 148.299 96.0412 148.43 96.3031C148.682 96.5574 148.682 96.8116 148.682 97.32C148.682 97.8285 148.43 98.0829 147.671 98.0829H137.048C136.036 98.0829 135.531 97.8287 135.784 96.8116C136.036 96.0489 136.542 95.2861 137.807 94.2691C138.819 93.5063 140.336 92.9978 142.107 92.9978C143.877 92.9978 145.395 93.5063 146.406 94.2691C146.72 94.5841 147.009 94.8503 147.266 95.0829Z" fill="white"/>
<path fill-rule="evenodd" clip-rule="evenodd" d="M174.662 106.731C174.828 107.05 175.017 107.318 175.213 107.595C175.305 107.725 175.398 107.858 175.492 107.999C176.251 109.016 177.009 109.524 178.274 109.779C179.286 110.033 180.55 110.287 181.814 110.541C182.826 110.541 183.838 110.287 184.597 110.033C185.356 109.779 185.609 109.27 185.609 108.507C185.862 107.745 185.356 106.982 184.344 106.473C183.333 105.965 182.068 105.711 180.55 105.456C179.293 105.095 178.163 104.734 177.071 104.373C176.629 104.227 176.193 104.081 175.757 103.935C175.753 103.933 175.749 103.932 175.745 103.931C174.802 103.615 173.957 103.201 173.209 102.688C173.141 102.642 173.073 102.594 173.006 102.545C172.628 102.271 172.277 101.97 171.951 101.642C171.647 101.413 171.342 101.184 171.045 100.94C170.354 100.375 169.699 99.7345 169.169 98.8456C168.41 97.5743 168.157 96.0488 168.157 94.269C168.157 91.4722 169.422 88.9296 171.698 86.8956C173.974 84.8615 177.262 83.8445 181.562 83.8445C183.585 83.8445 185.356 83.8445 186.873 84.0988C188.391 84.353 189.655 84.8615 190.92 85.37C191.932 85.8785 192.944 86.3871 193.702 87.1498C194.461 87.9126 194.967 88.4211 195.22 89.1839C195.979 90.4552 195.979 91.7264 195.726 92.4892C195.473 93.5062 194.967 94.269 194.208 94.7775C193.196 95.5403 192.185 95.7945 190.667 95.7945C189.15 95.7945 187.885 95.286 186.873 94.0147C186.368 93.252 185.862 92.9977 185.103 92.7435C184.344 92.4892 183.585 92.4892 182.827 92.4892C181.815 92.4892 181.309 92.7435 180.803 92.9977C180.297 93.252 180.045 93.7605 180.045 94.5233C180.045 95.286 180.297 95.7945 181.056 96.303C181.815 96.8116 182.574 97.0658 183.838 97.3201C184.686 97.7461 185.711 97.9936 186.616 98.2122C186.791 98.2546 186.962 98.2958 187.126 98.3371C188.138 98.5913 188.897 98.8456 189.655 99.0999C194.714 100.88 197.243 104.185 197.243 109.27C197.243 110.541 196.99 111.813 196.484 112.83C195.979 113.847 195.22 115.118 193.955 116.135C192.944 117.152 191.426 117.661 189.656 118.169C187.885 118.678 185.609 118.932 183.08 119.186C180.297 119.186 178.274 118.932 176.504 118.678C174.733 118.423 173.216 117.915 171.951 117.152C170.939 116.644 169.928 116.135 169.169 115.118C168.41 114.355 167.904 113.338 167.399 112.321C166.387 111.304 166.134 110.033 166.134 108.507C166.134 106.982 166.64 105.965 167.399 105.202C168.121 104.475 169.074 104.21 170.037 103.967C170.041 103.966 170.044 103.965 170.047 103.964C170.092 103.953 170.136 103.942 170.181 103.931C170.196 103.931 170.211 103.931 170.226 103.931C170.979 103.931 171.961 103.936 172.457 104.185C173.216 104.439 173.722 104.948 174.227 105.456C174.334 105.991 174.485 106.391 174.662 106.731ZM167.478 101.632C166.749 101.94 165.961 102.393 165.272 103.086C163.946 104.419 163.134 106.2 163.134 108.507C163.134 110.203 163.389 112.265 164.899 114.033C165.335 114.905 165.961 116.089 166.894 117.081C168.066 118.562 169.556 119.308 170.482 119.771C170.491 119.776 170.5 119.78 170.509 119.785C172.156 120.756 174.036 121.354 176.077 121.647C177.913 121.911 180.094 122.186 183.08 122.186H183.23L183.38 122.171C185.849 121.923 188.406 121.649 190.484 121.052C192.108 120.586 194.324 119.936 195.957 118.373C197.636 116.982 198.597 115.319 199.171 114.166C199.925 112.649 200.243 110.9 200.243 109.27C200.243 106.211 199.473 103.446 197.745 101.144C196.84 99.9384 195.726 98.9327 194.446 98.1006C194.953 97.8769 195.453 97.5885 195.951 97.2205C197.346 96.2584 198.202 94.8728 198.611 93.3148C199.075 91.8025 198.979 89.801 197.947 87.9111C197.437 86.6386 196.563 85.7663 195.959 85.1644C195.914 85.1195 195.871 85.0761 195.829 85.0341C194.719 83.9182 193.322 83.2183 192.4 82.756C192.354 82.7333 192.31 82.7112 192.267 82.6896L192.156 82.6334L191.958 82.5538C190.731 82.0604 189.21 81.4484 187.369 81.14C185.603 80.844 183.618 80.8443 181.718 80.8445C181.666 80.8445 181.614 80.8445 181.562 80.8445C176.825 80.8445 172.714 81.9645 169.699 84.6586C166.889 87.1697 165.157 90.4889 165.157 94.269C165.157 96.2904 165.435 98.4437 166.593 100.383C166.869 100.846 167.169 101.26 167.478 101.632Z" fill="white"/>
<path fill-rule="evenodd" clip-rule="evenodd" d="M210.395 95.8333C210.395 95.8333 210.395 107.021 210.648 109.817C210.901 112.614 211.66 116.682 213.43 118.716C215.201 120.75 217.73 122.022 220.512 122.53C221.271 122.53 222.03 122.467 222.788 122.403C223.547 122.339 224.306 122.276 225.065 122.276C226.582 122.022 228.1 121.767 229.364 121.005C230.629 120.496 231.388 119.733 232.146 118.716C232.905 117.954 233.158 116.682 232.905 115.157C232.652 114.14 232.399 113.631 231.641 113.123C231.135 112.614 229.87 112.36 228.1 112.36C228.011 112.36 227.895 112.363 227.757 112.368C226.718 112.399 224.47 112.466 223.8 111.343C222.03 108.546 223.041 95.579 223.041 95.579C223.041 95.579 228.606 95.3248 229.617 94.8163C230.882 94.562 231.388 92.528 231.388 90.7482C231.388 89.7312 231.135 88.9684 230.882 88.4599C230.629 87.9514 230.123 87.4429 229.364 86.9343C228.353 86.6801 227.594 86.6801 226.835 86.6801H223.294L224.053 80.8322C224.053 79.0524 224.053 77.5269 223.294 76.0013C222.535 74.4758 221.271 73.713 218.995 73.4588C217.224 73.2045 215.707 73.4588 214.189 74.2215C212.672 75.2386 212.166 76.2556 211.66 78.7982C211.506 79.2626 211.258 81.7062 211.031 83.9485C210.885 85.3891 210.747 86.7467 210.648 87.4429C208.878 87.4429 205.084 87.6971 204.072 88.4599C202.808 88.9684 202.302 89.9854 202.302 91.7652C202.302 92.528 202.808 94.3078 204.072 95.0705C205.337 95.8333 210.395 95.8333 210.395 95.8333ZM202.645 85.8096C203.324 85.4022 204.062 85.1904 204.552 85.0684C205.24 84.8966 205.997 84.7751 206.711 84.6876C207.123 84.6371 207.541 84.5954 207.953 84.5616C207.981 84.2854 208.01 83.9981 208.04 83.7039C208.082 83.2899 208.126 82.8621 208.17 82.432C208.265 81.5091 208.362 80.5935 208.453 79.8543C208.498 79.4863 208.545 79.1394 208.591 78.8464C208.618 78.6774 208.664 78.3885 208.741 78.0977C209 76.815 209.32 75.592 209.908 74.507C210.574 73.2805 211.464 72.4365 212.519 71.7295L212.674 71.6252L212.842 71.5411C214.901 70.506 217.024 70.1538 219.374 70.4826C220.74 70.6392 222.068 70.9745 223.246 71.6741C224.492 72.4146 225.374 73.446 225.98 74.6653C227.057 76.8308 227.055 78.9822 227.053 80.6331C227.053 80.7003 227.053 80.7667 227.053 80.8322V81.026L226.709 83.6801L226.876 83.6801C227.658 83.68 228.723 83.6798 230.096 84.0248L230.601 84.1519L231.034 84.4422C231.99 85.0824 232.982 85.946 233.568 87.1239C234.003 87.9985 234.388 89.2157 234.388 90.7482C234.388 91.8703 234.235 93.2041 233.787 94.4028C233.413 95.4056 232.514 97.1097 230.569 97.6697C230.229 97.7986 229.909 97.8758 229.698 97.9229C229.346 98.0017 228.962 98.066 228.589 98.1195C227.841 98.2271 226.983 98.3123 226.2 98.3779C226.091 98.387 225.983 98.3958 225.876 98.4043C225.821 99.5512 225.77 100.968 225.757 102.439C225.741 104.189 225.781 105.954 225.921 107.414C225.991 108.145 226.081 108.743 226.184 109.196C226.196 109.248 226.207 109.296 226.219 109.339C226.236 109.341 226.253 109.343 226.271 109.345C226.549 109.375 226.861 109.383 227.183 109.38C227.341 109.378 227.49 109.374 227.639 109.37L227.677 109.369C227.8 109.365 227.963 109.36 228.1 109.36C229.106 109.36 230.09 109.43 230.966 109.616C231.667 109.764 232.673 110.06 233.509 110.768C234.094 111.19 234.621 111.712 235.039 112.412C235.461 113.12 235.672 113.852 235.817 114.433L235.845 114.548L235.865 114.666C236.182 116.577 236.017 118.928 234.441 120.656C233.558 121.814 232.465 122.936 230.703 123.697C228.992 124.664 227.081 124.982 225.742 125.204C225.68 125.215 225.62 125.225 225.56 125.235L225.314 125.276H225.065C224.452 125.276 223.819 125.327 223.039 125.393L222.99 125.397C222.262 125.458 221.397 125.53 220.512 125.53H220.24L219.973 125.481C216.656 124.875 213.467 123.328 211.167 120.686C209.838 119.158 209.059 117.112 208.576 115.343C208.074 113.504 207.798 111.605 207.66 110.088C207.52 108.54 207.458 104.899 207.427 101.807C207.416 100.701 207.409 99.6382 207.404 98.7242C206.673 98.6732 205.858 98.5952 205.107 98.4717C204.459 98.3651 203.383 98.1581 202.523 97.6394C201.18 96.8292 200.402 95.5982 199.975 94.6436C199.553 93.7016 199.302 92.6479 199.302 91.7652C199.302 90.6378 199.454 89.3861 200.058 88.2379C200.659 87.0974 201.573 86.307 202.645 85.8096Z" fill="white"/>
</g>
</svg>
