<svg width="24" height="24" viewBox="0 0 24 24" fill="none" xmlns="http://www.w3.org/2000/svg">
<path d="M23.2844 4.077C22.996 3.73944 22.635 3.46795 22.227 3.28182C21.8189 3.09568 21.3739 2.99946 20.9234 3H4.34871L4.30566 2.649C4.21754 1.91942 3.85806 1.24673 3.29535 0.758478C2.73265 0.270223 2.00585 0.000341793 1.25274 0L1.02516 0C0.753268 0 0.492515 0.105357 0.300261 0.292893C0.108007 0.48043 0 0.734784 0 1C0 1.26522 0.108007 1.51957 0.300261 1.70711C0.492515 1.89464 0.753268 2 1.02516 2H1.25274C1.50384 2.00003 1.74619 2.08996 1.93383 2.25272C2.12147 2.41547 2.24134 2.63975 2.27072 2.883L3.68134 14.583C3.82778 15.7998 4.42711 16.9218 5.36557 17.736C6.30403 18.5502 7.5163 19 8.77226 19H20.1614C20.4333 19 20.694 18.8946 20.8863 18.7071C21.0786 18.5196 21.1866 18.2652 21.1866 18C21.1866 17.7348 21.0786 17.4804 20.8863 17.2929C20.694 17.1054 20.4333 17 20.1614 17H8.77226C8.13775 16.9983 7.51931 16.8051 7.00175 16.4471C6.48418 16.089 6.09282 15.5835 5.88132 15H18.1012C19.303 15.0001 20.4666 14.5882 21.3887 13.8364C22.3108 13.0846 22.9328 12.0407 23.146 10.887L23.9507 6.533C24.0311 6.10101 24.013 5.65707 23.8978 5.23264C23.7827 4.80821 23.5733 4.41368 23.2844 4.077ZM21.9383 6.178L21.1326 10.532C21.0046 11.225 20.6307 11.852 20.0765 12.3032C19.5223 12.7544 18.8231 13.0011 18.1012 13H5.55532L4.59065 5H20.9234C21.074 4.99912 21.223 5.03062 21.3597 5.09226C21.4964 5.15389 21.6175 5.24415 21.7144 5.35661C21.8113 5.46907 21.8816 5.60097 21.9203 5.74294C21.959 5.8849 21.9651 6.03344 21.9383 6.178Z" fill="white"/>
<path d="M6.49265 24C7.43628 24 8.20124 23.2538 8.20124 22.3333C8.20124 21.4128 7.43628 20.6667 6.49265 20.6667C5.54902 20.6667 4.78406 21.4128 4.78406 22.3333C4.78406 23.2538 5.54902 24 6.49265 24Z" fill="white"/>
<path d="M18.7945 24C19.7382 24 20.5031 23.2538 20.5031 22.3333C20.5031 21.4128 19.7382 20.6667 18.7945 20.6667C17.8509 20.6667 17.0859 21.4128 17.0859 22.3333C17.0859 23.2538 17.8509 24 18.7945 24Z" fill="white"/>
</svg>
