<svg width="16" height="16" viewBox="0 0 16 16" fill="none" xmlns="http://www.w3.org/2000/svg">
<path d="M5.625 13.2572H6.25V8.74284H5.625C5.27981 8.74284 5 8.46303 5 8.11784V6.625C5 6.27981 5.27981 6 5.625 6H9.125C9.47019 6 9.75 6.27981 9.75 6.625V13.2572H10.375C10.7202 13.2572 11 13.537 11 13.8822V15.375C11 15.7202 10.7202 16 10.375 16H5.625C5.27981 16 5 15.7202 5 15.375V13.8822C5 13.537 5.27981 13.2572 5.625 13.2572ZM8 0C6.75734 0 5.75 1.00734 5.75 2.25C5.75 3.49266 6.75734 4.5 8 4.5C9.24266 4.5 10.25 3.49266 10.25 2.25C10.25 1.00734 9.24263 0 8 0Z" fill="#555555"/>
</svg>
