<svg width="16" height="16" viewBox="0 0 16 16" fill="none" xmlns="http://www.w3.org/2000/svg">
<path d="M8 0C6.06694 0 4.5 1.80216 4.5 3.73425C4.5 5.29625 6.7875 8.14316 7.66389 9.17653C7.84139 9.38587 8.15889 9.38587 8.33611 9.17653C9.2125 8.14316 11.5 5.29625 11.5 3.73425C11.5 1.80216 9.93305 0 8 0ZM8 4.90033C7.35556 4.90033 6.83333 4.37837 6.83333 3.73425C6.83333 3.09013 7.35556 2.56816 8 2.56816C8.64444 2.56816 9.16667 3.09013 9.16667 3.73425C9.16667 4.37837 8.64444 4.90033 8 4.90033ZM0.558889 6.23161C0.393938 6.29756 0.252536 6.41138 0.152919 6.5584C0.0533024 6.70543 3.95058e-05 6.87891 0 7.05648L0 15.5552C0 15.8695 0.3175 16.0844 0.609444 15.9678L4.44444 14.2231V6.20302C4.19889 5.75935 3.99806 5.32734 3.85417 4.91422L0.558889 6.23161ZM8 10.2218C7.60917 10.2218 7.23944 10.0503 6.98583 9.75097C6.43972 9.10685 5.85889 8.37332 5.33333 7.62092V14.2228L10.6667 15.9997V7.6212C10.1411 8.37332 9.56056 9.10712 9.01417 9.75125C8.76056 10.0503 8.39083 10.2218 8 10.2218ZM15.3906 4.71043L11.5556 6.45511V16L15.4411 14.4466C15.6061 14.3807 15.7475 14.2669 15.8471 14.1198C15.9467 13.9728 16 13.7993 16 13.6217V5.123C16 4.80871 15.6825 4.59382 15.3906 4.71043Z" fill="#CCCCCC"/>
</svg>
