<svg width="28" height="40" viewBox="0 0 28 40" fill="none" xmlns="http://www.w3.org/2000/svg">
<path d="M13.9948 6C10.6568 6 7.59478 8.16105 6.46322 11.2974C5.32589 14.4511 6.33535 18.0583 8.91573 20.1886C10.1954 21.2323 11.7653 21.8571 13.4125 21.9783C15.0597 22.0995 16.7042 21.7112 18.123 20.866C20.9793 19.1364 22.4992 15.73 21.8522 12.4534C21.1216 8.75296 17.7673 6 13.9948 6Z" fill="white"/>
<path d="M23.8979 4.11278C20.4959 0.703001 15.4657 -0.732807 10.7823 0.368692C7.21166 1.20761 4.05944 3.48443 2.11489 6.59933C1.12589 8.18393 0.463562 9.95105 0.166988 11.7964C-0.154385 13.8052 0.0150901 15.8438 0.445261 17.8236C1.25455 21.5493 2.95222 25.0564 4.88757 28.316C6.57435 31.1565 8.49673 33.8579 10.5672 36.4296C11.1952 37.21 11.8395 37.9775 12.5001 38.732C12.8461 39.125 13.2822 39.7299 13.7768 39.9014C13.8605 39.9295 13.9797 39.9853 14.0668 39.9912C14.1818 39.9962 14.3291 39.9329 14.4392 39.8922C14.7003 39.7953 14.9233 39.5847 15.1116 39.3821C15.2071 39.2798 15.2987 39.1724 15.3912 39.0696C15.946 38.4404 16.485 37.7987 17.0135 37.1481C19.0033 34.6997 20.8541 32.1301 22.507 29.4414C24.5076 26.1872 26.2777 22.7078 27.2719 19.0019C27.8126 16.9885 28.1289 14.8681 27.9448 12.7817C27.6545 9.50503 26.2217 6.43564 23.8979 4.11278ZM22.4484 17.1399C20.97 21.1776 16.7156 23.673 12.4787 22.9482C9.26334 22.3991 6.53418 20.0501 5.47591 16.9621C4.39463 13.8023 5.1876 10.218 7.487 7.80485C9.94751 5.22267 13.7998 4.32335 17.1424 5.58172C21.1478 7.08716 23.5971 11.3568 22.8635 15.5879C22.7718 16.1167 22.6325 16.6362 22.4476 17.1399H22.4484Z" fill="url(#paint0_linear_141_64)"/>
<path opacity="0.3" d="M28 14.0355C28 17.6152 26.7685 21.1613 25.2683 24.3647C23.8389 27.4167 22.0629 30.3021 20.1213 33.0513C18.7898 34.9359 17.3746 36.7656 15.8723 38.5172C15.6213 38.8108 15.3702 39.1045 15.1103 39.3847C14.9258 39.5826 14.7078 39.7857 14.4563 39.888C14.3755 39.9203 14.0667 40.0629 13.996 39.9652C13.9583 39.9149 13.996 39.6884 13.996 39.6296V23.5224C13.996 23.4415 13.9487 23.1726 13.996 23.103C14.0558 23.014 14.5722 23.061 14.7074 23.0497C16.3581 22.9175 17.9399 22.3293 19.2773 21.3505C20.7119 20.3088 21.8082 18.8661 22.429 17.2029C23.0498 15.5398 23.1674 13.7301 22.7673 12.0003C22.3671 10.2704 21.4669 8.69731 20.1794 7.47775C18.8918 6.25818 17.2739 5.44635 15.5284 5.14383C15.2802 5.10189 15.0308 5.06665 14.7802 5.04526C14.6417 5.03351 14.5027 5.02555 14.3638 5.01967C14.3262 5.01967 14.0215 5.04274 13.9935 5.01044C13.9654 4.97814 13.9935 4.8112 13.9935 4.77261V9.06629e-06C15.8332 -0.00208779 17.6553 0.359555 19.3554 1.06424C21.0555 1.76892 22.6003 2.8028 23.9013 4.1067C25.2023 5.4106 26.234 6.9589 26.9373 8.66298C27.6406 10.3671 28.0017 12.1935 28 14.0376V14.0355Z" fill="url(#paint1_linear_141_64)"/>
<path d="M4.5293 14.0372C4.5293 17.9872 7.07224 21.6143 10.7756 22.962C14.5065 24.3194 18.7873 23.1298 21.3135 20.0707C23.8397 17.0115 24.1807 12.5514 22.1232 9.14418C20.0656 5.73692 15.9907 3.93618 12.0933 4.73734C8.27613 5.52215 5.24653 8.70249 4.64479 12.5619C4.56827 13.0499 4.52966 13.5432 4.5293 14.0372ZM17.0411 7.28766C20.2058 8.71801 21.9905 12.2897 21.216 15.6844C20.6197 18.2964 18.5822 20.4335 16.0117 21.1621C13.3829 21.9071 10.4952 21.0992 8.62387 19.1067C6.59939 16.952 6.04661 13.705 7.26389 11.0011C8.71676 7.77129 12.3715 5.98734 15.805 6.85394C16.2287 6.962 16.6423 7.10669 17.0411 7.2864C17.2591 7.38623 16.8779 7.21467 17.0406 7.28766H17.0411Z" fill="url(#paint2_linear_141_64)"/>
<path d="M13.9935 10.5464C12.5406 10.5464 11.2078 11.4898 10.7153 12.8589C10.2203 14.2356 10.6596 15.8102 11.7828 16.7402C12.3397 17.1958 13.0231 17.4685 13.74 17.5214C14.457 17.5743 15.1728 17.4048 15.7903 17.0359C17.0335 16.2809 17.6951 14.7939 17.4135 13.3635C17.0955 11.7482 15.6355 10.5464 13.9935 10.5464Z" fill="#888888"/>
<defs>
<linearGradient id="paint0_linear_141_64" x1="2.50378e-05" y1="19.9977" x2="27.9975" y2="19.9977" gradientUnits="userSpaceOnUse">
<stop stop-color="#BBBBBB"/>
<stop offset="1" stop-color="#555555"/>
</linearGradient>
<linearGradient id="paint1_linear_141_64" x1="18367.9" y1="78940.7" x2="18367.9" y2="40796.9" gradientUnits="userSpaceOnUse">
<stop stop-color="#959595"/>
<stop offset="1" stop-color="#262626"/>
</linearGradient>
<linearGradient id="paint2_linear_141_64" x1="4.5293" y1="14.0334" x2="23.466" y2="14.0334" gradientUnits="userSpaceOnUse">
<stop stop-color="#262626"/>
<stop offset="1" stop-color="#959595"/>
</linearGradient>
</defs>
</svg>
