<svg width="32" height="30" viewBox="0 0 32 30" fill="none" xmlns="http://www.w3.org/2000/svg">
<path d="M11.7 16.5597C11.4 16.463 11.2 16.6564 11.1 16.9464C11.1 16.9464 10.9 17.6233 9.8 17.6233C8.8 17.6233 8.5 16.9464 8.5 16.9464C8.4 16.6564 8.2 16.5597 7.9 16.5597C7.6 16.6564 7.5 16.8497 7.6 17.1398C7.6 17.2365 8 18.5902 9.8 18.5902C11.6 18.5902 12 17.2365 12 17.1398C12.1 16.9464 11.9 16.6564 11.7 16.5597Z" fill="#01968F"/>
<path d="M24.1 16.5597C23.8 16.463 23.6 16.6564 23.5 16.9464C23.5 16.9464 23.3 17.6233 22.2 17.6233C21.2 17.6233 20.9 16.9464 20.9 16.9464C20.8 16.6564 20.6 16.5597 20.3 16.5597C20 16.6564 19.9 16.8497 20 17.1398C20 17.2365 20.4 18.5902 22.2 18.5902C24 18.5902 24.4 17.2365 24.4 17.1398C24.5 16.9464 24.4 16.6564 24.1 16.5597Z" fill="#01968F"/>
<path d="M16 18.3968C14.7 18.3968 13.6 19.4605 13.6 20.8142C13.6 22.1679 14.7 23.2315 16 23.2315C17.3 23.2315 18.4 22.1679 18.4 20.8142C18.4 19.4605 17.3 18.3968 16 18.3968ZM16 22.2646C15.2 22.2646 14.5 21.5877 14.5 20.8142C14.5 20.0406 15.2 19.3638 16 19.3638C16.8 19.3638 17.5 20.0406 17.5 20.8142C17.5 21.5877 16.8 22.2646 16 22.2646Z" fill="#01968F"/>
<path d="M28 13.6589C26.5 8.43745 21.7 4.66642 16 4.66642C15.5 4.66642 15 4.66642 14.6 4.76311C14.6 4.56973 14.6 4.37634 14.6 4.18295C14.6 1.37886 16.7 0.992083 16.8 0.992083C17.1 0.992083 17.3 0.702004 17.2 0.411925C17.2 0.121846 16.9 -0.0715403 16.7 0.0251527C16.7 0.0251527 13.7 0.508618 13.7 4.18295C13.7 4.47303 13.7 4.66642 13.7 4.9565C9.1 5.82674 5.4 9.21099 4.1 13.6589C1.8 13.8523 0 15.7861 0 18.2034C0 20.7175 2 22.748 4.4 22.748C4.5 22.748 4.6 22.748 4.8 22.748C6.7 27.0025 11 30 16 30C21 30 25.3 27.0025 27.3 22.6513C27.4 22.6513 27.5 22.6513 27.6 22.6513C30 22.6513 32 20.6208 32 18.1068C32 15.7861 30.2 13.8523 28 13.6589ZM1 18.2034C1 16.463 2.2 15.0126 3.9 14.7225C3.6 15.496 3.5 16.463 3.5 17.3332C3.5 18.8803 3.8 20.3307 4.3 21.7811C2.5 21.7811 1 20.1373 1 18.2034ZM16 29.0331C9.7 29.0331 4.5 23.8116 4.5 17.3332C4.5 11.6283 8.5 6.89036 13.8 5.82674C14.7 8.63083 17.8 8.82422 17.9 8.82422C18.2 8.82422 18.4 8.63084 18.4 8.34076C18.4 8.05068 18.2 7.85729 17.9 7.85729C17.8 7.85729 15.5 7.6639 14.7 5.63335C15.1 5.63335 15.5 5.53666 15.9 5.53666C22.2 5.53666 27.4 10.7581 27.4 17.2365C27.4 23.715 22.4 29.0331 16 29.0331ZM27.7 21.7811C28.2 20.4274 28.5 18.8803 28.5 17.3332C28.5 16.463 28.4 15.496 28.2 14.7225C29.8 15.0126 31 16.463 31 18.2034C31 20.1373 29.5 21.6844 27.7 21.7811Z" fill="#01968F"/>
</svg>
