<svg width="32" height="30" viewBox="0 0 32 30" fill="none" xmlns="http://www.w3.org/2000/svg">
<path d="M31.0789 16.4132C30.9787 7.97994 24.6626 1.88928 16.0407 1.88928C15.6397 1.88928 13.9354 1.88928 12.8326 1.98298C12.4316 1.42077 11.028 -0.172172 9.12317 0.0152329C8.42138 0.108935 7.81986 0.577447 7.41884 1.13966C6.81731 1.98298 6.71706 3.01371 6.71706 3.76333C6.01527 3.57592 5.01273 3.48222 4.21069 4.13814C2.60662 5.26257 3.50891 7.41772 3.90993 8.16734C2.30585 10.3225 1.40356 12.9462 1.00255 16.2257C0.200509 16.6943 0 17.8187 0 18.5683C0 20.8172 1.80458 22.5975 4.01018 22.5975C4.21069 22.5975 4.31095 22.5975 4.51146 22.5038C6.51655 26.9078 10.9277 30 16.0407 30C21.1537 30 25.6652 26.9078 27.57 22.5038C27.6703 22.5038 27.8708 22.5975 27.971 22.5975C30.2769 22.5975 31.9812 21.0046 31.9812 18.9431C32.0815 17.9124 31.7807 17.1628 31.0789 16.4132ZM4.81222 8.54215L5.01273 8.26104L4.91247 7.97994C4.91247 7.97994 3.60916 5.82478 4.81222 4.88776C5.71451 4.23184 7.11807 4.88776 7.11807 4.88776L8.02036 5.44997L7.7196 4.41925C7.61935 3.76333 7.61935 2.5452 8.22087 1.70188C8.52164 1.32707 8.8224 1.04596 9.32367 0.952257C10.9277 0.764852 12.2311 2.8263 12.2311 2.8263L12.4316 3.10741L12.7323 3.01371C13.4341 2.92001 14.9379 2.8263 16.0407 2.8263C24.2616 2.8263 29.9761 8.44845 30.1766 16.4132C29.8759 16.5069 29.3746 16.6006 28.5725 16.6943C27.7705 14.6328 24.4621 11.1658 18.1461 10.8847C12.8326 10.6036 7.81986 9.76028 7.7196 9.76028L7.11807 9.66658V10.2288C7.11807 10.2288 7.11807 11.8217 6.01527 13.9769C5.11298 15.7572 4.11044 16.788 3.70942 17.0691C2.60662 17.0691 2.10535 16.788 2.00509 16.6943C2.30585 13.2273 3.3084 10.6036 4.81222 8.54215ZM4.01018 21.5668C2.30585 21.5668 1.00255 20.2549 1.00255 18.5683C1.00255 18.0998 1.20305 17.5376 1.40356 17.2565C1.70433 17.5376 2.30585 17.8187 3.50891 17.9124C3.50891 19.2242 3.70942 20.4424 4.01018 21.5668C4.11044 21.5668 4.11044 21.5668 4.01018 21.5668ZM16.0407 29.063C9.72469 29.063 4.51146 23.9093 4.4112 17.6313C4.81222 17.2565 6.01527 16.132 6.91756 14.258C7.7196 12.6651 7.92011 11.3532 8.02036 10.6973C9.42393 10.8847 13.6346 11.5406 18.0458 11.728C24.7629 12.1028 27.7705 16.2257 27.7705 17.4439C27.6703 23.8156 22.457 29.063 16.0407 29.063ZM28.0713 21.5668C27.971 21.5668 27.971 21.5668 28.0713 21.5668C28.4723 20.3487 28.6728 18.9431 28.6728 17.5376C29.5751 17.4439 30.2769 17.3502 30.5776 17.1628C30.9787 17.6313 31.0789 18.0998 31.0789 18.7557C31.0789 20.4424 29.8759 21.5668 28.0713 21.5668Z" fill="#01968F"/>
<path d="M18.1461 20.1612C17.8453 20.0675 17.6448 20.255 17.5446 20.5361C17.5446 20.6298 17.2438 21.4731 16.0408 21.4731C14.8377 21.4731 14.6372 20.6298 14.5369 20.5361C14.4367 20.255 14.2362 20.1612 13.9354 20.1612C13.6346 20.255 13.5344 20.5361 13.6346 20.7235C13.7349 21.2857 14.4367 22.3164 16.0408 22.3164C17.6448 22.3164 18.3466 21.2857 18.4469 20.7235C18.5471 20.5361 18.3466 20.255 18.1461 20.1612Z" fill="#01968F"/>
<path d="M10.226 17.9124C9.92524 17.9124 9.72473 18.0998 9.72473 18.3809V19.7864C9.72473 20.0675 9.92524 20.2549 10.226 20.2549C10.5268 20.2549 10.7273 20.0675 10.7273 19.7864V18.3809C10.7273 18.1935 10.4265 17.9124 10.226 17.9124Z" fill="#01968F"/>
<path d="M21.3542 17.8187C21.0534 17.8187 20.8529 18.0061 20.8529 18.2872V19.6927C20.8529 19.9738 21.0534 20.1612 21.3542 20.1612C21.6549 20.1612 21.8555 19.9738 21.8555 19.6927V18.2872C21.8555 18.0998 21.6549 17.8187 21.3542 17.8187Z" fill="#01968F"/>
</svg>
