<svg width="28" height="41" viewBox="0 0 28 41" fill="none" xmlns="http://www.w3.org/2000/svg">
<path d="M13.9956 7C10.6579 7 7.5947 9.16062 6.46331 12.2979C5.32579 15.4517 6.33556 19.0591 8.91466 21.1896C11.4938 23.3201 15.2528 23.6018 18.1228 21.8666C20.9795 20.1399 22.4994 16.7313 21.8521 13.4536C21.1257 9.75284 17.7687 7 13.9956 7Z" fill="white"/>
<path d="M23.8978 5.11341C20.4961 1.70349 15.4658 0.267827 10.7825 1.36951C7.21272 2.2096 4.05964 4.48514 2.11474 7.60078C1.12602 9.18553 0.463819 10.9527 0.167171 12.798C-0.154517 14.8068 0.0151496 16.8455 0.445161 18.8253C1.25451 22.5509 2.9524 26.0581 4.88766 29.3173C6.57447 32.1581 8.4968 34.8592 10.5671 37.4313C11.1954 38.2117 11.8397 38.979 12.5001 39.7333C12.846 40.1266 13.2823 40.7314 13.7768 40.9027C13.8588 40.9309 13.9797 40.9886 14.0671 40.9926C14.1817 40.9979 14.329 40.9344 14.4392 40.8934C14.7002 40.7968 14.9236 40.5862 15.1119 40.3836C15.2069 40.2808 15.2988 40.1759 15.3914 40.0712C15.9453 39.443 16.4848 38.8001 17.0135 38.1496C19.0036 35.7011 20.8539 33.1317 22.5071 30.4426C24.5076 27.1869 26.2777 23.7079 27.2723 20.0026C27.8127 17.9885 28.1294 15.869 27.9452 13.7825C27.7493 11.5796 27.0359 9.45458 25.8632 7.58124C25.3024 6.68743 24.6431 5.85963 23.8978 5.11341ZM22.4486 18.1407C20.9698 22.178 16.7132 24.6734 12.4789 23.9489C9.26328 23.3988 6.53426 21.0525 5.47687 17.9628C4.39569 14.8029 5.18842 11.2186 7.48742 8.80549C9.94768 6.22352 13.7999 5.32503 17.1426 6.58156C21.1483 8.08714 23.5971 12.3567 22.8636 16.5878C22.7718 17.1169 22.6327 17.6366 22.448 18.1407C22.3729 18.3465 22.8037 17.1714 22.4486 18.1398V18.1407Z" fill="#00A29A"/>
<path opacity="0.8" d="M28 15.0355C28 18.6139 26.769 22.1612 25.2685 25.3644C23.839 28.4165 22.0629 31.3018 20.1207 34.051C18.7888 35.936 17.374 37.7652 15.8718 39.517C15.6213 39.809 15.3717 40.1033 15.1095 40.3846C14.9248 40.5825 14.7072 40.7855 14.4554 40.8868C14.3748 40.9193 14.0656 41.0621 13.9934 40.9642C13.9559 40.9138 13.9934 40.6874 13.9934 40.6279V24.5214C13.9934 24.4404 13.9464 24.1718 13.9934 24.1019C14.0535 24.0131 14.5699 24.0593 14.7051 24.0488C15.2553 24.0053 15.8003 23.9106 16.333 23.7661C17.3927 23.4787 18.3906 22.9987 19.2773 22.35C21.0786 21.0301 22.3579 19.062 22.8107 16.8693C23.2768 14.6123 22.8517 12.2226 21.6347 10.2679C20.5721 8.56766 18.9794 7.26647 17.1038 6.56614C16.5925 6.37758 16.0652 6.23585 15.5284 6.1427C15.2804 6.09931 15.0309 6.06558 14.7802 6.04419C14.6417 6.03226 14.5028 6.02363 14.3639 6.01849C14.326 6.01684 14.0215 6.04172 13.9934 6.00964C13.9653 5.97756 13.9934 5.80995 13.9934 5.7717V0.997894C17.1151 0.997894 20.1878 2.05927 22.6415 3.99466C24.7488 5.65654 26.3638 7.91604 27.2384 10.4581C27.7435 11.9311 28.0009 13.478 28 15.0355Z" fill="url(#paint0_linear_141_65)"/>
<path d="M4.52966 15.0372C4.52966 18.9871 7.07239 22.614 10.7757 23.9625C14.5065 25.3198 18.7875 24.1311 21.3135 21.0714C23.8447 18.0055 24.181 13.5523 22.1234 10.1449C20.0659 6.73744 15.991 4.93592 12.0936 5.73715C8.27606 6.52212 5.2469 9.70233 4.64373 13.5618C4.56771 14.0499 4.52957 14.5432 4.52966 15.0372ZM17.0406 8.28744C20.2054 9.71816 21.9903 13.2897 21.2156 16.684C20.6194 19.2958 18.582 21.4334 16.0111 22.1618C13.3824 22.9069 10.4948 22.1001 8.6236 20.1077C6.5991 17.9533 6.04619 14.7058 7.2634 12.0021C8.71653 8.7734 12.3718 6.98854 15.8045 7.85516C16.2283 7.96299 16.6418 8.10749 17.0406 8.28703C17.2593 8.38615 16.8779 8.21443 17.0406 8.28744Z" fill="url(#paint1_linear_141_65)"/>
<path d="M13.9934 11.5464C12.5409 11.5464 11.2078 12.4895 10.7154 13.859C10.2204 15.2356 10.6598 16.8103 11.7822 17.7403C12.9047 18.6702 14.5406 18.7932 15.7896 18.0358C17.0329 17.2821 17.6943 15.7942 17.4126 14.3634C17.0965 12.748 15.6355 11.5464 13.9934 11.5464Z" fill="#00A29A"/>
<defs>
<linearGradient id="paint0_linear_141_65" x1="-7257.86" y1="101758" x2="-7257.86" y2="23956.2" gradientUnits="userSpaceOnUse">
<stop stop-color="#00A29A"/>
<stop offset="1" stop-color="#007773"/>
</linearGradient>
<linearGradient id="paint1_linear_141_65" x1="4.52966" y1="15.0332" x2="23.466" y2="15.0332" gradientUnits="userSpaceOnUse">
<stop stop-color="#007773"/>
<stop offset="1" stop-color="#00A29A"/>
</linearGradient>
</defs>
</svg>
